<svg version="1.1" id="Layer_1" xmlns="http://www.w3.org/2000/svg" xmlns:xlink="http://www.w3.org/1999/xlink" x="0px" y="0px" width="100%" viewBox="0 0 200 200" enable-background="new 0 0 200 200" xml:space="preserve">
	<path fill="#FEFEFE" opacity="1.000000" stroke="none" d="
M1.000000,112.000000 
	C1.000000,75.020325 1.000000,38.040646 1.000000,1.030484 
	C67.609711,1.030484 134.219452,1.030484 200.914581,1.030484 
	C200.914581,67.573013 200.914581,134.146164 200.914581,200.859665 
	C134.333527,200.859665 67.666809,200.859665 1.000000,200.859665 
	C1.000000,172.572968 1.000000,144.255142 1.270465,115.127380 
	C5.274091,114.739662 8.096821,114.292816 9.326335,109.734306 
	C10.094635,106.885773 21.262642,107.329018 22.137310,110.234482 
	C23.525503,114.845764 26.317663,114.820267 30.232403,113.832832 
	C26.609915,105.275612 23.242868,97.025658 19.552822,88.922798 
	C18.996304,87.700745 16.903034,86.454910 15.575480,86.511307 
	C14.250113,86.567612 12.423467,87.972687 11.806393,89.260674 
	C9.234905,94.628029 7.115318,100.209732 4.663047,105.637398 
	C3.660275,107.856865 2.233747,109.884888 1.000000,112.000000 
M130.811951,89.498947 
	C130.610611,89.225449 130.340759,89.074364 129.972992,89.031708 
	C129.972992,89.031708 129.952606,89.006325 129.689148,88.520638 
	C129.352203,88.400879 129.015274,88.281120 128.294434,88.125168 
	C128.294434,88.125168 128.000015,87.876175 127.808174,87.109871 
	C121.909317,85.798309 116.012115,84.413872 109.507812,86.857323 
	C109.331879,86.902695 109.155945,86.948059 108.226295,86.987694 
	C107.472679,86.997322 106.719070,87.006950 105.062408,86.762154 
	C98.499413,86.762154 91.936409,86.762154 85.329468,86.762154 
	C85.329468,96.151817 85.329468,105.140663 85.329468,114.062805 
	C92.464790,114.062805 99.242599,114.062805 106.434547,114.616562 
	C111.766129,118.265450 117.255119,115.751686 122.691315,114.992371 
	C122.839485,114.971664 122.911858,114.408257 123.651138,113.925613 
	C124.085815,113.901772 124.520500,113.877930 125.384033,114.439575 
	C128.013840,115.503998 129.694595,114.962608 129.963684,111.855606 
	C129.963684,111.855606 129.825134,111.864288 130.346619,111.755096 
	C130.540634,111.471329 130.734650,111.187561 130.993561,110.990616 
	C130.993561,110.990616 130.905746,110.927055 131.399918,110.770477 
	C131.578674,110.485977 131.757431,110.201469 131.996536,109.993225 
	C131.996536,109.993225 131.916275,109.938347 132.420029,109.740227 
	C132.578308,109.428452 132.736572,109.116669 133.076065,108.200089 
	C133.640228,107.316750 134.204391,106.433411 135.235199,106.261063 
	C136.310455,106.437981 137.385727,106.614906 138.783691,107.072784 
	C138.945663,107.315857 139.038895,107.582924 139.157700,108.384163 
	C139.421143,108.594482 139.684601,108.804802 140.467392,109.337776 
	C141.322495,110.204918 142.177582,111.072060 143.142380,112.684029 
	C144.753418,113.115906 146.364441,113.547775 148.500214,113.952721 
	C148.670242,113.994728 148.840286,114.036736 149.139816,114.751114 
	C151.247177,117.049675 152.724503,116.060951 154.217529,113.629852 
	C154.217529,113.629852 154.537399,113.595764 155.330276,113.823936 
	C157.895523,112.827530 160.460785,111.831131 163.380402,110.697083 
	C163.958771,111.136749 165.061783,111.975243 166.645416,112.703979 
	C167.059601,112.444489 167.473770,112.185005 168.391647,111.793076 
	C168.587448,111.516907 168.783264,111.240738 168.998734,111.001694 
	C168.998734,111.001694 168.964981,110.976181 169.437057,110.872704 
	C169.746353,110.722717 169.949066,110.482697 170.074844,110.048103 
	C170.074844,110.048103 170.175537,110.089005 170.995651,110.067780 
	C176.311737,110.059441 181.627838,110.051102 186.989594,109.996353 
	C186.989594,109.996353 186.970093,110.058372 187.191147,110.501534 
	C187.403595,110.781273 187.684418,110.940262 188.000000,111.000610 
	C188.000000,111.000610 188.022110,110.967079 188.121964,111.677582 
	C189.435760,112.479469 190.749542,113.281357 192.393951,114.285027 
	C193.011017,108.670723 192.752228,108.107735 188.674957,105.664467 
	C188.472427,105.385239 188.269913,105.106003 188.037216,104.114502 
	C186.674789,102.871956 185.312347,101.629410 184.254410,100.664558 
	C185.396591,99.841347 186.690689,98.908638 188.143448,97.629776 
	C188.143448,97.629776 188.243301,97.262314 188.708206,97.065483 
	C188.893555,96.791710 189.078903,96.517937 189.639725,96.145943 
	C189.639725,96.145943 189.998688,95.998405 190.638885,95.912033 
	C190.766464,94.937653 190.894058,93.963280 190.925171,92.342041 
	C190.899292,91.906990 190.873413,91.471931 191.376373,90.673836 
	C191.277008,86.432098 187.755386,85.598145 184.908875,85.327950 
	C179.302856,84.795807 173.615234,85.048210 167.964600,85.152481 
	C167.222046,85.166183 166.498611,86.215988 165.340286,87.426079 
	C165.039001,89.166092 164.737701,90.906097 164.451721,92.557632 
	C162.974823,91.563835 161.897049,90.838623 160.240555,90.028236 
	C159.852234,89.989830 159.463898,89.951431 158.792633,89.279198 
	C155.260239,88.380379 151.480270,86.255577 148.260681,86.905754 
	C144.575333,87.649994 141.387817,90.859322 137.123917,93.008698 
	C135.978500,93.054764 134.833069,93.100838 133.296494,92.910568 
	C133.080734,92.674667 132.968079,92.396950 132.829834,91.600403 
	C132.662811,91.292404 132.409927,91.093605 131.606094,90.930031 
	C131.606094,90.930031 131.139114,90.869034 131.079178,90.400581 
	C131.079178,90.400581 131.010406,89.932526 130.811951,89.498947 
M53.645161,91.087334 
	C47.541218,83.433289 39.273468,87.867332 31.772320,86.539352 
	C31.772320,96.088737 31.772320,104.977982 31.772320,113.935730 
	C33.894852,113.935730 35.778439,113.935730 38.010910,113.935730 
	C38.010910,110.965347 38.010910,108.361694 38.010910,105.964439 
	C42.285858,104.303871 43.868214,107.111519 45.212524,109.791687 
	C47.315231,113.983894 50.359409,115.380096 55.131245,113.748283 
	C53.055698,110.618759 51.077061,107.635361 49.107853,104.666176 
	C54.839684,100.450089 55.639439,98.255653 53.645161,91.087334 
M63.512856,87.781349 
	C55.644585,92.866440 53.401897,101.735870 58.202423,108.783173 
	C62.695435,115.379036 73.055367,116.986679 80.034302,112.010750 
	C81.069679,111.272537 82.033958,109.761681 82.144104,108.529015 
	C82.436417,105.257698 82.243317,101.943001 82.243317,98.436066 
	C78.056938,98.436066 74.311554,98.436066 70.356628,98.436066 
	C70.356628,100.243347 70.356628,101.800163 70.356628,103.615791 
	C72.375031,103.741982 74.135406,103.852043 77.445641,104.059006 
	C75.745903,106.233437 74.965012,108.288383 73.689133,108.664581 
	C70.012810,109.748573 66.331459,109.344971 63.941479,105.738625 
	C61.588749,102.188477 61.596718,98.501701 64.124611,95.048027 
	C66.650490,91.597099 70.167465,91.263100 73.951599,92.515656 
	C75.165382,92.917419 76.272438,93.641617 77.621361,94.314606 
	C78.848511,92.840561 79.969849,91.493622 81.322556,89.868759 
	C75.787315,85.657059 70.201134,85.082291 63.512856,87.781349 
z" />
	<path fill="#1C1C1C" opacity="1.000000" stroke="none" d="
M1.000000,112.375000 
	C2.233747,109.884888 3.660275,107.856865 4.663047,105.637398 
	C7.115318,100.209732 9.234905,94.628029 11.806393,89.260674 
	C12.423467,87.972687 14.250113,86.567612 15.575480,86.511307 
	C16.903034,86.454910 18.996304,87.700745 19.552822,88.922798 
	C23.242868,97.025658 26.609915,105.275612 30.232403,113.832832 
	C26.317663,114.820267 23.525503,114.845764 22.137310,110.234482 
	C21.262642,107.329018 10.094635,106.885773 9.326335,109.734306 
	C8.096821,114.292816 5.274091,114.739662 1.270465,114.658722 
	C1.000000,114.250000 1.000000,113.500000 1.000000,112.375000 
M12.900063,100.368645 
	C12.938255,103.359268 12.938255,103.359268 19.177992,102.254341 
	C18.070347,99.680016 17.000240,97.192940 15.677695,94.119156 
	C14.617738,96.410950 13.871322,98.024811 12.900063,100.368645 
z" />
	<path fill="#1C1C1D" opacity="1.000000" stroke="none" d="
M53.805557,91.439812 
	C55.639439,98.255653 54.839684,100.450089 49.107853,104.666176 
	C51.077061,107.635361 53.055698,110.618759 55.131245,113.748283 
	C50.359409,115.380096 47.315231,113.983894 45.212524,109.791687 
	C43.868214,107.111519 42.285858,104.303871 38.010910,105.964439 
	C38.010910,108.361694 38.010910,110.965347 38.010910,113.935730 
	C35.778439,113.935730 33.894852,113.935730 31.772320,113.935730 
	C31.772320,104.977982 31.772320,96.088737 31.772320,86.539352 
	C39.273468,87.867332 47.541218,83.433289 53.805557,91.439812 
M40.454121,99.994286 
	C41.604778,99.995132 43.027317,100.426071 43.849064,99.906609 
	C45.520004,98.850342 46.866493,97.280830 48.346680,95.922821 
	C46.917702,94.649544 45.678238,92.872658 44.006805,92.243675 
	C42.312618,91.606133 40.191551,92.102989 36.906826,92.102989 
	C37.930744,95.193451 38.726768,97.596069 40.454121,99.994286 
z" />
	<path fill="#1F1F1F" opacity="1.000000" stroke="none" d="
M63.844872,87.572754 
	C70.201134,85.082291 75.787315,85.657059 81.322556,89.868759 
	C79.969849,91.493622 78.848511,92.840561 77.621361,94.314606 
	C76.272438,93.641617 75.165382,92.917419 73.951599,92.515656 
	C70.167465,91.263100 66.650490,91.597099 64.124611,95.048027 
	C61.596718,98.501701 61.588749,102.188477 63.941479,105.738625 
	C66.331459,109.344971 70.012810,109.748573 73.689133,108.664581 
	C74.965012,108.288383 75.745903,106.233437 77.445641,104.059006 
	C74.135406,103.852043 72.375031,103.741982 70.356628,103.615791 
	C70.356628,101.800163 70.356628,100.243347 70.356628,98.436066 
	C74.311554,98.436066 78.056938,98.436066 82.243317,98.436066 
	C82.243317,101.943001 82.436417,105.257698 82.144104,108.529015 
	C82.033958,109.761681 81.069679,111.272537 80.034302,112.010750 
	C73.055367,116.986679 62.695435,115.379036 58.202423,108.783173 
	C53.401897,101.735870 55.644585,92.866440 63.844872,87.572754 
z" />
	<path fill="#141414" opacity="1.000000" stroke="none" d="
M106.020416,114.062805 
	C99.242599,114.062805 92.464790,114.062805 85.329468,114.062805 
	C85.329468,105.140663 85.329468,96.151817 85.329468,86.762154 
	C91.936409,86.762154 98.499413,86.762154 105.499222,87.332779 
	C105.936028,89.163734 105.936028,90.424072 105.936028,92.100998 
	C100.764763,92.100998 96.025002,92.100998 91.221466,92.100998 
	C91.221466,94.116776 91.221466,95.706665 91.221466,97.906952 
	C95.598129,97.906952 99.783981,97.906952 103.967590,97.906952 
	C103.967590,100.005661 103.967590,101.492767 103.506844,103.026367 
	C99.145294,103.072868 95.244484,103.072868 91.388680,103.072868 
	C91.388680,105.313690 91.388680,107.007324 91.388680,109.049019 
	C96.478424,109.049019 101.229836,109.049019 106.017975,109.465439 
	C106.043282,111.275513 106.031853,112.669159 106.020416,114.062805 
z" />
	<path fill="#E6F2F3" opacity="1.000000" stroke="none" d="
M106.227478,114.339684 
	C106.031853,112.669159 106.043282,111.275513 106.196411,109.198349 
	C109.108444,105.144958 106.135109,104.234970 103.967590,102.979874 
	C103.967590,101.492767 103.967590,100.005661 103.967590,97.906952 
	C99.783981,97.906952 95.598129,97.906952 91.221466,97.906952 
	C91.221466,95.706665 91.221466,94.116776 91.221466,92.100998 
	C96.025002,92.100998 100.764763,92.100998 105.936028,92.100998 
	C105.936028,90.424072 105.936028,89.163734 105.950745,87.459991 
	C106.719070,87.006950 107.472679,86.997322 108.582535,87.373901 
	C110.420158,90.377037 111.901543,92.993973 113.553070,95.897751 
	C115.163918,97.069778 116.604614,97.954956 118.037750,99.207970 
	C118.028702,100.066498 118.027214,100.557182 118.001289,101.192017 
	C117.976852,101.336166 118.069862,101.613388 117.665802,101.506500 
	C116.159790,101.456688 115.057831,101.513756 113.727081,101.493843 
	C113.498299,101.416862 113.060333,101.619987 112.694626,101.519241 
	C111.583214,101.498230 110.837502,101.577950 109.823959,101.590691 
	C109.399490,102.008820 109.242859,102.493927 109.021515,103.426910 
	C108.995888,106.590439 109.034958,109.306114 109.076935,112.434723 
	C113.726418,113.264412 118.372993,113.681175 123.019577,114.097931 
	C122.911858,114.408257 122.839485,114.971664 122.691315,114.992371 
	C117.255119,115.751686 111.766129,118.265450 106.227478,114.339684 
z" />
	<path fill="#CAF3FA" opacity="1.000000" stroke="none" d="
M160.819290,90.113403 
	C161.897049,90.838623 162.974823,91.563835 164.451721,92.557632 
	C164.737701,90.906097 165.039001,89.166092 165.629669,87.175217 
	C165.919037,86.924347 166.070251,87.064400 166.060791,87.519287 
	C166.119827,91.330734 166.188324,94.687302 166.255798,98.239029 
	C166.254761,98.434196 166.547577,98.690659 166.547577,98.690659 
	C166.547577,98.690659 166.933701,98.639931 167.329803,98.707199 
	C168.794968,98.739395 169.864014,98.704330 171.270569,98.755730 
	C172.729858,98.747803 173.851654,98.653404 175.363739,98.570915 
	C176.793152,98.562836 177.832260,98.542847 179.236115,98.637589 
	C182.395508,98.493538 185.190140,98.234734 187.984787,97.975937 
	C186.690689,98.908638 185.396591,99.841347 184.254410,100.664558 
	C185.312347,101.629410 186.674789,102.871956 187.707825,104.338982 
	C184.247284,103.692253 181.116150,102.821045 177.527313,101.877953 
	C173.512772,101.806076 169.955948,101.806076 166.164795,101.806076 
	C166.164795,105.951035 166.164795,109.382378 166.164795,112.813728 
	C165.061783,111.975243 163.958771,111.136749 163.380402,110.697083 
	C160.460785,111.831131 157.895523,112.827530 155.126434,113.509132 
	C155.286423,112.800949 155.650253,112.407562 156.342590,111.973923 
	C157.843704,111.019432 159.016327,110.105202 160.412628,109.071426 
	C160.775497,108.651108 160.914673,108.350334 161.344193,107.849747 
	C162.280472,105.897415 162.926407,104.144905 163.593674,102.334496 
	C154.372910,102.334496 145.787323,102.334496 137.228607,101.989624 
	C137.511459,100.766441 137.767410,99.888123 138.489807,98.980438 
	C147.065277,98.951073 155.174301,98.951073 164.130356,98.951073 
	C163.255524,96.775970 162.677063,95.337738 162.075958,93.919258 
	C162.053314,93.939018 162.108887,93.951797 162.080139,93.658661 
	C161.683990,92.935127 161.316620,92.504738 160.877136,91.822708 
	C160.754761,91.403954 160.704514,91.236839 160.739594,90.838249 
	C160.824905,90.606773 160.819290,90.113403 160.819290,90.113403 
z" />
	<path fill="#149BC3" opacity="1.000000" stroke="none" d="
M156.014069,112.014175 
	C155.650253,112.407562 155.286423,112.800949 154.729996,113.395050 
	C154.537399,113.595764 154.217529,113.629852 153.676620,113.695160 
	C151.760574,113.866554 150.385452,113.972656 149.010315,114.078751 
	C148.840286,114.036736 148.670242,113.994728 147.988983,113.746750 
	C145.996063,113.006912 144.514374,112.473053 143.032684,111.939201 
	C142.177582,111.072060 141.322495,110.204918 140.163559,108.919312 
	C139.594284,108.291893 139.328827,108.082947 139.063385,107.874001 
	C139.038895,107.582924 138.945663,107.315857 138.582642,106.708717 
	C138.381577,106.344650 138.108627,105.981331 138.098480,105.632339 
	C137.781876,104.422546 137.475449,103.561729 137.215881,102.612762 
	C137.262756,102.524612 137.201736,102.334496 137.201736,102.334496 
	C145.787323,102.334496 154.372910,102.334496 163.593674,102.334496 
	C162.926407,104.144905 162.280472,105.897415 161.298218,107.813141 
	C160.961899,107.976341 160.867325,107.906578 160.902740,107.493729 
	C158.748962,100.594261 153.924835,105.694382 150.309265,103.701775 
	C150.496719,107.041641 150.627350,109.369301 150.766968,111.856888 
	C152.600510,111.856888 154.233505,111.856888 155.903351,111.896240 
	C155.940216,111.935585 156.014069,112.014175 156.014069,112.014175 
z" />
	<path fill="#2BA9CF" opacity="1.000000" stroke="none" d="
M123.335358,114.011772 
	C118.372993,113.681175 113.726418,113.264412 109.440659,112.599709 
	C118.405807,116.336357 122.406578,107.552170 128.999557,105.128616 
	C126.154709,104.020454 123.270813,103.762802 120.436790,103.236618 
	C119.576996,103.076973 118.854988,102.175224 118.069862,101.613388 
	C118.069862,101.613388 117.976852,101.336166 118.461334,101.271355 
	C124.229698,101.215950 129.513580,101.225357 134.839325,101.197014 
	C134.881195,101.159264 134.768951,101.148720 134.815582,101.458000 
	C134.969666,102.170418 135.077148,102.573555 135.097839,103.293137 
	C134.930206,104.256409 134.849380,104.903244 134.768555,105.550072 
	C134.204391,106.433411 133.640228,107.316750 132.743546,108.612823 
	C132.246109,109.329819 132.081192,109.634087 131.916290,109.938354 
	C131.916275,109.938347 131.996536,109.993225 131.718124,110.031311 
	C131.261734,110.355293 131.083740,110.641174 130.905746,110.927055 
	C130.905746,110.927055 130.993561,110.990616 130.704865,111.010880 
	C130.219147,111.308853 130.022141,111.586571 129.825134,111.864288 
	C129.825134,111.864288 129.963684,111.855606 129.568588,111.898544 
	C127.767387,112.579010 126.361282,113.216545 124.955177,113.854080 
	C124.520500,113.877930 124.085815,113.901772 123.335358,114.011772 
z" />
	<path fill="#35A1BF" opacity="1.000000" stroke="none" d="
M162.098602,93.899498 
	C162.677063,95.337738 163.255524,96.775970 164.130356,98.951073 
	C155.174301,98.951073 147.065277,98.951073 138.230621,98.737320 
	C137.664673,96.681587 137.824326,94.839607 137.983994,92.997620 
	C141.387817,90.859322 144.575333,87.649994 148.260681,86.905754 
	C151.480270,86.255577 155.260239,88.380379 158.876389,89.667572 
	C158.960144,90.055954 158.846954,90.200386 158.485046,90.085297 
	C154.764694,89.309036 151.176498,87.616753 148.117203,88.298355 
	C145.454926,88.891495 141.703247,91.985481 141.455688,94.297958 
	C141.082382,97.784912 145.073792,98.128906 148.236191,98.015739 
	C151.394012,97.902725 154.571213,97.823654 157.717728,98.045082 
	C160.883530,98.267868 162.489807,97.242142 162.098602,93.899498 
z" />
	<path fill="#159EC9" opacity="1.000000" stroke="none" d="
M177.985016,101.949829 
	C181.116150,102.821045 184.247284,103.692253 187.722900,104.695114 
	C188.269913,105.106003 188.472427,105.385239 188.901917,106.173882 
	C189.072205,108.191895 191.937866,110.455528 188.022110,110.967079 
	C188.022110,110.967079 188.000000,111.000610 187.933167,110.743294 
	C187.567596,110.343437 187.268845,110.200905 186.970093,110.058372 
	C186.970093,110.058372 186.989594,109.996353 186.762024,109.714890 
	C182.020676,108.909317 177.506897,108.385208 173.055222,107.526215 
	C173.751389,105.790215 174.385452,104.389099 175.357483,102.982765 
	C176.458618,102.634972 177.221817,102.292404 177.985016,101.949829 
z" />
	<path fill="#1A98BC" opacity="1.000000" stroke="none" d="
M113.382919,95.610901 
	C111.901543,92.993973 110.420158,90.377037 108.959396,87.376770 
	C109.155945,86.948059 109.331879,86.902695 110.225464,86.875748 
	C116.628746,87.221512 122.314384,87.548843 128.000015,87.876175 
	C128.000015,87.876175 128.294434,88.125168 128.618591,88.385147 
	C129.279373,88.765518 129.615982,88.885918 129.952606,89.006325 
	C129.952606,89.006325 129.972992,89.031708 130.000549,89.257828 
	C130.028122,89.483940 130.070724,89.921684 130.033966,89.964752 
	C129.997223,90.007828 129.926407,90.096199 129.547699,90.020790 
	C127.302849,89.328735 125.476936,88.502525 123.562958,88.135201 
	C118.077423,87.082390 115.170586,89.241425 113.849800,95.135178 
	C113.684952,95.284431 113.382919,95.610901 113.382919,95.610901 
z" />
	<path fill="#CAF3FA" opacity="1.000000" stroke="none" d="
M165.842682,86.855133 
	C166.498611,86.215988 167.222046,85.166183 167.964600,85.152481 
	C173.615234,85.048210 179.302856,84.795807 184.908875,85.327950 
	C187.755386,85.598145 191.277008,86.432098 190.830322,90.823395 
	C189.911484,90.907990 189.538666,90.843018 189.106873,90.472092 
	C188.369003,89.456635 187.690155,88.747139 186.778992,87.668167 
	C179.721207,87.220596 172.895721,87.142502 166.070251,87.064400 
	C166.070251,87.064400 165.919037,86.924347 165.842682,86.855133 
z" />
	<path fill="#278EAC" opacity="1.000000" stroke="none" d="
M177.527313,101.877953 
	C177.221817,102.292404 176.458618,102.634972 174.929047,102.977707 
	C172.156693,103.681427 170.150742,104.384979 168.144775,105.088531 
	C168.882202,106.458778 169.619629,107.829033 170.303680,109.420082 
	C170.250320,109.640884 170.175537,110.089005 170.175537,110.089005 
	C170.175537,110.089005 170.074844,110.048103 169.805847,110.114769 
	C169.346237,110.446350 169.155609,110.711273 168.964996,110.976181 
	C168.964981,110.976181 168.998734,111.001694 168.730164,111.039917 
	C168.270370,111.360596 168.079163,111.643051 167.887955,111.925507 
	C167.473770,112.185005 167.059601,112.444489 166.405106,112.758850 
	C166.164795,109.382378 166.164795,105.951035 166.164795,101.806076 
	C169.955948,101.806076 173.512772,101.806076 177.527313,101.877953 
z" />
	<path fill="#E6F2F3" opacity="1.000000" stroke="none" d="
M137.553955,93.003159 
	C137.824326,94.839607 137.664673,96.681587 137.764191,98.766693 
	C137.767410,99.888123 137.511459,100.766441 137.228607,101.989624 
	C137.201736,102.334496 137.262756,102.524612 137.158066,102.983864 
	C137.405121,104.289192 137.756866,105.135262 138.108627,105.981331 
	C138.108627,105.981331 138.381577,106.344650 138.421280,106.568237 
	C137.385727,106.614906 136.310455,106.437981 135.001877,105.905563 
	C134.849380,104.903244 134.930206,104.256409 135.296356,103.118820 
	C135.310776,102.134949 135.039856,101.641838 134.768951,101.148720 
	C134.768951,101.148720 134.881195,101.159264 134.895233,100.811523 
	C134.906845,99.947830 134.904419,99.431877 134.917664,98.932983 
	C134.933350,98.950027 134.897217,98.937500 135.143829,98.829483 
	C135.281219,98.142975 135.171982,97.564491 134.986115,96.749901 
	C134.909470,96.513802 134.979340,96.022285 134.942078,95.737137 
	C134.642349,94.962730 134.379883,94.473473 133.986145,94.033035 
	C133.854874,94.081841 133.574997,94.092697 133.619019,93.858139 
	C133.663040,93.623581 133.687653,93.146912 133.687653,93.146912 
	C134.833069,93.100838 135.978500,93.054764 137.553955,93.003159 
z" />
	<path fill="#CAF3FA" opacity="1.000000" stroke="none" d="
M170.585602,110.078392 
	C170.175537,110.089005 170.250320,109.640884 170.592590,109.348175 
	C171.620941,108.657349 172.307037,108.259216 172.993118,107.861092 
	C177.506897,108.385208 182.020676,108.909317 186.739197,109.738098 
	C181.627838,110.051102 176.311737,110.059441 170.585602,110.078392 
z" />
	<path fill="#CAF3FA" opacity="1.000000" stroke="none" d="
M188.072037,111.322327 
	C191.937866,110.455528 189.072205,108.191895 189.121124,106.315445 
	C192.752228,108.107735 193.011017,108.670723 192.393951,114.285027 
	C190.749542,113.281357 189.435760,112.479469 188.072037,111.322327 
z" />
	<path fill="#E6F2F3" opacity="1.000000" stroke="none" d="
M127.904099,87.493027 
	C122.314384,87.548843 116.628746,87.221512 110.487183,86.799744 
	C116.012115,84.413872 121.909317,85.798309 127.904099,87.493027 
z" />
	<path fill="#3AABD1" opacity="1.000000" stroke="none" d="
M188.064117,97.802856 
	C185.190140,98.234734 182.395508,98.493538 179.458344,98.264275 
	C182.161133,97.453819 185.006454,97.131416 187.948730,96.923141 
	C188.045670,97.037277 188.243301,97.262314 188.243301,97.262314 
	C188.243301,97.262314 188.143448,97.629776 188.064117,97.802856 
z" />
	<path fill="#E6F2F3" opacity="1.000000" stroke="none" d="
M125.169601,114.146835 
	C126.361282,113.216545 127.767387,112.579010 129.502930,111.876007 
	C129.694595,114.962608 128.013840,115.503998 125.169601,114.146835 
z" />
	<path fill="#CAF3FA" opacity="1.000000" stroke="none" d="
M149.075073,114.414932 
	C150.385452,113.972656 151.760574,113.866554 153.549408,113.793564 
	C152.724503,116.060951 151.247177,117.049675 149.075073,114.414932 
z" />
	<path fill="#3AABD1" opacity="1.000000" stroke="none" d="
M189.165863,90.778053 
	C189.538666,90.843018 189.911484,90.907990 190.565903,91.004913 
	C190.873413,91.471931 190.899292,91.906990 190.831314,92.953232 
	C190.491211,94.375748 190.244949,95.187080 189.998688,95.998405 
	C189.998688,95.998405 189.639725,96.145943 189.336624,96.093826 
	C189.033524,96.041718 188.799820,95.842690 188.871521,95.428345 
	C189.017441,93.602020 189.091660,92.190033 189.165863,90.778053 
z" />
	<path fill="#CAF3FA" opacity="1.000000" stroke="none" d="
M143.087524,112.311615 
	C144.514374,112.473053 145.996063,113.006912 147.726624,113.760208 
	C146.364441,113.547775 144.753418,113.115906 143.087524,112.311615 
z" />
	<path fill="#CAF3FA" opacity="1.000000" stroke="none" d="
M190.318787,95.955215 
	C190.244949,95.187080 190.491211,94.375748 190.879547,93.276657 
	C190.894058,93.963280 190.766464,94.937653 190.318787,95.955215 
z" />
	<path fill="#1A98BC" opacity="1.000000" stroke="none" d="
M133.492065,93.028740 
	C133.687653,93.146912 133.663040,93.623581 133.346069,93.773346 
	C132.646317,93.312271 132.263550,92.701439 131.930511,92.051102 
	C131.980225,92.011589 132.075439,91.927536 132.296234,91.964851 
	C132.517029,92.002167 132.958527,92.077400 132.958527,92.077400 
	C132.968079,92.396950 133.080734,92.674667 133.492065,93.028740 
z" />
	<path fill="#35A1BF" opacity="1.000000" stroke="none" d="
M160.529922,90.070816 
	C160.819290,90.113403 160.824905,90.606773 160.482895,90.804298 
	C159.709579,90.734680 159.278259,90.467529 158.846954,90.200386 
	C158.846954,90.200386 158.960144,90.055954 159.017853,89.984497 
	C159.463898,89.951431 159.852234,89.989830 160.529922,90.070816 
z" />
	<path fill="#1A98BC" opacity="1.000000" stroke="none" d="
M131.139114,90.869034 
	C131.139114,90.869034 131.606094,90.930031 131.833237,91.197792 
	C132.060379,91.465553 132.075439,91.927536 132.075439,91.927536 
	C132.075439,91.927536 131.980225,92.011589 131.730560,91.923080 
	C131.228546,91.628845 131.044861,91.373680 130.981812,91.018723 
	C131.033813,90.968361 131.139114,90.869034 131.139114,90.869034 
z" />
	<path fill="#E6F2F3" opacity="1.000000" stroke="none" d="
M130.085876,111.809692 
	C130.022141,111.586571 130.219147,111.308853 130.672394,110.967461 
	C130.734650,111.187561 130.540634,111.471329 130.085876,111.809692 
z" />
	<path fill="#CAF3FA" opacity="1.000000" stroke="none" d="
M168.139801,111.859291 
	C168.079163,111.643051 168.270370,111.360596 168.720337,111.021347 
	C168.783264,111.240738 168.587448,111.516907 168.139801,111.859291 
z" />
	<path fill="#CAF3FA" opacity="1.000000" stroke="none" d="
M187.080627,110.279953 
	C187.268845,110.200905 187.567596,110.343437 187.949982,110.732246 
	C187.684418,110.940262 187.403595,110.781273 187.080627,110.279953 
z" />
	<path fill="#CAF3FA" opacity="1.000000" stroke="none" d="
M169.201019,110.924446 
	C169.155609,110.711273 169.346237,110.446350 169.791016,110.167038 
	C169.949066,110.482697 169.746353,110.722717 169.201019,110.924446 
z" />
	<path fill="#E6F2F3" opacity="1.000000" stroke="none" d="
M131.152832,110.848770 
	C131.083740,110.641174 131.261734,110.355293 131.687943,109.993179 
	C131.757431,110.201469 131.578674,110.485977 131.152832,110.848770 
z" />
	<path fill="#E6F2F3" opacity="1.000000" stroke="none" d="
M132.168152,109.839294 
	C132.081192,109.634087 132.246109,109.329819 132.652924,108.915222 
	C132.736572,109.116669 132.578308,109.428452 132.168152,109.839294 
z" />
	<path fill="#CAF3FA" opacity="1.000000" stroke="none" d="
M139.110535,108.129082 
	C139.328827,108.082947 139.594284,108.291893 139.903885,108.757980 
	C139.684601,108.804802 139.421143,108.594482 139.110535,108.129082 
z" />
	<path fill="#E6F2F3" opacity="1.000000" stroke="none" d="
M129.820877,88.763481 
	C129.615982,88.885918 129.279373,88.765518 128.810547,88.403244 
	C129.015274,88.281120 129.352203,88.400879 129.820877,88.763481 
z" />
	<path fill="#E6F2F3" opacity="1.000000" stroke="none" d="
M130.070724,89.921684 
	C130.070724,89.921684 130.028122,89.483940 130.015259,89.264816 
	C130.340759,89.074364 130.610611,89.225449 130.676239,89.720993 
	C130.540543,89.943031 130.070724,89.921684 130.070724,89.921684 
z" />
	<path fill="#1A98BC" opacity="1.000000" stroke="none" d="
M130.033966,89.964752 
	C130.070724,89.921684 130.540543,89.943031 130.775482,89.937775 
	C131.010406,89.932526 131.079178,90.400581 131.109146,90.634811 
	C131.139114,90.869034 131.033813,90.968361 130.773102,90.903198 
	C130.252838,90.641487 130.057510,90.394203 129.926407,90.096199 
	C129.926407,90.096199 129.997223,90.007828 130.033966,89.964752 
z" />
	<path fill="#E6F2F3" opacity="1.000000" stroke="none" d="
M132.296234,91.964851 
	C132.075439,91.927536 132.060379,91.465553 132.065781,91.234779 
	C132.409927,91.093605 132.662811,91.292404 132.894180,91.838898 
	C132.958527,92.077400 132.517029,92.002167 132.296234,91.964851 
z" />
	<path fill="#3AABD1" opacity="1.000000" stroke="none" d="
M189.148895,96.142937 
	C189.078903,96.517937 188.893555,96.791710 188.475754,97.163895 
	C188.243301,97.262314 188.045670,97.037277 188.096344,96.752426 
	C188.348938,96.242889 188.566528,96.034592 188.799820,95.842690 
	C188.799820,95.842690 189.033524,96.041718 189.148895,96.142937 
z" />
	<path fill="#DEDEDE" opacity="1.000000" stroke="none" d="
M13.012485,100.003662 
	C13.871322,98.024811 14.617738,96.410950 15.677695,94.119156 
	C17.000240,97.192940 18.070347,99.680016 19.177992,102.254341 
	C12.938255,103.359268 12.938255,103.359268 13.012485,100.003662 
z" />
	<path fill="#F6F6F7" opacity="1.000000" stroke="none" d="
M39.988457,99.996490 
	C38.726768,97.596069 37.930744,95.193451 36.906826,92.102989 
	C40.191551,92.102989 42.312618,91.606133 44.006805,92.243675 
	C45.678238,92.872658 46.917702,94.649544 48.346684,95.922821 
	C46.866493,97.280830 45.520004,98.850342 43.849064,99.906609 
	C43.027317,100.426071 41.604778,99.995132 39.988457,99.996490 
z" />
	<path fill="#FEFEFE" opacity="1.000000" stroke="none" d="
M103.506844,103.026367 
	C106.135109,104.234970 109.108444,105.144958 106.159676,108.781929 
	C101.229836,109.049019 96.478424,109.049019 91.388680,109.049019 
	C91.388680,107.007324 91.388680,105.313690 91.388680,103.072868 
	C95.244484,103.072868 99.145294,103.072868 103.506844,103.026367 
z" />
	<path fill="#0699C5" opacity="1.000000" stroke="none" d="
M117.665802,101.506500 
	C118.854988,102.175224 119.576996,103.076973 120.436790,103.236618 
	C123.270813,103.762802 126.154709,104.020454 128.999557,105.128616 
	C122.406578,107.552170 118.405807,116.336357 109.437759,112.186768 
	C109.034958,109.306114 108.995888,106.590439 109.214249,103.323532 
	C109.678383,102.400757 109.885094,102.029213 110.091797,101.657677 
	C110.837502,101.577950 111.583214,101.498230 112.794617,101.605835 
	C113.260307,101.793159 113.647202,101.806610 113.647202,101.806610 
	C113.647202,101.806610 113.955872,101.570831 113.955872,101.570831 
	C115.057831,101.513756 116.159790,101.456688 117.665802,101.506500 
z" />
	<path fill="#CAF3FA" opacity="1.000000" stroke="none" d="
M134.901978,98.915924 
	C134.904419,99.431877 134.906845,99.947830 134.853378,100.849274 
	C129.513580,101.225357 124.229698,101.215950 118.485764,101.127205 
	C118.027214,100.557182 118.028702,100.066498 118.502884,99.218544 
	C124.284378,98.879494 129.593185,98.897713 134.901978,98.915924 
z" />
	<path fill="#1A98BC" opacity="1.000000" stroke="none" d="
M134.917664,98.932976 
	C129.593185,98.897713 124.284378,98.879494 118.510452,98.850700 
	C116.604614,97.954956 115.163918,97.069778 113.553070,95.897751 
	C113.382919,95.610901 113.684952,95.284431 114.218880,95.180595 
	C119.620270,98.182121 125.054726,98.426720 130.529922,97.903694 
	C131.817551,97.780693 132.988678,96.437912 134.412506,95.731857 
	C134.611603,95.807426 134.979340,96.022285 134.979340,96.022285 
	C134.979340,96.022285 134.909470,96.513802 134.933136,97.072906 
	C134.936951,98.067177 134.917084,98.502342 134.897217,98.937500 
	C134.897217,98.937500 134.933350,98.950027 134.917664,98.932976 
z" />
	<path fill="#2BA9CF" opacity="1.000000" stroke="none" d="
M109.823959,101.590691 
	C109.885094,102.029213 109.678383,102.400757 109.278954,102.875671 
	C109.242859,102.493927 109.399490,102.008820 109.823959,101.590691 
z" />
	<path fill="#2BA9CF" opacity="1.000000" stroke="none" d="
M113.727081,101.493851 
	C113.955872,101.570831 113.647202,101.806610 113.647202,101.806610 
	C113.647202,101.806610 113.260307,101.793159 113.160324,101.706573 
	C113.060333,101.619987 113.498299,101.416862 113.727081,101.493851 
z" />
	<path fill="#07A0CE" opacity="1.000000" stroke="none" d="
M158.485046,90.085297 
	C159.278259,90.467529 159.709579,90.734680 160.397583,91.035774 
	C160.704514,91.236839 160.754761,91.403954 160.905838,92.121002 
	C161.374069,93.097885 161.741486,93.524841 162.108887,93.951797 
	C162.108887,93.951797 162.053314,93.939018 162.075958,93.919258 
	C162.489807,97.242142 160.883530,98.267868 157.717728,98.045082 
	C154.571213,97.823654 151.394012,97.902725 148.236191,98.015739 
	C145.073792,98.128906 141.082382,97.784912 141.455688,94.297958 
	C141.703247,91.985481 145.454926,88.891495 148.117203,88.298355 
	C151.176498,87.616753 154.764694,89.309036 158.485046,90.085297 
z" />
	<path fill="#029FCE" opacity="1.000000" stroke="none" d="
M188.871521,95.428345 
	C188.566528,96.034592 188.348938,96.242889 187.999390,96.638290 
	C185.006454,97.131416 182.161133,97.453819 179.093597,98.149536 
	C177.832260,98.542847 176.793152,98.562836 175.405243,98.407799 
	C175.056458,98.232773 175.010620,97.901917 174.910919,97.752274 
	C174.529922,97.700577 174.248611,97.798523 173.598267,97.914612 
	C172.491272,97.929436 171.753326,97.926125 171.001923,97.536125 
	C169.222076,90.094315 170.884354,88.017410 178.345108,87.995728 
	C181.233765,87.987328 184.122559,88.022377 187.011292,88.037636 
	C187.690155,88.747139 188.369003,89.456635 189.106873,90.472092 
	C189.091660,92.190033 189.017441,93.602020 188.871521,95.428345 
z" />
	<path fill="#1894B9" opacity="1.000000" stroke="none" d="
M186.778992,87.668167 
	C184.122559,88.022377 181.233765,87.987328 178.345108,87.995728 
	C170.884354,88.017410 169.222076,90.094315 170.974213,97.722321 
	C170.959946,98.295204 170.933075,98.669258 170.933075,98.669258 
	C169.864014,98.704330 168.794968,98.739395 167.260559,98.566116 
	C166.651123,98.192513 166.471664,98.087875 166.256836,98.043861 
	C166.188324,94.687302 166.119827,91.330734 166.060791,87.519287 
	C172.895721,87.142502 179.721207,87.220596 186.778992,87.668167 
z" />
	<path fill="#149BC3" opacity="1.000000" stroke="none" d="
M160.188950,109.190964 
	C159.016327,110.105202 157.843704,111.019432 156.342575,111.973923 
	C156.014069,112.014175 155.940216,111.935585 155.991852,111.561386 
	C157.341278,110.429993 158.639053,109.672791 159.998169,108.985977 
	C160.059525,109.056358 160.188950,109.190964 160.188950,109.190964 
z" />
	<path fill="#3AABD1" opacity="1.000000" stroke="none" d="
M171.270569,98.755730 
	C170.933075,98.669258 170.959946,98.295204 170.987656,98.109009 
	C171.753326,97.926125 172.491272,97.929436 173.859100,97.934418 
	C174.662857,97.924690 174.836746,97.913307 175.010620,97.901917 
	C175.010620,97.901917 175.056458,98.232773 175.014954,98.395889 
	C173.851654,98.653404 172.729858,98.747803 171.270569,98.755730 
z" />
	<path fill="#35A1BF" opacity="1.000000" stroke="none" d="
M162.080139,93.658661 
	C161.741486,93.524841 161.374069,93.097885 160.977936,92.372643 
	C161.316620,92.504738 161.683990,92.935127 162.080139,93.658661 
z" />
	<path fill="#149BC3" opacity="1.000000" stroke="none" d="
M161.007874,108.012955 
	C160.914673,108.350334 160.775497,108.651108 160.412628,109.071426 
	C160.188950,109.190964 160.059525,109.056358 160.114410,108.784729 
	C160.357635,108.259911 160.590317,108.057739 160.867325,107.906578 
	C160.867325,107.906578 160.961899,107.976341 161.007874,108.012955 
z" />
	<path fill="#3AABD1" opacity="1.000000" stroke="none" d="
M166.255798,98.239029 
	C166.471664,98.087875 166.651123,98.192513 166.864456,98.498856 
	C166.933701,98.639931 166.547577,98.690659 166.547577,98.690659 
	C166.547577,98.690659 166.254761,98.434196 166.255798,98.239029 
z" />
	<path fill="#03A4D6" opacity="1.000000" stroke="none" d="
M160.902740,107.493729 
	C160.590317,108.057739 160.357635,108.259911 160.053070,108.714340 
	C158.639053,109.672791 157.341278,110.429993 155.954987,111.522041 
	C154.233505,111.856888 152.600510,111.856888 150.766968,111.856888 
	C150.627350,109.369301 150.496719,107.041641 150.309265,103.701775 
	C153.924835,105.694382 158.748962,100.594261 160.902740,107.493729 
z" />
	<path fill="#CAF3FA" opacity="1.000000" stroke="none" d="
M138.098480,105.632339 
	C137.756866,105.135262 137.405121,104.289192 137.111206,103.072021 
	C137.475449,103.561729 137.781876,104.422546 138.098480,105.632339 
z" />
	<path fill="#CAF3FA" opacity="1.000000" stroke="none" d="
M134.815582,101.458000 
	C135.039856,101.641838 135.310776,102.134949 135.383148,102.802383 
	C135.077148,102.573555 134.969666,102.170418 134.815582,101.458000 
z" />
	<path fill="#0699C5" opacity="1.000000" stroke="none" d="
M173.055222,107.526215 
	C172.307037,108.259216 171.620941,108.657349 170.645966,109.127380 
	C169.619629,107.829033 168.882202,106.458778 168.144775,105.088531 
	C170.150742,104.384979 172.156693,103.681427 174.591095,102.982925 
	C174.385452,104.389099 173.751389,105.790215 173.055222,107.526215 
z" />
	<path fill="#07A2D0" opacity="1.000000" stroke="none" d="
M134.213379,95.656296 
	C132.988678,96.437912 131.817551,97.780693 130.529922,97.903694 
	C125.054726,98.426720 119.620270,98.182121 114.383728,95.031342 
	C115.170586,89.241425 118.077423,87.082390 123.562958,88.135201 
	C125.476936,88.502525 127.302849,89.328735 129.547699,90.020790 
	C130.057510,90.394203 130.252838,90.641487 130.721115,90.953568 
	C131.044861,91.373680 131.228546,91.628845 131.680832,91.962593 
	C132.263550,92.701439 132.646317,93.312271 133.302032,94.007904 
	C133.574997,94.092697 133.854874,94.081841 133.989716,94.313171 
	C134.154160,94.915100 134.183777,95.285698 134.213379,95.656296 
z" />
	<path fill="#FEFEFE" opacity="1.000000" stroke="none" d="
M134.412491,95.731857 
	C134.183777,95.285698 134.154160,94.915100 134.120972,94.264359 
	C134.379883,94.473473 134.642349,94.962730 134.942078,95.737137 
	C134.979340,96.022285 134.611603,95.807426 134.412491,95.731857 
z" />
	<path fill="#CAF3FA" opacity="1.000000" stroke="none" d="
M135.143829,98.829483 
	C134.917084,98.502342 134.936951,98.067177 135.009781,97.309006 
	C135.171982,97.564491 135.281219,98.142975 135.143829,98.829483 
z" />
	<path fill="#1894B9" opacity="1.000000" stroke="none" d="
M174.910919,97.752274 
	C174.836746,97.913307 174.662857,97.924690 174.228149,97.916275 
	C174.248611,97.798523 174.529922,97.700577 174.910919,97.752274 
z" />
</svg>