<svg version="1.1" id="Layer_1" xmlns="http://www.w3.org/2000/svg" xmlns:xlink="http://www.w3.org/1999/xlink" x="0px" y="0px" width="100%" viewBox="0 0 442 555" enable-background="new 0 0 442 555" xml:space="preserve">
    <path fill="#FDFDFD" opacity="1.000000" stroke="none" d="
M443.000000,3.000000 
	C443.000000,185.359177 443.000000,367.718353 442.537201,550.598389 
	C306.059937,551.123291 170.045471,551.130432 34.031013,551.125732 
	C23.020674,551.125366 12.010338,551.043823 1.000000,551.000000 
	C1.000000,368.640839 1.000000,186.281677 1.395817,3.789484 
	C3.726263,3.393821 5.660835,2.901727 7.595530,2.901245 
	C151.233215,2.865453 294.870911,2.868145 438.508606,2.873989 
	C440.005737,2.874050 441.502869,2.956182 443.000000,3.000000 
M265.500244,50.559723 
	C198.606750,50.559723 131.713242,50.559723 64.867638,50.559723 
	C64.867638,207.100845 64.867638,362.838776 64.867638,519.155151 
	C174.499207,492.444763 283.730835,465.831848 392.865723,439.242523 
	C392.865723,309.452576 392.865723,180.099930 392.865723,50.559639 
	C350.471222,50.559639 308.485748,50.559639 265.500244,50.559723 
z" />
    <path fill="#0F0F0F" opacity="1.000000" stroke="none" d="
M1.000000,551.499817 
	C12.010338,551.043823 23.020674,551.125366 34.031013,551.125732 
	C170.045471,551.130432 306.059937,551.123291 442.537201,551.059570 
	C443.000000,552.664795 443.000000,554.329651 443.000000,555.995850 
	C295.666656,555.997192 148.333328,555.997192 1.000000,555.996216 
	C1.000000,554.663391 1.000000,553.331482 1.000000,551.499817 
z" />
    <path fill="#0F0F0F" opacity="1.000000" stroke="none" d="
M443.000000,2.500001 
	C441.502869,2.956182 440.005737,2.874050 438.508606,2.873989 
	C294.870911,2.868145 151.233215,2.865453 7.595530,2.901245 
	C5.660835,2.901727 3.726263,3.393821 1.395817,3.328229 
	C1.333333,2.333333 1.548027,1.216341 2.023962,1.090954 
	C3.114909,0.803541 4.333333,1.000000 5.500000,1.000000 
	C149.833328,1.000000 294.166656,0.996971 438.500000,1.041413 
	C440.000092,1.041875 441.500000,1.666669 443.000000,2.500001 
z" />
    <path fill="#231F20" opacity="1.000000" stroke="none" d="
M266.000244,50.559681 
	C308.485748,50.559639 350.471222,50.559639 392.865723,50.559639 
	C392.865723,180.099930 392.865723,309.452576 392.865723,439.242523 
	C283.730835,465.831848 174.499207,492.444763 64.867638,519.155151 
	C64.867638,362.838776 64.867638,207.100845 64.867638,50.559723 
	C131.713242,50.559723 198.606750,50.559723 266.000244,50.559681 
M248.500275,206.597717 
	C234.510269,206.597595 220.517563,206.444138 206.531860,206.689438 
	C202.255325,206.764465 200.548294,205.724396 200.811676,201.164062 
	C201.185577,194.690262 200.908859,188.178833 200.908768,181.683487 
	C200.908539,166.194580 200.973221,150.704956 200.808014,135.217804 
	C200.790970,133.620590 199.462509,130.695129 198.639038,130.657608 
	C190.913315,130.305496 183.165024,130.448624 175.434601,130.448624 
	C175.310867,131.935806 175.208221,132.593567 175.208191,133.251328 
	C175.203812,206.865280 175.248795,280.479340 175.108322,354.093018 
	C175.099716,358.608032 177.182892,358.817230 180.572327,358.810944 
	C212.882431,358.750916 245.193207,358.685852 277.502319,358.873657 
	C282.269806,358.901367 283.750366,357.583344 283.732941,352.717316 
	C283.564667,305.751526 283.634796,258.784912 283.619049,211.818527 
	C283.618500,210.219116 283.431396,208.619781 283.304779,206.597900 
	C271.751984,206.597900 260.626129,206.597900 248.500275,206.597717 
z" />
    <path fill="#F9F9F9" opacity="1.000000" stroke="none" d="
M249.000275,206.597809 
	C260.626129,206.597900 271.751984,206.597900 283.304779,206.597900 
	C283.431396,208.619781 283.618500,210.219116 283.619049,211.818527 
	C283.634796,258.784912 283.564667,305.751526 283.732941,352.717316 
	C283.750366,357.583344 282.269806,358.901367 277.502319,358.873657 
	C245.193207,358.685852 212.882431,358.750916 180.572327,358.810944 
	C177.182892,358.817230 175.099716,358.608032 175.108322,354.093018 
	C175.248795,280.479340 175.203812,206.865280 175.208191,133.251328 
	C175.208221,132.593567 175.310867,131.935806 175.434601,130.448624 
	C183.165024,130.448624 190.913315,130.305496 198.639038,130.657608 
	C199.462509,130.695129 200.790970,133.620590 200.808014,135.217804 
	C200.973221,150.704956 200.908539,166.194580 200.908768,181.683487 
	C200.908859,188.178833 201.185577,194.690262 200.811676,201.164062 
	C200.548294,205.724396 202.255325,206.764465 206.531860,206.689438 
	C220.517563,206.444138 234.510269,206.597595 249.000275,206.597809 
M200.892776,293.500000 
	C200.892776,306.775177 200.892776,320.050323 200.892776,333.552979 
	C219.058716,333.552979 236.602829,333.552979 254.161758,333.552979 
	C254.161758,299.205322 254.161758,265.158813 254.161758,231.192902 
	C236.248291,231.192902 218.679947,231.192902 200.892746,231.192902 
	C200.892746,251.882492 200.892746,272.191254 200.892776,293.500000 
z" />
    <path fill="#272324" opacity="1.000000" stroke="none" d="
M200.892761,293.000000 
	C200.892746,272.191254 200.892746,251.882492 200.892746,231.192902 
	C218.679947,231.192902 236.248291,231.192902 254.161758,231.192902 
	C254.161758,265.158813 254.161758,299.205322 254.161758,333.552979 
	C236.602829,333.552979 219.058716,333.552979 200.892776,333.552979 
	C200.892776,320.050323 200.892776,306.775177 200.892761,293.000000 
z" />
</svg>