<svg version="1.1" id="Layer_1" xmlns="http://www.w3.org/2000/svg" xmlns:xlink="http://www.w3.org/1999/xlink" x="0px" y="0px" width="100%" viewBox="0 0 200 200" enable-background="new 0 0 200 200" xml:space="preserve">
    <path fill="#000000" opacity="1.000000" stroke="none" d="
M99.000000,201.000000 
	C66.020325,201.000000 33.540646,201.000000 1.030484,201.000000 
	C1.030484,134.395355 1.030484,67.790695 1.030484,1.093015 
	C67.562851,1.093015 134.125885,1.093015 200.844452,1.093015 
	C200.844452,67.666382 200.844452,134.333145 200.844452,201.000000 
	C167.124313,201.000000 133.312149,201.000000 99.000000,201.000000 
M149.396347,122.373901 
	C149.873749,122.350632 150.351166,122.327362 151.644470,122.532692 
	C159.088226,122.440506 166.531967,122.348320 173.755371,122.810684 
	C173.693344,124.231209 173.631332,125.651733 173.569305,127.072250 
	C174.294495,126.887199 175.642776,126.711319 175.645645,126.515648 
	C175.667435,125.035156 175.425308,123.550774 175.415710,121.661240 
	C175.436325,121.229996 175.456955,120.798752 176.010742,119.765335 
	C176.341064,118.513214 176.671387,117.261101 177.626129,115.825119 
	C178.415771,114.883011 179.205414,113.940895 180.724289,112.994667 
	C181.824432,112.746422 183.435303,112.873772 183.939926,112.187576 
	C186.736282,108.385071 189.337921,104.431587 191.858978,100.436890 
	C193.815170,97.337234 192.992264,95.270813 189.394882,94.032639 
	C188.370087,93.679916 187.786118,92.046455 187.781784,90.994888 
	C189.331970,90.385796 190.882172,89.776703 192.432358,89.167610 
	C191.954544,88.444984 191.476715,87.722366 190.978287,86.200645 
	C190.918854,85.670799 190.859406,85.140961 190.830826,84.257835 
	C190.830826,84.257835 191.080643,84.006142 191.707153,83.744453 
	C192.666321,82.411407 193.958130,81.203796 194.517700,79.720047 
	C195.813705,76.283539 193.393921,73.005363 190.174881,73.293747 
	C183.122665,73.925514 176.059372,74.433998 169.000168,74.128220 
	C168.239334,71.615425 167.478485,69.102638 166.717636,66.589859 
	C164.347214,67.367065 161.965637,68.112999 159.616669,68.950363 
	C159.194824,69.100731 158.818954,69.575691 158.572250,69.990288 
	C156.797272,72.973167 154.182190,73.788513 150.120331,73.059601 
	C145.084732,73.711571 140.063553,74.537132 135.008682,74.957115 
	C131.378616,75.258728 127.664642,74.705612 124.065056,75.153008 
	C122.285721,75.374146 120.680260,76.994247 118.856339,78.231606 
	C118.856339,78.231606 118.573639,78.278908 117.728546,78.129921 
	C116.545036,77.653793 115.400284,76.995819 114.171127,76.733864 
	C109.526512,75.743958 104.879837,74.683319 100.178459,74.085327 
	C98.611511,73.886024 95.823959,74.576836 98.961678,77.701485 
	C98.997574,78.166809 99.033470,78.632141 98.997955,79.556732 
	C98.997955,79.556732 98.800201,79.977348 98.463676,80.309921 
	C98.272049,80.580704 98.194359,80.880974 98.096519,81.075867 
	C98.096519,81.075867 98.239182,81.217659 97.563934,81.363579 
	C95.586029,85.176422 93.608124,88.989273 91.317223,93.405487 
	C89.141197,88.080193 87.406029,83.281342 85.188843,78.716614 
	C84.443764,77.182648 82.472374,76.244331 80.405991,74.637108 
	C74.272224,74.220772 68.141243,73.709557 62.000542,73.529037 
	C61.358280,73.510162 60.658535,75.446678 59.141758,76.626808 
	C57.445663,76.510223 55.749569,76.393639 53.973587,75.817078 
	C53.572025,75.468071 53.170467,75.119072 52.768913,74.770065 
	C52.494133,75.272263 52.219357,75.774452 51.051743,76.543144 
	C45.074295,76.556435 39.096844,76.569717 33.143555,76.160538 
	C33.143555,76.160538 33.060562,75.745590 32.948582,75.148628 
	C30.259708,73.080215 29.692509,73.494057 28.791441,78.489250 
	C28.355450,78.744797 27.919460,79.000336 26.759615,79.324753 
	C21.929338,81.282112 18.703629,83.859177 19.702869,90.095833 
	C20.562941,95.463867 15.655271,100.251740 9.836288,100.967438 
	C9.609576,103.559425 8.988355,106.194763 9.267075,108.731209 
	C9.545956,111.269135 10.797320,113.688423 11.477756,116.198921 
	C11.820541,117.463638 11.842859,118.815208 11.663069,120.370438 
	C11.366127,120.485809 11.101991,120.433983 10.377453,120.358551 
	C10.272262,120.910141 10.167070,121.461723 9.988341,122.511162 
	C9.936454,122.670685 9.884566,122.830215 9.257463,123.158562 
	C8.917001,124.287270 8.576539,125.415977 8.236076,126.544685 
	C10.848838,126.261307 14.037321,129.870285 16.906666,125.199402 
	C19.598888,125.204575 22.291113,125.209755 25.255728,125.799316 
	C29.437365,129.748932 29.820110,129.713364 32.941090,125.026405 
	C42.554943,124.782936 52.169243,124.555946 61.782547,124.292389 
	C78.843445,123.824654 95.903732,123.334724 113.902695,122.940727 
	C123.223106,122.732651 132.543518,122.524567 142.472198,122.605095 
	C143.331284,122.475777 144.190384,122.346458 145.834015,122.314087 
	C146.883102,122.252113 147.932205,122.190140 149.396347,122.373901 
M25.217806,75.585251 
	C25.418921,75.904709 25.620033,76.224174 25.821146,76.543640 
	C26.012285,76.153893 26.203424,75.764153 26.394562,75.374413 
	C26.052080,75.322159 25.709599,75.269905 25.217806,75.585251 
z" />
    <path fill="#0D0303" opacity="1.000000" stroke="none" d="
M59.985458,76.475960 
	C60.658535,75.446678 61.358280,73.510162 62.000542,73.529037 
	C68.141243,73.709557 74.272224,74.220772 80.606934,75.032455 
	C80.534691,75.807571 80.261505,76.187332 79.563980,76.628372 
	C77.427528,76.649918 75.715416,76.610191 73.892487,76.471046 
	C73.466393,76.263229 73.205307,76.339630 72.617744,76.683060 
	C71.461365,76.835526 70.685631,76.905746 69.671776,77.014954 
	C69.229187,77.690750 69.024727,78.327545 68.805984,79.288193 
	C68.246155,80.772469 67.700592,81.932899 66.968216,83.324440 
	C66.701187,83.941566 66.620972,84.327583 66.480316,85.067871 
	C63.211487,93.268463 60.003109,101.114784 56.492653,109.134743 
	C55.936127,110.383858 55.681675,111.459343 55.385029,112.680359 
	C55.342834,112.825897 55.122208,113.033653 54.980167,113.097404 
	C54.601437,113.430695 54.596962,113.702927 54.902760,114.266464 
	C55.023323,114.749825 55.065823,114.944557 55.250999,115.470749 
	C59.291660,115.608032 63.189632,115.413857 67.091454,115.157890 
	C67.095299,115.096100 67.218925,115.089119 67.538986,114.948120 
	C68.445923,113.033798 69.032791,111.260468 69.668762,109.226074 
	C69.874191,108.648636 70.030518,108.332268 70.362244,107.832184 
	C70.630135,107.327568 70.722633,107.006660 70.841248,106.390076 
	C71.214073,105.390892 71.560783,104.687401 72.130203,103.758774 
	C72.511932,102.935616 72.670952,102.337570 72.874603,101.438736 
	C73.273315,100.419411 73.627396,99.700882 74.193718,98.778191 
	C74.573799,98.018990 74.741653,97.463951 74.946976,96.956459 
	C74.984451,97.003998 74.898483,96.916557 75.230850,96.949043 
	C76.007957,96.990837 76.452698,97.000137 77.044281,97.220245 
	C77.246132,97.765427 77.301132,98.099785 77.386208,98.722687 
	C77.617287,99.335243 77.818298,99.659256 78.112686,100.115784 
	C78.206055,100.248291 78.250847,100.569382 78.284378,100.834274 
	C78.511284,101.392723 78.704643,101.686279 78.997894,102.175964 
	C79.097794,102.372078 79.164803,102.807137 79.117126,103.167519 
	C79.680450,104.683975 80.291443,105.840042 80.995529,107.185234 
	C81.088631,107.374359 81.156624,107.790436 81.134048,108.068283 
	C81.488686,108.948769 81.865906,109.551399 82.404633,110.437798 
	C82.665070,111.143204 82.763992,111.564842 82.775879,112.114540 
	C82.663986,112.602852 82.828804,112.819153 83.390694,113.100792 
	C84.042542,113.957047 84.486984,114.604012 85.131645,115.562210 
	C88.831276,116.118835 92.352715,116.675293 95.817383,116.429962 
	C96.932678,116.350998 97.898422,114.159744 98.964066,112.960777 
	C98.995544,112.986732 98.919449,112.957771 99.130310,112.743881 
	C99.456566,111.957199 99.571953,111.384415 99.725052,110.796829 
	C99.762764,110.782028 99.794044,110.856773 100.196396,110.885368 
	C101.404205,110.943657 102.209663,110.973358 102.940933,111.362091 
	C101.534637,115.458046 103.044907,116.905922 106.799080,116.853523 
	C112.722076,116.770859 118.650223,116.948845 124.569817,116.785713 
	C126.768524,116.725113 128.949310,116.014473 131.492371,115.505188 
	C132.576477,115.345215 133.306458,115.280319 134.292053,115.328873 
	C135.700714,114.634186 136.853775,113.826050 138.004227,113.006744 
	C138.001617,112.995575 138.022293,113.008888 138.256348,112.897812 
	C138.633163,112.481186 138.775909,112.175629 139.011475,111.612778 
	C139.421722,110.910995 139.739182,110.466515 140.334610,110.032700 
	C140.797882,110.035416 140.983185,110.027451 141.466309,110.009880 
	C142.161346,109.992157 142.558548,109.984039 142.963257,110.366714 
	C143.008133,111.537910 143.045486,112.318321 143.064117,113.068092 
	C143.045410,113.037453 143.116425,113.048134 142.996307,113.124008 
	C142.676956,113.442375 142.660934,113.699097 142.947098,114.237930 
	C143.380463,114.999146 143.694885,115.492493 144.358765,116.203346 
	C150.141174,116.259705 155.574127,116.098557 161.447983,115.841339 
	C164.586380,115.809708 167.283875,115.874161 170.196747,116.139946 
	C170.948563,116.576004 171.485001,116.810730 172.015564,117.391983 
	C172.006973,118.432884 172.004242,119.127274 171.612244,119.866043 
	C164.439728,120.058228 157.656494,120.206039 150.527634,120.337463 
	C149.740875,120.435654 149.299728,120.550224 148.489166,120.583443 
	C147.116653,120.551773 146.113586,120.601456 144.712036,120.514549 
	C143.493530,120.488884 142.673462,120.599808 141.489929,120.616295 
	C140.128113,120.493286 139.129776,120.464722 137.711609,120.282890 
	C135.820602,120.235176 134.349442,120.340729 132.538254,120.435608 
	C131.518158,120.438095 130.838074,120.451271 129.826843,120.385406 
	C129.276077,120.363770 129.056473,120.421150 128.378967,120.468109 
	C117.917999,120.585106 107.914948,120.712524 97.462189,120.728424 
	C83.086174,120.577850 69.159882,120.538795 54.865311,120.426208 
	C54.254738,120.415703 54.012444,120.478729 53.357063,120.521271 
	C39.299355,120.376366 25.654722,120.251938 12.010090,120.127518 
	C11.842859,118.815208 11.820541,117.463638 11.477756,116.198921 
	C10.797320,113.688423 9.545956,111.269135 9.267075,108.731209 
	C8.988355,106.194763 9.609576,103.559425 9.839448,100.967896 
	C15.655271,100.251740 20.562941,95.463867 19.702869,90.095833 
	C18.703629,83.859177 21.929338,81.282112 26.975018,79.625519 
	C22.346296,91.485229 17.502172,103.044189 12.601295,114.738571 
	C23.213583,117.239151 24.954229,116.530640 28.262381,108.142059 
	C29.365547,105.344719 31.031120,104.228264 33.894260,104.393188 
	C35.721550,104.498451 37.559456,104.409431 39.392384,104.428589 
	C47.254932,104.510757 49.103283,102.654434 49.482052,93.625298 
	C44.764408,93.625298 40.058773,93.625298 35.208767,93.625298 
	C35.312206,88.923172 36.962139,86.878189 41.306320,87.074921 
	C46.461723,87.308395 51.645451,87.308365 56.796402,87.030083 
	C58.536228,86.936089 60.213520,85.684532 62.206615,84.764969 
	C63.004818,83.065056 63.515800,81.562172 64.009720,80.035500 
	C63.992668,80.011711 64.050255,80.001137 64.255592,79.817093 
	C64.502678,78.810219 64.544426,77.987404 64.184402,77.025665 
	C63.518871,76.783066 63.255112,76.679390 62.892616,76.468513 
	C62.494576,76.227226 62.232010,76.278625 61.669598,76.555817 
	C60.883835,76.556076 60.434647,76.516022 59.985458,76.475960 
z" />
    <path fill="#E11E26" opacity="1.000000" stroke="none" d="
M55.122208,113.033653 
	C55.122208,113.033653 55.342834,112.825897 55.594612,112.427063 
	C56.162506,111.005852 56.478615,109.983475 56.794724,108.961105 
	C60.003109,101.114784 63.211487,93.268463 66.678467,84.839310 
	C67.009712,83.868759 67.082367,83.481041 67.155022,83.093330 
	C67.700592,81.932899 68.246155,80.772469 69.010849,79.083656 
	C69.456619,78.028839 69.683266,77.502403 69.909904,76.975960 
	C70.685631,76.905746 71.461365,76.835526 72.871017,76.745193 
	C73.671066,76.673546 73.837189,76.622002 74.003304,76.570465 
	C75.715416,76.610191 77.427528,76.649918 79.909439,76.774048 
	C82.032562,78.572502 83.769058,80.108551 84.664253,82.035454 
	C86.951172,86.958000 88.863144,92.054733 90.925102,97.081787 
	C91.483887,97.005905 92.042679,96.930016 92.601463,96.854134 
	C94.480705,91.641975 96.359940,86.429817 98.239182,81.217659 
	C98.239182,81.217659 98.096519,81.075867 98.377586,81.007675 
	C98.705833,80.618774 98.753014,80.298065 98.800201,79.977348 
	C98.800201,79.977348 98.997955,79.556732 99.285599,79.164566 
	C99.781540,78.218399 99.989845,77.664391 100.642693,77.046715 
	C104.806969,76.983047 108.526703,76.983047 113.020439,76.983047 
	C108.837654,87.525398 104.975525,97.259567 100.974716,107.215324 
	C100.818710,107.610313 100.801392,107.783714 100.712730,108.055077 
	C100.641380,108.153030 100.676880,108.392792 100.453590,108.607574 
	C100.131035,109.215981 100.031776,109.609596 99.845291,110.208069 
	C99.758064,110.412926 99.794044,110.856773 99.794044,110.856773 
	C99.794044,110.856773 99.762764,110.782028 99.507965,111.001869 
	C99.141930,111.800400 99.030693,112.379082 98.919449,112.957771 
	C98.919449,112.957771 98.995544,112.986732 98.645386,113.191811 
	C93.840622,114.014915 89.386024,114.632942 84.931427,115.250969 
	C84.486984,114.604012 84.042542,113.957047 83.371460,112.853050 
	C83.144836,112.396011 82.862915,111.986488 82.862915,111.986488 
	C82.763992,111.564842 82.665070,111.143204 82.445381,110.162659 
	C81.935280,108.999321 81.545952,108.394882 81.156624,107.790436 
	C81.156624,107.790436 81.088631,107.374359 81.030701,106.850571 
	C80.370117,105.153572 79.767464,103.980354 79.164803,102.807137 
	C79.164803,102.807137 79.097794,102.372078 78.998260,101.900787 
	C78.682762,101.142799 78.466805,100.856087 78.250847,100.569382 
	C78.250847,100.569382 78.206055,100.248291 78.107117,99.820511 
	C77.790833,99.073204 77.573486,98.753677 77.356140,98.434151 
	C77.301132,98.099785 77.246132,97.765427 77.049927,96.960541 
	C76.558807,96.065498 76.208900,95.640976 75.858994,95.216461 
	C75.538826,95.783157 75.218658,96.349861 74.898483,96.916557 
	C74.898483,96.916557 74.984451,97.003998 74.686188,97.121132 
	C74.252449,97.819633 74.116966,98.400993 73.981483,98.982361 
	C73.627396,99.700882 73.273315,100.419411 72.637741,101.655930 
	C72.206657,102.777245 72.057076,103.380577 71.907494,103.983902 
	C71.560783,104.687401 71.214073,105.390892 70.633965,106.553024 
	C70.329330,107.346413 70.258087,107.681152 70.186844,108.015900 
	C70.030518,108.332268 69.874191,108.648636 69.431068,109.476334 
	C68.502495,111.688141 67.860710,113.388634 67.218925,115.089119 
	C67.218925,115.089119 67.095299,115.096100 66.626022,115.170616 
	C62.473938,115.209854 58.791126,115.174576 55.108318,115.139297 
	C55.065823,114.944557 55.023323,114.749825 55.030724,114.047546 
	C55.094486,113.371231 55.108345,113.202446 55.122208,113.033653 
z" />
    <path fill="#DF1E27" opacity="1.000000" stroke="none" d="
M169.981369,115.938614 
	C167.283875,115.874161 164.586380,115.809708 160.992874,115.720734 
	C154.734344,115.792755 149.371811,115.889297 144.009293,115.985840 
	C143.694885,115.492493 143.380463,114.999146 143.072647,114.024246 
	C143.079239,113.542694 143.116425,113.048134 143.116425,113.048134 
	C143.116425,113.048134 143.045410,113.037453 143.328827,112.842407 
	C145.749680,109.717621 145.305359,104.348328 151.347458,104.872696 
	C152.106186,104.900490 152.541962,104.858627 153.437073,104.894196 
	C158.192352,104.971642 162.488312,104.971642 168.226852,104.971642 
	C165.097183,101.548271 163.036301,99.293999 160.988525,97.019608 
	C161.001617,96.999474 160.957474,97.018341 160.891617,96.762337 
	C160.565353,96.296280 160.304932,96.086235 159.966370,95.665756 
	C159.716492,95.193794 159.481293,95.016434 159.092194,94.580826 
	C156.501541,90.534370 153.549591,86.997208 156.284271,82.049347 
	C158.954559,77.217987 163.312927,76.639503 168.169144,76.744453 
	C173.955002,76.869499 179.746216,76.722763 185.534363,76.775696 
	C187.898621,76.797318 190.260910,77.033829 192.885193,77.187912 
	C192.157593,79.937057 191.619125,81.971603 191.080643,84.006142 
	C191.080643,84.006142 190.830826,84.257835 190.563202,84.636093 
	C190.051880,85.602165 189.808151,86.189980 189.396011,86.820518 
	C189.227585,86.863251 189.013611,87.137108 188.656128,87.122253 
	C187.841629,87.233482 187.384628,87.359573 186.603760,87.393692 
	C185.834915,87.324799 185.389954,87.347878 184.493469,87.264297 
	C179.084732,87.157623 174.127487,87.157623 167.732178,87.157623 
	C170.227188,89.957222 171.603455,91.501511 173.047333,93.272537 
	C173.280029,93.788918 173.522430,93.980957 173.931473,94.336540 
	C174.325134,94.787170 174.629501,94.976639 174.924530,95.131950 
	C174.915222,95.097794 174.848816,95.122353 174.918427,95.410843 
	C175.692719,96.355263 176.397369,97.011177 177.180359,97.971962 
	C177.855331,98.845314 178.451981,99.413795 179.106445,100.332870 
	C179.843536,102.463020 180.522812,104.242584 181.135345,106.354370 
	C181.083908,107.136635 181.099213,107.586670 180.897827,108.273239 
	C180.427063,109.312546 180.172989,110.115318 179.952301,110.942490 
	C179.985703,110.966888 179.909790,110.937119 179.612183,111.106033 
	C176.203522,112.829506 173.092438,114.384064 169.981369,115.938614 
z" />
    <path fill="#E21E26" opacity="1.000000" stroke="none" d="
M140.056641,110.022034 
	C139.739182,110.466515 139.421722,110.910995 138.800812,111.747284 
	C138.263916,112.388016 138.105560,112.677948 138.022293,113.008888 
	C138.022293,113.008888 138.001617,112.995575 137.676086,113.047432 
	C136.245850,113.804665 135.141144,114.510040 134.036438,115.215424 
	C133.306458,115.280319 132.576477,115.345215 131.031616,115.374115 
	C121.530312,115.338127 112.843872,115.338127 103.708923,115.338127 
	C104.171135,112.774040 104.428665,111.345413 104.798492,109.638321 
	C104.979179,108.966209 105.047585,108.572563 105.350296,107.983505 
	C105.797951,107.234055 106.011307,106.680008 106.189148,106.120705 
	C106.153648,106.115440 106.162392,106.186691 106.379562,106.058746 
	C106.793716,105.660217 106.990692,105.389633 107.643646,105.091278 
	C114.277267,105.063507 120.454903,105.063507 127.978493,105.063507 
	C124.556084,100.944550 122.049133,97.945641 119.562019,94.930367 
	C113.904793,88.071777 113.750824,85.402733 118.573639,78.278908 
	C118.573639,78.278908 118.856339,78.231606 119.345184,78.066757 
	C130.614670,77.377640 141.395325,76.853378 153.425232,76.268364 
	C151.589569,80.845230 150.324783,83.998703 148.667664,87.159691 
	C147.495712,87.247581 146.716110,87.327957 145.488052,87.287720 
	C139.719543,87.167099 134.399475,87.167099 129.079422,87.167099 
	C128.909790,87.557831 128.740158,87.948563 128.570526,88.339294 
	C129.733612,89.519722 130.896713,90.700157 132.057312,91.919991 
	C132.054840,91.959389 132.133698,91.963219 132.179169,92.209221 
	C132.474106,92.663467 132.723572,92.871712 133.042389,93.303001 
	C133.280579,93.809174 133.524353,93.992752 133.931610,94.385216 
	C135.021896,95.773949 136.023651,96.854256 137.111237,98.236511 
	C137.866440,99.343964 138.535828,100.149475 139.207001,101.221344 
	C139.551315,101.871895 139.893814,102.256081 140.234009,102.711777 
	C140.231689,102.783302 140.328842,102.888390 140.294708,103.141602 
	C140.447830,103.667656 140.635101,103.940483 140.834137,104.516548 
	C140.933075,105.213531 141.020248,105.607285 141.033936,106.249863 
	C141.010956,106.664108 141.061493,106.829529 141.026703,107.215591 
	C140.941391,107.436234 140.911835,107.908424 140.691376,108.110924 
	C140.332825,108.882965 140.194733,109.452499 140.056641,110.022034 
z" />
    <path fill="#E01F27" opacity="1.000000" stroke="none" d="
M62.991356,76.575722 
	C63.255112,76.679390 63.518871,76.783066 64.047226,77.361481 
	C64.224632,78.557861 64.137444,79.279495 64.050255,80.001137 
	C64.050255,80.001137 63.992668,80.011711 63.757034,80.259506 
	C62.987396,81.992195 62.453396,83.477104 61.919395,84.962006 
	C60.213520,85.684532 58.536228,86.936089 56.796402,87.030083 
	C51.645451,87.308365 46.461723,87.308395 41.306320,87.074921 
	C36.962139,86.878189 35.312206,88.923172 35.208767,93.625298 
	C40.058773,93.625298 44.764408,93.625298 49.482052,93.625298 
	C49.103283,102.654434 47.254932,104.510757 39.392384,104.428589 
	C37.559456,104.409431 35.721550,104.498451 33.894260,104.393188 
	C31.031120,104.228264 29.365547,105.344719 28.262381,108.142059 
	C24.954229,116.530640 23.213583,117.239151 12.601295,114.738571 
	C17.502172,103.044189 22.346296,91.485229 27.336945,79.591080 
	C27.919460,79.000336 28.355450,78.744797 29.186893,78.233139 
	C30.068352,77.679199 30.554358,77.381363 31.405102,77.091072 
	C32.219692,76.926750 32.669544,76.754875 33.119396,76.583008 
	C39.096844,76.569717 45.074295,76.556435 51.841827,76.538811 
	C53.105766,76.448669 53.579620,76.362854 54.053474,76.277046 
	C55.749569,76.393639 57.445663,76.510223 59.563606,76.551384 
	C60.434647,76.516022 60.883835,76.556076 61.911366,76.644989 
	C62.656925,76.654465 62.824139,76.615097 62.991356,76.575722 
z" />
    <path fill="#1F0305" opacity="1.000000" stroke="none" d="
M118.151093,78.204414 
	C113.750824,85.402733 113.904793,88.071777 119.562019,94.930367 
	C122.049133,97.945641 124.556084,100.944550 127.978493,105.063507 
	C120.454903,105.063507 114.277267,105.063507 107.407669,105.196609 
	C106.531265,105.615379 106.346832,105.901039 106.162399,106.186691 
	C106.162392,106.186691 106.153648,106.115440 105.949936,106.311729 
	C105.536140,107.064987 105.326073,107.621948 105.115997,108.178917 
	C105.047585,108.572563 104.979179,108.966209 104.557144,109.714699 
	C103.807388,110.380714 103.411255,110.691887 103.015121,111.003067 
	C102.209663,110.973358 101.404205,110.943657 100.196396,110.885368 
	C99.794044,110.856773 99.758064,110.412926 100.032623,109.972931 
	C100.430405,109.152885 100.553642,108.772842 100.676880,108.392792 
	C100.676880,108.392792 100.641380,108.153030 100.847481,107.984207 
	C101.274193,107.556709 101.294128,107.282837 101.113396,106.993744 
	C104.975525,97.259567 108.837654,87.525398 113.020439,76.983047 
	C108.526703,76.983047 104.806969,76.983047 100.341866,77.008743 
	C99.394989,77.023338 99.193481,77.012245 98.991982,77.001152 
	C95.823959,74.576836 98.611511,73.886024 100.178459,74.085327 
	C104.879837,74.683319 109.526512,75.743958 114.171127,76.733864 
	C115.400284,76.995819 116.545036,77.653793 118.151093,78.204414 
z" />
    <path fill="#1F0305" opacity="1.000000" stroke="none" d="
M149.059998,87.152176 
	C150.324783,83.998703 151.589569,80.845230 153.425232,76.268364 
	C141.395325,76.853378 130.614670,77.377640 119.415077,77.941643 
	C120.680260,76.994247 122.285721,75.374146 124.065056,75.153008 
	C127.664642,74.705612 131.378616,75.258728 135.008682,74.957115 
	C140.063553,74.537132 145.084732,73.711571 150.777878,73.330414 
	C157.290482,74.065094 163.145554,74.528961 169.000610,74.992828 
	C176.059372,74.433998 183.122665,73.925514 190.174881,73.293747 
	C193.393921,73.005363 195.813705,76.283539 194.517700,79.720047 
	C193.958130,81.203796 192.666321,82.411407 191.393890,83.875298 
	C191.619125,81.971603 192.157593,79.937057 192.885193,77.187912 
	C190.260910,77.033829 187.898621,76.797318 185.534363,76.775696 
	C179.746216,76.722763 173.955002,76.869499 168.169144,76.744453 
	C163.312927,76.639503 158.954559,77.217987 156.284271,82.049347 
	C153.549591,86.997208 156.501541,90.534370 158.718918,94.536133 
	C152.922638,94.405396 153.111740,90.612267 153.940338,86.603836 
	C152.088165,86.811943 150.574081,86.982063 149.059998,87.152176 
z" />
    <path fill="#78797A" opacity="1.000000" stroke="none" d="
M112.964279,122.854080 
	C95.903732,123.334724 78.843445,123.824654 61.782547,124.292389 
	C52.169243,124.555946 42.554943,124.782936 32.041935,125.033333 
	C29.089632,125.098488 27.036484,125.156708 24.983335,125.214928 
	C22.291113,125.209755 19.598888,125.204575 16.058708,125.224541 
	C13.505768,124.818420 11.800782,124.387154 10.443239,123.806641 
	C14.051082,123.167847 17.308647,122.275505 20.572329,122.252548 
	C46.379921,122.070984 72.188683,122.055107 98.461105,122.017456 
	C103.604851,122.315781 108.284569,122.584938 112.964279,122.854080 
z" />
    <path fill="#030202" opacity="1.000000" stroke="none" d="
M179.048615,99.982277 
	C178.451981,99.413795 177.855331,98.845314 177.174194,97.644455 
	C177.052719,96.357132 177.015732,95.702179 177.085876,94.763817 
	C177.794937,93.986839 178.396866,93.493271 179.015244,93.364044 
	C180.025604,94.620789 181.019501,95.513199 182.013397,96.405602 
	C182.490158,95.130638 182.966904,93.855682 183.443665,92.580719 
	C181.962234,92.053810 180.480820,91.526909 178.711792,90.879089 
	C177.952454,89.901283 177.480728,89.044403 177.425446,88.165825 
	C180.209610,87.886406 182.577286,87.628685 184.944977,87.370964 
	C185.389954,87.347878 185.834915,87.324799 186.603088,87.640144 
	C186.961258,88.304764 186.991272,88.631424 187.013107,89.298820 
	C187.006592,90.092842 187.003296,90.546570 187.000000,91.000305 
	C187.786118,92.046455 188.370087,93.679916 189.394882,94.032639 
	C192.992264,95.270813 193.815170,97.337234 191.858978,100.436890 
	C189.337921,104.431587 186.736282,108.385071 183.939926,112.187576 
	C183.435303,112.873772 181.824432,112.746422 180.359772,112.652328 
	C179.966751,111.852371 179.938263,111.394745 179.909790,110.937119 
	C179.909790,110.937119 179.985703,110.966888 180.231354,110.875565 
	C180.689499,109.868401 180.902008,108.952560 181.114502,108.036713 
	C181.099213,107.586670 181.083908,107.136635 181.393494,106.232353 
	C180.828445,103.846169 179.938538,101.914223 179.048615,99.982277 
z" />
    <path fill="#A6A7A7" opacity="1.000000" stroke="none" d="
M97.997078,121.988289 
	C72.188683,122.055107 46.379921,122.070984 20.572329,122.252548 
	C17.308647,122.275505 14.051082,123.167847 10.390766,123.561485 
	C9.938126,123.306961 9.885402,123.148346 9.832679,122.989738 
	C9.884566,122.830215 9.936454,122.670685 10.251099,122.202950 
	C10.632791,121.334816 10.751724,120.774895 10.870658,120.214973 
	C11.101991,120.433983 11.366127,120.485809 11.836579,120.248978 
	C25.654722,120.251938 39.299355,120.376366 53.515335,120.667877 
	C54.468987,120.723221 54.851284,120.611488 55.233582,120.499756 
	C69.159882,120.538795 83.086174,120.577850 97.460846,120.920723 
	C97.941711,121.478760 97.970993,121.733337 97.997078,121.988289 
z" />
    <path fill="#959997" opacity="1.000000" stroke="none" d="
M98.461105,122.017456 
	C97.970993,121.733337 97.941711,121.478760 97.910561,121.032242 
	C107.914948,120.712524 117.917999,120.585106 128.519409,120.604019 
	C129.464523,120.655052 129.811249,120.559753 130.157990,120.464447 
	C130.838074,120.451271 131.518158,120.438095 132.833832,120.604034 
	C135.023422,120.667488 136.577423,120.551819 138.131424,120.436157 
	C139.129776,120.464722 140.128113,120.493286 141.476715,120.817413 
	C141.839294,121.514153 141.851608,121.915314 141.863922,122.316483 
	C132.543518,122.524567 123.223106,122.732651 113.433487,122.897408 
	C108.284569,122.584938 103.604851,122.315781 98.461105,122.017456 
z" />
    <path fill="#030202" opacity="1.000000" stroke="none" d="
M169.000397,74.560524 
	C163.145554,74.528961 157.290482,74.065094 151.183243,73.321518 
	C154.182190,73.788513 156.797272,72.973167 158.572250,69.990288 
	C158.818954,69.575691 159.194824,69.100731 159.616669,68.950363 
	C161.965637,68.112999 164.347214,67.367065 166.717636,66.589859 
	C167.478485,69.102638 168.239334,71.615425 169.000397,74.560524 
z" />
    <path fill="#3A0708" opacity="1.000000" stroke="none" d="
M97.901558,81.290619 
	C96.359940,86.429817 94.480705,91.641975 92.601463,96.854134 
	C92.042679,96.930016 91.483887,97.005905 90.925102,97.081787 
	C88.863144,92.054733 86.951172,86.958000 84.664253,82.035454 
	C83.769058,80.108551 82.032562,78.572502 80.333771,76.712769 
	C80.261505,76.187332 80.534691,75.807571 80.934677,75.230789 
	C82.472374,76.244331 84.443764,77.182648 85.188843,78.716614 
	C87.406029,83.281342 89.141197,88.080193 91.317223,93.405487 
	C93.608124,88.989273 95.586029,85.176422 97.901558,81.290619 
z" />
    <path fill="#555554" opacity="1.000000" stroke="none" d="
M150.873260,120.353851 
	C157.656494,120.206039 164.439728,120.058228 171.960724,119.926895 
	C173.624863,120.084747 174.551224,120.226128 175.477585,120.367508 
	C175.456955,120.798752 175.436325,121.229996 175.015015,121.890289 
	C174.401443,122.164940 174.188583,122.210533 173.975723,122.256134 
	C166.531967,122.348320 159.088226,122.440506 151.257874,122.174942 
	C150.871933,121.329407 150.872589,120.841629 150.873260,120.353851 
z" />
    <path fill="#09080A" opacity="1.000000" stroke="none" d="
M9.545071,123.074150 
	C9.885402,123.148346 9.938126,123.306961 10.043324,123.710739 
	C11.800782,124.387154 13.505768,124.818420 15.620176,125.320808 
	C14.037321,129.870285 10.848838,126.261307 8.236076,126.544685 
	C8.576539,125.415977 8.917001,124.287270 9.545071,123.074150 
z" />
    <path fill="#1F0305" opacity="1.000000" stroke="none" d="
M179.612183,111.106033 
	C179.938263,111.394745 179.966751,111.852371 179.995148,112.654388 
	C179.205414,113.940895 178.415771,114.883011 176.945496,115.926651 
	C174.850388,116.367279 173.435913,116.706367 172.021439,117.045456 
	C171.485001,116.810730 170.948563,116.576004 170.196747,116.139946 
	C173.092438,114.384064 176.203522,112.829506 179.612183,111.106033 
z" />
    <path fill="#050606" opacity="1.000000" stroke="none" d="
M173.865540,122.533409 
	C174.188583,122.210533 174.401443,122.164940 174.939911,122.093475 
	C175.425308,123.550774 175.667435,125.035156 175.645645,126.515648 
	C175.642776,126.711319 174.294495,126.887199 173.569305,127.072250 
	C173.631332,125.651733 173.693344,124.231209 173.865540,122.533409 
z" />
    <path fill="#09080A" opacity="1.000000" stroke="none" d="
M25.119532,125.507126 
	C27.036484,125.156708 29.089632,125.098488 31.579031,125.105652 
	C29.820110,129.713364 29.437365,129.748932 25.119532,125.507126 
z" />
    <path fill="#050606" opacity="1.000000" stroke="none" d="
M172.015564,117.391975 
	C173.435913,116.706367 174.850388,116.367279 176.633301,116.018585 
	C176.671387,117.261101 176.341064,118.513214 175.744171,120.066422 
	C174.551224,120.226128 173.624863,120.084747 172.350006,119.882515 
	C172.004242,119.127274 172.006973,118.432884 172.015564,117.391975 
z" />
    <path fill="#040102" opacity="1.000000" stroke="none" d="
M187.390900,90.997597 
	C187.003296,90.546570 187.006592,90.092842 187.286758,89.212631 
	C188.046951,88.236481 188.530289,87.686798 189.013611,87.137108 
	C189.013611,87.137108 189.227585,86.863251 189.753143,86.886017 
	C190.518784,86.939102 190.758835,86.969421 190.998901,86.999741 
	C191.476715,87.722366 191.954544,88.444984 192.432358,89.167610 
	C190.882172,89.776703 189.331970,90.385796 187.390900,90.997597 
z" />
    <path fill="#0D0303" opacity="1.000000" stroke="none" d="
M31.040363,77.083527 
	C30.554358,77.381363 30.068352,77.679199 29.296579,77.999367 
	C29.692509,73.494057 30.259708,73.080215 32.725807,75.580063 
	C32.015480,76.368843 31.527924,76.726189 31.040363,77.083527 
z" />
    <path fill="#78797A" opacity="1.000000" stroke="none" d="
M142.168060,122.460785 
	C141.851608,121.915314 141.839294,121.514153 141.840195,120.911865 
	C142.673462,120.599808 143.493530,120.488884 144.713364,120.775864 
	C145.091919,121.521561 145.070694,121.869354 145.049469,122.217148 
	C144.190384,122.346458 143.331284,122.475777 142.168060,122.460785 
z" />
    <path fill="#959997" opacity="1.000000" stroke="none" d="
M145.441742,122.265617 
	C145.070694,121.869354 145.091919,121.521561 145.111816,120.912453 
	C146.113586,120.601456 147.116653,120.551773 148.493561,120.828438 
	C148.906723,121.479080 148.944702,121.803535 148.981293,122.128159 
	C147.932205,122.190140 146.883102,122.252113 145.441742,122.265617 
z" />
    <path fill="#0D0303" opacity="1.000000" stroke="none" d="
M25.292461,75.401459 
	C25.709599,75.269905 26.052080,75.322159 26.394562,75.374405 
	C26.203424,75.764153 26.012285,76.153893 25.821146,76.543640 
	C25.620033,76.224174 25.418921,75.904709 25.292461,75.401459 
z" />
    <path fill="#0D0303" opacity="1.000000" stroke="none" d="
M54.013531,76.047058 
	C53.579620,76.362854 53.105766,76.448669 52.288246,76.405563 
	C52.219357,75.774452 52.494133,75.272263 52.768913,74.770065 
	C53.170467,75.119072 53.572025,75.468071 54.013531,76.047058 
z" />
    <path fill="#78797A" opacity="1.000000" stroke="none" d="
M149.188812,122.251030 
	C148.944702,121.803535 148.906723,121.479080 148.862976,120.909790 
	C149.299728,120.550224 149.740875,120.435654 150.527634,120.337463 
	C150.872589,120.841629 150.871933,121.329407 150.849915,122.060638 
	C150.351166,122.327362 149.873749,122.350632 149.188812,122.251030 
z" />
    <path fill="#0D0303" opacity="1.000000" stroke="none" d="
M10.624056,120.286758 
	C10.751724,120.774895 10.632791,121.334816 10.287868,121.954025 
	C10.167070,121.461723 10.272262,120.910141 10.624056,120.286758 
z" />
    <path fill="#1F0305" opacity="1.000000" stroke="none" d="
M190.988586,86.600189 
	C190.758835,86.969421 190.518784,86.939102 189.921570,86.843285 
	C189.808151,86.189980 190.051880,85.602165 190.547791,84.812737 
	C190.859406,85.140961 190.918854,85.670799 190.988586,86.600189 
z" />
    <path fill="#3A0708" opacity="1.000000" stroke="none" d="
M98.976830,77.351318 
	C99.193481,77.012245 99.394989,77.023338 99.897324,77.072411 
	C99.989845,77.664391 99.781540,78.218399 99.321304,78.934937 
	C99.033470,78.632141 98.997574,78.166809 98.976830,77.351318 
z" />
    <path fill="#3A0708" opacity="1.000000" stroke="none" d="
M31.405104,77.091080 
	C31.527924,76.726189 32.015480,76.368843 32.781799,75.878540 
	C33.060562,75.745590 33.143555,76.160538 33.131477,76.371773 
	C32.669544,76.754875 32.219692,76.926750 31.405104,77.091080 
z" />
    <path fill="#3A0708" opacity="1.000000" stroke="none" d="
M98.631943,80.143631 
	C98.753014,80.298065 98.705833,80.618774 98.444626,81.075119 
	C98.194359,80.880974 98.272049,80.580704 98.631943,80.143631 
z" />
    <path fill="#020202" opacity="1.000000" stroke="none" d="
M148.667664,87.159698 
	C150.574081,86.982063 152.088165,86.811943 153.940338,86.603836 
	C153.111740,90.612267 152.922638,94.405396 158.809326,94.878571 
	C159.481293,95.016434 159.716492,95.193794 160.070877,95.890961 
	C160.437256,96.608986 160.671890,96.839577 160.957474,97.018341 
	C160.957474,97.018341 161.001617,96.999474 160.992218,97.375580 
	C161.303619,99.291725 161.624405,100.831772 161.876587,102.042404 
	C158.679031,103.039291 155.828384,103.928032 152.977737,104.816765 
	C152.541962,104.858627 152.106186,104.900490 151.194336,104.592941 
	C145.763351,102.432877 145.419785,102.686592 142.955750,109.975922 
	C142.558548,109.984039 142.161346,109.992157 141.457581,109.653381 
	C141.071274,108.840462 140.991547,108.374443 140.911835,107.908424 
	C140.911835,107.908424 140.941391,107.436234 141.122757,107.106888 
	C141.414124,106.475677 141.348557,106.216843 141.107422,106.001038 
	C141.020248,105.607285 140.933075,105.213531 140.855072,104.265213 
	C140.685791,103.436562 140.507324,103.162476 140.328842,102.888390 
	C140.328842,102.888390 140.231689,102.783302 140.219727,102.447899 
	C139.873581,101.726654 139.539398,101.340820 139.205215,100.954979 
	C138.535828,100.149475 137.866440,99.343964 137.122162,97.886719 
	C136.948227,96.014145 136.849182,94.793320 136.724091,93.251190 
	C135.577789,93.579681 134.710434,93.828239 133.843079,94.076797 
	C133.524353,93.992752 133.280579,93.809174 132.957916,93.078865 
	C132.645462,92.343826 132.421997,92.121002 132.133698,91.963219 
	C132.133698,91.963219 132.054840,91.959389 132.106903,91.609367 
	C132.806122,90.698051 133.378830,89.791344 134.112854,89.633118 
	C138.031830,88.788376 141.991150,88.130699 145.936508,87.408325 
	C146.716110,87.327957 147.495712,87.247581 148.667664,87.159698 
z" />
    <path fill="#4A0C0D" opacity="1.000000" stroke="none" d="
M102.940933,111.362091 
	C103.411255,110.691887 103.807388,110.380714 104.444862,109.993164 
	C104.428665,111.345413 104.171135,112.774040 103.708923,115.338127 
	C112.843872,115.338127 121.530312,115.338127 130.677505,115.469193 
	C128.949310,116.014473 126.768524,116.725113 124.569817,116.785713 
	C118.650223,116.948845 112.722076,116.770859 106.799080,116.853523 
	C103.044907,116.905922 101.534637,115.458046 102.940933,111.362091 
z" />
    <path fill="#470B0B" opacity="1.000000" stroke="none" d="
M85.131645,115.562210 
	C89.386024,114.632942 93.840622,114.014915 98.613907,113.165855 
	C97.898422,114.159744 96.932678,116.350998 95.817383,116.429962 
	C92.352715,116.675293 88.831276,116.118835 85.131645,115.562210 
z" />
    <path fill="#1F0305" opacity="1.000000" stroke="none" d="
M142.963257,110.366714 
	C145.419785,102.686592 145.763351,102.432877 150.871368,104.523285 
	C145.305359,104.348328 145.749680,109.717621 143.347534,112.873047 
	C143.045486,112.318321 143.008133,111.537910 142.963257,110.366714 
z" />
    <path fill="#3E0708" opacity="1.000000" stroke="none" d="
M55.250999,115.470749 
	C58.791126,115.174576 62.473938,115.209854 66.622177,115.232407 
	C63.189632,115.413857 59.291660,115.608032 55.250999,115.470749 
z" />
    <path fill="#1F0305" opacity="1.000000" stroke="none" d="
M144.358765,116.203346 
	C149.371811,115.889297 154.734344,115.792755 160.551971,115.816811 
	C155.574127,116.098557 150.141174,116.259705 144.358765,116.203346 
z" />
    <path fill="#3E0708" opacity="1.000000" stroke="none" d="
M67.538986,114.948120 
	C67.860710,113.388634 68.502495,111.688141 69.381973,109.737396 
	C69.032791,111.260468 68.445923,113.033798 67.538986,114.948120 
z" />
    <path fill="#4A0C0D" opacity="1.000000" stroke="none" d="
M134.292053,115.328865 
	C135.141144,114.510040 136.245850,113.804665 137.678711,113.058601 
	C136.853775,113.826050 135.700714,114.634186 134.292053,115.328865 
z" />
    <path fill="#3A0708" opacity="1.000000" stroke="none" d="
M62.206615,84.764969 
	C62.453396,83.477104 62.987396,81.992195 63.774086,80.283295 
	C63.515800,81.562172 63.004818,83.065056 62.206615,84.764969 
z" />
    <path fill="#3E0506" opacity="1.000000" stroke="none" d="
M79.117126,103.167519 
	C79.767464,103.980354 80.370117,105.153572 80.937607,106.661453 
	C80.291443,105.840042 79.680450,104.683975 79.117126,103.167519 
z" />
    <path fill="#3E0506" opacity="1.000000" stroke="none" d="
M75.230850,96.949043 
	C75.218658,96.349861 75.538826,95.783157 75.858994,95.216461 
	C76.208900,95.640976 76.558807,96.065498 76.903076,96.749725 
	C76.452698,97.000137 76.007957,96.990837 75.230850,96.949043 
z" />
    <path fill="#555554" opacity="1.000000" stroke="none" d="
M137.711609,120.282883 
	C136.577423,120.551819 135.023422,120.667488 133.173843,120.614723 
	C134.349442,120.340729 135.820602,120.235176 137.711609,120.282883 
z" />
    <path fill="#3E0708" opacity="1.000000" stroke="none" d="
M56.492653,109.134743 
	C56.478615,109.983475 56.162506,111.005852 55.636810,112.281525 
	C55.681675,111.459343 55.936127,110.383858 56.492653,109.134743 
z" />
    <path fill="#3A0708" opacity="1.000000" stroke="none" d="
M69.671776,77.014954 
	C69.683266,77.502403 69.456619,78.028839 69.025116,78.759811 
	C69.024727,78.327545 69.229187,77.690750 69.671776,77.014954 
z" />
    <path fill="#470B0B" opacity="1.000000" stroke="none" d="
M81.134048,108.068283 
	C81.545952,108.394882 81.935280,108.999321 82.283859,109.878906 
	C81.865906,109.551399 81.488686,108.948769 81.134048,108.068283 
z" />
    <path fill="#3A0708" opacity="1.000000" stroke="none" d="
M64.255592,79.817093 
	C64.137444,79.279495 64.224632,78.557861 64.448990,77.500397 
	C64.544426,77.987404 64.502678,78.810219 64.255592,79.817093 
z" />
    <path fill="#3E0506" opacity="1.000000" stroke="none" d="
M74.193718,98.778191 
	C74.116966,98.400993 74.252449,97.819633 74.648712,97.073593 
	C74.741653,97.463951 74.573799,98.018990 74.193718,98.778191 
z" />
    <path fill="#470B0B" opacity="1.000000" stroke="none" d="
M99.130318,112.743881 
	C99.030693,112.379082 99.141930,111.800400 99.470253,111.016670 
	C99.571953,111.384415 99.456566,111.957199 99.130318,112.743881 
z" />
    <path fill="#3E0506" opacity="1.000000" stroke="none" d="
M72.130203,103.758774 
	C72.057076,103.380577 72.206657,102.777245 72.593109,101.956726 
	C72.670952,102.337570 72.511932,102.935616 72.130203,103.758774 
z" />
    <path fill="#4A0C0D" opacity="1.000000" stroke="none" d="
M140.691376,108.110924 
	C140.991547,108.374443 141.071274,108.840462 141.159744,109.662979 
	C140.983185,110.027451 140.797882,110.035416 140.334625,110.032700 
	C140.194733,109.452499 140.332825,108.882965 140.691376,108.110924 
z" />
    <path fill="#470B0B" opacity="1.000000" stroke="none" d="
M82.775879,112.114540 
	C82.862915,111.986488 83.144836,112.396011 83.164062,112.643753 
	C82.828804,112.819153 82.663986,112.602852 82.775879,112.114540 
z" />
    <path fill="#555554" opacity="1.000000" stroke="none" d="
M54.865311,120.426208 
	C54.851284,120.611488 54.468987,120.723221 53.928413,120.688354 
	C54.012444,120.478729 54.254738,120.415703 54.865311,120.426208 
z" />
    <path fill="#555554" opacity="1.000000" stroke="none" d="
M129.826843,120.385422 
	C129.811249,120.559753 129.464523,120.655052 128.977325,120.614441 
	C129.056473,120.421150 129.276077,120.363770 129.826843,120.385422 
z" />
    <path fill="#3A0708" opacity="1.000000" stroke="none" d="
M73.892487,76.471039 
	C73.837189,76.622002 73.671066,76.673546 73.251678,76.662949 
	C73.205307,76.339630 73.466393,76.263229 73.892487,76.471039 
z" />
    <path fill="#3A0708" opacity="1.000000" stroke="none" d="
M62.892616,76.468513 
	C62.824139,76.615097 62.656925,76.654465 62.247940,76.604668 
	C62.232010,76.278625 62.494576,76.227226 62.892616,76.468513 
z" />
    <path fill="#1F0305" opacity="1.000000" stroke="none" d="
M142.996307,113.124008 
	C143.116425,113.048134 143.079239,113.542694 142.953690,113.756378 
	C142.660934,113.699097 142.676956,113.442375 142.996307,113.124008 
z" />
    <path fill="#3E0708" opacity="1.000000" stroke="none" d="
M54.980167,113.097404 
	C55.108345,113.202446 55.094486,113.371231 54.952667,113.758926 
	C54.596962,113.702927 54.601437,113.430695 54.980167,113.097404 
z" />
    <path fill="#4A0C0D" opacity="1.000000" stroke="none" d="
M138.256348,112.897812 
	C138.105560,112.677948 138.263916,112.388016 138.708008,112.004585 
	C138.775909,112.175629 138.633163,112.481186 138.256348,112.897812 
z" />
    <path fill="#3A0708" opacity="1.000000" stroke="none" d="
M66.968216,83.324440 
	C67.082367,83.481041 67.009712,83.868759 66.738907,84.485031 
	C66.620972,84.327583 66.701187,83.941566 66.968216,83.324440 
z" />
    <path fill="#3E0708" opacity="1.000000" stroke="none" d="
M70.362244,107.832184 
	C70.258087,107.681152 70.329330,107.346413 70.607849,106.848709 
	C70.722633,107.006660 70.630135,107.327568 70.362244,107.832184 
z" />
    <path fill="#3E0506" opacity="1.000000" stroke="none" d="
M78.284378,100.834274 
	C78.466805,100.856087 78.682762,101.142799 78.898361,101.704674 
	C78.704643,101.686279 78.511284,101.392723 78.284378,100.834274 
z" />
    <path fill="#3E0506" opacity="1.000000" stroke="none" d="
M77.386208,98.722687 
	C77.573486,98.753677 77.790833,99.073204 78.013748,99.688004 
	C77.818298,99.659256 77.617287,99.335243 77.386208,98.722687 
z" />
    <path fill="#470B0B" opacity="1.000000" stroke="none" d="
M100.453590,108.607574 
	C100.553642,108.772842 100.430405,109.152885 100.119843,109.768074 
	C100.031776,109.609596 100.131035,109.215981 100.453590,108.607574 
z" />
    <path fill="#470B0B" opacity="1.000000" stroke="none" d="
M100.974716,107.215324 
	C101.294128,107.282837 101.274193,107.556709 100.918831,107.886246 
	C100.801392,107.783714 100.818710,107.610313 100.974716,107.215324 
z" />
    <path fill="#1F0305" opacity="1.000000" stroke="none" d="
M153.437073,104.894211 
	C155.828384,103.928032 158.679031,103.039291 161.876587,102.042404 
	C161.624405,100.831772 161.303619,99.291725 160.979126,97.395706 
	C163.036301,99.293999 165.097183,101.548271 168.226852,104.971642 
	C162.488312,104.971642 158.192352,104.971642 153.437073,104.894211 
z" />
    <path fill="#1F0305" opacity="1.000000" stroke="none" d="
M184.493469,87.264297 
	C182.577286,87.628685 180.209610,87.886406 177.146667,88.136597 
	C172.778473,87.991638 173.794952,91.165398 172.979736,93.045799 
	C171.603455,91.501511 170.227188,89.957222 167.732178,87.157623 
	C174.127487,87.157623 179.084732,87.157623 184.493469,87.264297 
z" />
    <path fill="#040102" opacity="1.000000" stroke="none" d="
M173.047333,93.272537 
	C173.794952,91.165398 172.778473,87.991638 176.730194,88.158295 
	C177.480728,89.044403 177.952454,89.901283 178.711823,91.212372 
	C178.999252,92.110939 178.999008,92.555321 178.998779,92.999695 
	C178.396866,93.493271 177.794937,93.986839 176.730743,94.759018 
	C175.795242,95.065865 175.322037,95.094109 174.848816,95.122353 
	C174.848816,95.122353 174.915222,95.097794 174.790924,94.904610 
	C174.391800,94.499413 174.116974,94.287399 173.842163,94.075386 
	C173.522430,93.980957 173.280029,93.788918 173.047333,93.272537 
z" />
    <path fill="#1F0305" opacity="1.000000" stroke="none" d="
M179.106445,100.332870 
	C179.938538,101.914223 180.828445,103.846169 181.460236,105.900131 
	C180.522812,104.242584 179.843536,102.463020 179.106445,100.332870 
z" />
    <path fill="#1F0305" opacity="1.000000" stroke="none" d="
M180.897812,108.273239 
	C180.902008,108.952560 180.689499,109.868401 180.197952,110.851166 
	C180.172989,110.115318 180.427063,109.312546 180.897812,108.273239 
z" />
    <path fill="#1F0305" opacity="1.000000" stroke="none" d="
M174.918427,95.410843 
	C175.322037,95.094109 175.795242,95.065865 176.623596,95.042419 
	C177.015732,95.702179 177.052719,96.357132 177.095871,97.339584 
	C176.397369,97.011177 175.692719,96.355263 174.918427,95.410843 
z" />
    <path fill="#1F0305" opacity="1.000000" stroke="none" d="
M188.656128,87.122253 
	C188.530289,87.686798 188.046951,88.236481 187.289978,88.872345 
	C186.991272,88.631424 186.961258,88.304764 186.926941,87.732117 
	C187.384628,87.359573 187.841629,87.233482 188.656128,87.122253 
z" />
    <path fill="#1F0305" opacity="1.000000" stroke="none" d="
M173.931473,94.336540 
	C174.116974,94.287399 174.391800,94.499413 174.800232,94.938766 
	C174.629501,94.976639 174.325134,94.787170 173.931473,94.336540 
z" />
    <path fill="#1F0305" opacity="1.000000" stroke="none" d="
M160.891617,96.762337 
	C160.671890,96.839577 160.437256,96.608986 160.149033,96.101379 
	C160.304932,96.086235 160.565353,96.296280 160.891617,96.762337 
z" />
    <path fill="#1F0305" opacity="1.000000" stroke="none" d="
M145.488052,87.287712 
	C141.991150,88.130699 138.031830,88.788376 134.112854,89.633118 
	C133.378830,89.791344 132.806122,90.698051 132.109375,91.569969 
	C130.896713,90.700157 129.733612,89.519722 128.570526,88.339294 
	C128.740158,87.948563 128.909790,87.557831 129.079422,87.167099 
	C134.399475,87.167099 139.719543,87.167099 145.488052,87.287712 
z" />
    <path fill="#1F0305" opacity="1.000000" stroke="none" d="
M133.931610,94.385223 
	C134.710434,93.828239 135.577789,93.579681 136.724091,93.251190 
	C136.849182,94.793320 136.948227,96.014145 137.036331,97.584778 
	C136.023651,96.854256 135.021896,95.773949 133.931610,94.385223 
z" />
    <path fill="#4A0C0D" opacity="1.000000" stroke="none" d="
M139.207001,101.221344 
	C139.539398,101.340820 139.873581,101.726654 140.222046,102.376373 
	C139.893814,102.256081 139.551315,101.871895 139.207001,101.221344 
z" />
    <path fill="#4A0C0D" opacity="1.000000" stroke="none" d="
M105.350296,107.983505 
	C105.326073,107.621948 105.536140,107.064987 105.985435,106.316994 
	C106.011307,106.680008 105.797951,107.234055 105.350296,107.983505 
z" />
    <path fill="#1F0305" opacity="1.000000" stroke="none" d="
M132.179169,92.209221 
	C132.421997,92.121002 132.645462,92.343826 132.888550,92.855812 
	C132.723572,92.871712 132.474106,92.663467 132.179169,92.209221 
z" />
    <path fill="#1F0305" opacity="1.000000" stroke="none" d="
M141.033936,106.249863 
	C141.348557,106.216843 141.414124,106.475677 141.208069,106.886253 
	C141.061493,106.829529 141.010956,106.664108 141.033936,106.249863 
z" />
    <path fill="#4A0C0D" opacity="1.000000" stroke="none" d="
M106.379570,106.058746 
	C106.346832,105.901039 106.531265,105.615379 106.951691,105.224380 
	C106.990692,105.389633 106.793716,105.660217 106.379570,106.058746 
z" />
    <path fill="#4A0C0D" opacity="1.000000" stroke="none" d="
M140.294708,103.141602 
	C140.507324,103.162476 140.685791,103.436562 140.843307,103.961983 
	C140.635101,103.940483 140.447830,103.667656 140.294708,103.141602 
z" />
    <path fill="#000000" opacity="1.000000" stroke="none" d="
M179.015244,93.364044 
	C178.999008,92.555321 178.999252,92.110939 178.999435,91.333282 
	C180.480820,91.526909 181.962234,92.053810 183.443665,92.580719 
	C182.966904,93.855682 182.490158,95.130638 182.013397,96.405602 
	C181.019501,95.513199 180.025604,94.620789 179.015244,93.364044 
z" />
</svg>