<svg version="1.1" id="Layer_1" xmlns="http://www.w3.org/2000/svg" xmlns:xlink="http://www.w3.org/1999/xlink" x="0px" y="0px" width="100%" viewBox="0 0 900 900" enable-background="new 0 0 900 900" xml:space="preserve">
    <path fill="#F9F9F9" opacity="1.000000" stroke="none" d="
M828.000000,901.000000 
	C552.000000,901.000000 276.500000,901.000000 1.000000,901.000000 
	C1.000000,601.000000 1.000000,301.000000 1.000000,1.000000 
	C301.000000,1.000000 601.000000,1.000000 901.000000,1.000000 
	C901.000000,301.000000 901.000000,601.000000 901.000000,901.000000 
	C876.833313,901.000000 852.666687,901.000000 828.000000,901.000000 
M123.637901,438.374420 
	C124.424362,438.572357 125.210815,438.770325 126.475189,439.455841 
	C128.645645,440.308289 130.816086,441.160736 133.000000,442.000000 
	C133.000000,442.000000 132.989319,442.013885 133.462616,442.512878 
	C148.804901,449.230469 164.147186,455.948090 180.287460,463.015076 
	C180.287460,450.628143 180.342117,439.024078 180.185959,427.422852 
	C180.173172,426.471863 178.916794,425.102966 177.915588,424.663757 
	C155.521652,414.840088 133.084976,405.113770 110.627167,395.436890 
	C110.289886,395.291565 109.584229,396.001160 108.815460,397.029785 
	C108.794662,407.151062 108.646622,417.274597 108.827126,427.392303 
	C108.884613,430.614716 107.751457,432.068665 104.753387,433.087616 
	C96.121330,436.021362 87.606880,439.299927 79.025536,442.385468 
	C77.724937,442.853088 76.313980,443.013824 73.922516,443.546112 
	C73.922516,431.064575 73.922516,419.347321 73.719421,406.896027 
	C72.876472,406.388733 72.077652,405.780731 71.183990,405.389191 
	C57.328377,399.318451 43.472481,393.247986 29.591011,387.236664 
	C20.922586,383.482849 12.211271,379.828064 2.913264,375.870972 
	C2.913264,388.108063 2.829507,399.714966 3.042794,411.316437 
	C3.064128,412.476868 4.663358,414.111420 5.912687,414.668793 
	C19.272644,420.629272 32.678020,426.491333 46.136948,432.225433 
	C54.982002,435.993835 63.934917,439.509033 73.433525,443.762390 
	C73.716423,445.674744 74.241066,447.586548 74.245422,449.499542 
	C74.298103,472.644653 74.273994,495.789886 74.269951,518.935120 
	C74.269646,520.701050 74.269913,522.466980 74.269913,524.990723 
	C84.871025,521.193848 94.637833,517.516785 104.539322,514.247620 
	C107.961906,513.117554 109.143898,511.555481 109.115990,507.887543 
	C108.938667,484.577209 109.029015,461.264801 109.031105,437.953094 
	C109.031258,436.263000 109.031120,434.572906 109.031120,432.526886 
	C111.976189,433.561310 113.992378,434.269470 116.605858,435.327637 
	C118.795609,436.206818 120.985359,437.086029 123.637901,438.374420 
M409.774384,426.147614 
	C403.834808,426.427368 397.895203,426.707123 391.688141,427.686890 
	C392.279907,430.380310 391.976562,434.339996 393.640747,435.516388 
	C397.722412,438.401703 402.711212,440.003784 407.631897,442.718231 
	C408.422913,442.478577 409.213928,442.238892 410.187622,441.137634 
	C410.122864,439.090271 410.058136,437.042908 410.132629,434.204865 
	C410.085266,433.138672 410.037903,432.072449 410.184082,430.222351 
	C410.136688,429.150574 410.089294,428.078766 409.774384,426.147614 
M818.320984,426.554626 
	C818.320984,431.316284 818.320984,436.077972 818.320984,441.414154 
	C828.714417,441.414154 838.619324,441.414154 849.236755,441.414154 
	C849.236755,469.526886 849.236755,497.062286 849.236755,524.433228 
	C855.880127,524.433228 861.783875,524.433228 868.263062,524.433228 
	C868.263062,496.444885 868.263062,468.883484 868.263062,440.846741 
	C878.773926,440.846741 888.694153,440.846741 899.504211,440.846741 
	C898.958740,435.557068 898.469360,430.811829 897.500122,425.924500 
	C897.336731,425.958160 897.173401,425.991852 896.087463,425.837524 
	C870.723389,425.897064 845.359314,425.956604 819.498535,425.922394 
	C819.345947,425.993866 819.193359,426.065338 818.320984,426.554626 
M410.127716,490.064819 
	C410.070801,477.049896 410.013855,464.034943 409.932861,450.333252 
	C404.101410,447.287598 398.269958,444.241974 391.599243,440.757965 
	C391.599243,443.328735 391.599609,444.928711 391.599182,446.528687 
	C391.596558,456.526276 391.806580,466.529999 391.518066,476.519348 
	C391.317383,483.467102 390.814789,490.456177 389.720734,497.310883 
	C388.960358,502.074860 386.008362,506.254852 381.188019,507.614441 
	C366.506653,511.755310 352.796722,508.743500 351.703430,489.071930 
	C351.620300,487.576294 351.645844,486.073822 351.645905,484.574524 
	C351.646210,474.410309 351.730072,464.244965 351.577881,454.083099 
	C351.554169,452.502777 350.913055,450.134064 349.787903,449.503784 
	C344.488525,446.535187 338.920990,444.045319 333.097046,441.213440 
	C333.097046,458.834961 332.626709,475.826813 333.271271,492.776245 
	C333.665771,503.151215 337.440002,512.626465 346.212708,519.297607 
	C354.887787,525.894531 364.913544,526.303711 375.232788,526.028931 
	C396.282013,525.468262 409.765778,512.001465 410.127716,490.064819 
M760.346985,425.843994 
	C759.894287,425.904114 759.441650,425.964264 758.231934,425.888885 
	C757.362671,426.227203 756.493408,426.565521 755.173340,427.438416 
	C745.567139,459.702637 735.960999,491.966858 726.166809,524.862488 
	C731.955688,524.862488 736.758606,524.742310 741.551392,524.910828 
	C744.125244,525.001282 745.340515,524.227417 746.086914,521.591187 
	C749.573486,509.276703 753.290588,497.027069 756.972778,484.768524 
	C761.066528,471.140137 765.211548,457.527191 769.334290,443.907501 
	C772.745300,451.684601 775.305664,459.490540 777.652466,467.360138 
	C782.977234,485.215546 788.142273,503.118835 793.557068,520.946533 
	C794.018433,522.465637 795.777161,524.577576 797.073914,524.683105 
	C802.326477,525.110291 807.634094,524.860474 813.201538,524.860474 
	C812.996277,523.361938 812.986206,522.363708 812.714600,521.442688 
	C807.727539,504.534698 802.786438,487.612488 797.673950,470.742279 
	C793.243347,456.122375 788.611084,441.563568 783.926636,426.313385 
	C783.288147,426.216156 782.649597,426.118927 781.088623,425.840454 
	C775.388306,425.902679 769.687988,425.964905 763.249878,425.895508 
	C762.504456,425.939148 761.758972,425.982788 760.346985,425.843994 
M442.514435,524.691284 
	C448.299194,524.691284 454.083954,524.691284 460.437469,524.691284 
	C460.437469,512.395203 460.437469,500.343872 460.437469,487.762848 
	C465.120544,487.762848 469.253601,487.960114 473.357422,487.698700 
	C476.477966,487.499908 478.088257,488.775848 479.576172,491.413452 
	C485.209564,501.399506 491.051758,511.269409 496.943542,521.106262 
	C497.808777,522.550903 499.301971,524.555725 500.609833,524.638428 
	C506.604370,525.017517 512.636292,524.805237 519.552429,524.805237 
	C511.512146,510.819427 504.029907,497.804321 496.418091,484.563843 
	C505.941620,480.356964 511.117004,473.316986 512.533325,463.814758 
	C514.714783,449.179749 511.274475,435.640839 498.243134,430.400482 
	C491.637299,427.744080 484.113525,427.370361 476.533630,425.758087 
	C476.366577,425.796570 476.199493,425.835022 475.338440,425.564606 
	C466.575317,425.670044 457.812195,425.775513 448.355011,425.712830 
	C447.885559,425.768524 447.416107,425.824188 446.398132,425.633148 
	C445.251312,425.699829 444.104492,425.766510 442.312622,425.883423 
	C442.183472,426.264099 442.054352,426.644775 441.748108,427.677307 
	C441.822876,428.116089 441.897675,428.554901 441.811371,429.659576 
	C441.861572,430.110718 441.911774,430.561859 441.744415,431.927643 
	C441.729614,442.874695 441.675354,453.821838 441.708984,464.768738 
	C441.763428,482.507904 441.875549,500.246887 441.807892,518.833740 
	C441.902954,520.542725 441.997986,522.251648 442.514435,524.691284 
M544.305664,427.075897 
	C544.305664,459.495178 544.305664,491.914490 544.305664,524.565552 
	C550.739075,524.565552 556.628662,524.565552 563.123840,524.565552 
	C563.123840,509.605835 563.123840,494.935577 563.123840,479.389526 
	C564.347839,480.515839 564.858643,480.878357 565.235474,481.348297 
	C575.643799,494.326385 585.992188,507.353027 596.488159,520.259766 
	C597.971802,522.084229 600.063477,524.463989 602.045959,524.639343 
	C608.396423,525.201172 614.827881,524.848083 622.245972,524.848083 
	C608.405151,507.823273 595.233765,491.621918 581.911621,475.235107 
	C595.175720,458.866394 608.250793,442.730896 621.764221,426.054443 
	C615.015747,426.054443 609.736572,426.064697 604.457458,426.050690 
	C601.153503,426.041931 598.637268,427.073059 596.501038,429.955933 
	C591.550232,436.636932 586.195190,443.019318 580.977966,449.501740 
	C575.305908,456.549316 569.604248,463.573151 563.058105,471.667480 
	C563.058105,455.492401 563.058105,440.764893 563.058105,425.140869 
	C556.607483,425.518311 550.572205,425.871429 544.305664,427.075897 
M706.335632,510.688660 
	C713.369019,493.367065 707.094910,477.971954 689.705444,469.988708 
	C687.138245,468.810120 684.461304,467.872803 681.869263,466.745544 
	C675.933899,464.164307 669.988098,461.603180 664.106567,458.903137 
	C659.281189,456.687958 657.750000,452.657104 658.986267,447.747192 
	C660.093079,443.351685 663.835205,441.908447 667.819092,441.755127 
	C678.284790,441.352295 688.762329,441.258270 699.234802,441.026733 
	C700.993347,440.987854 702.750366,440.877045 704.610168,440.794983 
	C704.610168,435.500793 704.610168,430.746552 704.610168,425.450623 
	C698.599915,425.450623 692.796875,425.174530 687.029663,425.510956 
	C676.618774,426.118256 666.121399,426.434143 655.864197,428.115906 
	C647.324707,429.516022 641.819397,435.419189 640.163147,444.195557 
	C637.719299,457.145782 641.733582,466.568695 652.845764,473.652496 
	C656.324341,475.869995 660.140137,477.589630 663.895386,479.335358 
	C671.118958,482.693390 678.528748,485.671539 685.629761,489.264923 
	C690.281372,491.618835 690.803284,496.593170 689.257141,500.618958 
	C688.131104,503.550873 684.922729,506.718903 681.963501,507.671356 
	C677.372131,509.149109 672.208984,509.089935 667.276428,509.214508 
	C658.907715,509.425812 650.529907,509.272552 642.354370,509.272552 
	C642.354370,515.153320 642.354370,519.883423 642.354370,525.036743 
	C652.700317,525.036743 662.669739,525.049744 672.639160,525.026550 
	C674.801331,525.021545 676.976196,525.011658 679.123169,524.790405 
	C689.760071,523.694031 700.069824,521.886169 706.335632,510.688660 
M257.500397,425.449310 
	C247.395950,425.449310 237.291489,425.449310 227.150696,425.449310 
	C227.150696,431.165192 227.150696,435.912994 227.150696,441.031860 
	C235.794525,441.031860 244.102402,441.270294 252.387253,440.936584 
	C256.886230,440.755341 258.354462,441.971832 258.306854,446.699463 
	C258.063599,470.839142 258.195282,494.982574 258.195770,519.124695 
	C258.195801,520.889343 258.195770,522.653992 258.195770,524.550903 
	C264.805481,524.550903 270.709076,524.550903 277.174011,524.550903 
	C277.174011,496.703827 277.174011,469.161316 277.174011,441.139343 
	C287.473724,441.139343 297.218750,441.139343 307.271973,441.139343 
	C307.271973,435.897461 307.271973,431.133698 307.271973,425.449768 
	C291.014740,425.449768 274.757507,425.449768 257.500397,425.449310 
M340.612122,425.753265 
	C338.156525,425.753265 335.700928,425.753265 332.342438,425.753265 
	C332.960571,429.457611 332.389465,434.107697 334.210510,435.408203 
	C339.317261,439.055237 345.411102,441.320099 351.310608,444.226318 
	C351.310608,437.554047 351.310608,431.811584 351.310608,425.754272 
	C347.831085,425.754272 344.687561,425.754272 340.612122,425.753265 
z" />
    <path fill="#546370" opacity="1.000000" stroke="none" d="
M441.972473,428.993683 
	C441.897675,428.554901 441.822876,428.116089 442.081421,427.224854 
	C442.595734,426.459351 442.776703,426.146301 442.957672,425.833221 
	C444.104492,425.766510 445.251312,425.699829 446.826599,425.997498 
	C447.853088,426.201599 448.451080,426.041290 449.049072,425.880981 
	C457.812195,425.775513 466.575317,425.670044 475.761475,425.897156 
	C476.457916,426.141327 476.731354,426.052979 477.004761,425.964630 
	C484.113525,427.370361 491.637299,427.744080 498.243134,430.400482 
	C511.274475,435.640839 514.714783,449.179749 512.533325,463.814758 
	C511.117004,473.316986 505.941620,480.356964 496.418091,484.563843 
	C504.029907,497.804321 511.512146,510.819427 519.552429,524.805237 
	C512.636292,524.805237 506.604370,525.017517 500.609833,524.638428 
	C499.301971,524.555725 497.808777,522.550903 496.943542,521.106262 
	C491.051758,511.269409 485.209564,501.399506 479.576172,491.413452 
	C478.088257,488.775848 476.477966,487.499908 473.357422,487.698700 
	C469.253601,487.960114 465.120544,487.762848 460.437469,487.762848 
	C460.437469,500.343872 460.437469,512.395203 460.437469,524.691284 
	C454.083954,524.691284 448.299194,524.691284 442.562012,524.069275 
	C442.394165,521.626831 442.178741,519.806396 441.963348,517.985962 
	C441.875549,500.246887 441.763428,482.507904 441.708984,464.768738 
	C441.675354,453.821838 441.729614,442.874695 442.083130,431.324982 
	C442.272064,430.146118 442.122284,429.569885 441.972473,428.993683 
M464.724609,473.787872 
	C471.642242,473.109772 478.698761,473.060577 485.437439,471.572266 
	C491.849640,470.156097 494.997437,464.237762 494.845917,456.800049 
	C494.686951,448.997101 492.311523,444.377808 485.783081,443.087860 
	C477.614563,441.473877 469.176331,441.224731 460.285492,440.329132 
	C460.285492,451.480743 460.189911,461.271515 460.439026,471.053497 
	C460.462921,471.992401 462.632477,472.876709 464.724609,473.787872 
z" />
    <path fill="#0E99D6" opacity="1.000000" stroke="none" d="
M73.922516,407.630066 
	C73.922516,419.347321 73.922516,431.064575 73.922516,443.546112 
	C76.313980,443.013824 77.724937,442.853088 79.025536,442.385468 
	C87.606880,439.299927 96.121330,436.021362 104.753387,433.087616 
	C107.751457,432.068665 108.884613,430.614716 108.827126,427.392303 
	C108.646622,417.274597 108.794662,407.151062 108.917084,397.110046 
	C109.014420,407.354492 108.927299,417.520050 109.097054,427.681335 
	C109.121880,429.167694 110.177620,430.786804 111.160934,432.022552 
	C111.487808,432.433350 113.690956,432.169922 113.983208,431.637054 
	C114.886230,429.990723 115.700516,428.074951 115.739838,426.246399 
	C115.770584,424.816711 114.595497,423.361053 113.736946,421.421661 
	C115.802246,420.853882 117.379326,419.976105 118.884415,420.085876 
	C124.463776,420.492615 126.735001,417.832031 127.114738,412.533691 
	C127.226006,410.981140 128.605301,409.519470 129.768723,407.328125 
	C134.683319,417.761475 141.798874,423.475586 149.418152,413.977966 
	C154.428391,416.235748 159.506607,418.524139 164.584808,420.812561 
	C164.505173,421.091095 164.425537,421.369629 164.345901,421.648163 
	C162.337891,421.648163 160.329880,421.648163 158.321884,421.648163 
	C158.091248,422.084045 157.860626,422.519958 157.629990,422.955841 
	C159.321594,423.969330 160.911545,425.546600 162.726868,425.873840 
	C166.060303,426.474731 168.976974,426.838409 169.160599,431.222870 
	C169.199387,432.148773 170.850357,433.840851 171.500488,433.725494 
	C172.679871,433.516296 173.922333,432.391663 174.662399,431.320282 
	C175.465515,430.157623 175.725647,428.619904 176.222565,427.245758 
	C176.765869,427.343689 177.309158,427.441589 177.852463,427.539520 
	C177.852463,434.218384 178.356049,440.955566 177.592850,447.546051 
	C177.306564,450.018372 174.492798,452.835663 172.098953,454.290802 
	C167.414337,457.138336 155.729843,451.120361 152.160965,443.946259 
	C154.817474,444.334198 157.068069,445.149933 159.125549,444.807007 
	C160.731491,444.539337 162.293472,443.004852 163.466431,441.673370 
	C163.890640,441.191803 163.127579,439.664307 162.906296,438.614105 
	C161.468018,439.034119 160.024185,439.436249 158.593384,439.880310 
	C157.615341,440.183899 156.655472,440.546021 155.236832,441.038361 
	C155.297638,439.752045 155.380157,439.132812 155.345657,438.520203 
	C155.251404,436.846497 155.559479,434.925507 154.821793,433.593231 
	C154.345642,432.733246 152.308029,432.737823 150.970169,432.354950 
	C150.750381,434.059662 150.508621,435.762054 150.331696,437.471222 
	C150.300949,437.768127 150.705032,438.137238 150.633896,438.398224 
	C150.238739,439.848053 149.758896,441.274750 149.308014,442.709412 
	C148.248657,441.899353 147.081360,441.194702 146.159470,440.250427 
	C145.183151,439.250336 144.440262,438.022339 143.595398,436.893890 
	C143.544342,441.845093 142.314896,443.916504 137.459061,442.151398 
	C136.128311,441.667694 134.487717,442.036346 132.989319,442.013885 
	C132.989319,442.013885 133.000000,442.000000 132.964172,441.663391 
	C132.736969,440.433441 132.545624,439.540100 132.425247,438.978088 
	C135.228119,438.616577 137.781235,438.287262 141.032288,437.867920 
	C138.919281,435.484467 137.571701,433.845154 136.096069,432.330627 
	C134.314255,430.501801 132.458099,430.043579 132.094757,433.268860 
	C131.655518,437.167938 129.452209,438.234009 126.009247,437.590759 
	C124.898582,435.556793 123.842331,432.602600 122.679085,432.559875 
	C120.488152,432.479340 118.235535,434.077393 116.008560,434.977631 
	C113.992378,434.269470 111.976189,433.561310 109.031120,432.526886 
	C109.031120,434.572906 109.031258,436.263000 109.031105,437.953094 
	C109.029015,461.264801 108.938667,484.577209 109.115990,507.887543 
	C109.143898,511.555481 107.961906,513.117554 104.539322,514.247620 
	C94.637833,517.516785 84.871025,521.193848 74.269913,524.990723 
	C74.269913,522.466980 74.269646,520.701050 74.269951,518.935120 
	C74.273994,495.789886 74.298103,472.644653 74.245422,449.499542 
	C74.241066,447.586548 73.716423,445.674744 73.449425,443.151978 
	C73.617722,430.904388 73.770119,419.267212 73.922516,407.630066 
M162.323273,429.147583 
	C160.798065,428.511017 158.327103,427.552429 159.329498,430.392609 
	C160.001038,432.295349 163.042267,433.361755 165.023148,434.802368 
	C165.404037,433.794617 166.376129,432.446198 166.035156,431.854370 
	C165.439072,430.819824 164.035904,430.250244 162.323273,429.147583 
M166.444885,448.709595 
	C166.711304,448.989014 166.977722,449.268433 167.244141,449.547882 
	C167.359802,449.437439 167.582077,449.237091 167.575760,449.229614 
	C167.327103,448.934906 167.057678,448.657715 166.444885,448.709595 
z" />
    <path fill="#566571" opacity="1.000000" stroke="none" d="
M544.421265,426.650238 
	C550.572205,425.871429 556.607483,425.518311 563.058105,425.140869 
	C563.058105,440.764893 563.058105,455.492401 563.058105,471.667480 
	C569.604248,463.573151 575.305908,456.549316 580.977966,449.501740 
	C586.195190,443.019318 591.550232,436.636932 596.501038,429.955933 
	C598.637268,427.073059 601.153503,426.041931 604.457458,426.050690 
	C609.736572,426.064697 615.015747,426.054443 621.764221,426.054443 
	C608.250793,442.730896 595.175720,458.866394 581.911621,475.235107 
	C595.233765,491.621918 608.405151,507.823273 622.245972,524.848083 
	C614.827881,524.848083 608.396423,525.201172 602.045959,524.639343 
	C600.063477,524.463989 597.971802,522.084229 596.488159,520.259766 
	C585.992188,507.353027 575.643799,494.326385 565.235474,481.348297 
	C564.858643,480.878357 564.347839,480.515839 563.123840,479.389526 
	C563.123840,494.935577 563.123840,509.605835 563.123840,524.565552 
	C556.628662,524.565552 550.739075,524.565552 544.305664,524.565552 
	C544.305664,491.914490 544.305664,459.495178 544.421265,426.650238 
z" />
    <path fill="#556470" opacity="1.000000" stroke="none" d="
M784.067993,426.977753 
	C788.611084,441.563568 793.243347,456.122375 797.673950,470.742279 
	C802.786438,487.612488 807.727539,504.534698 812.714600,521.442688 
	C812.986206,522.363708 812.996277,523.361938 813.201538,524.860474 
	C807.634094,524.860474 802.326477,525.110291 797.073914,524.683105 
	C795.777161,524.577576 794.018433,522.465637 793.557068,520.946533 
	C788.142273,503.118835 782.977234,485.215546 777.652466,467.360138 
	C775.305664,459.490540 772.745300,451.684601 769.334290,443.907501 
	C765.211548,457.527191 761.066528,471.140137 756.972778,484.768524 
	C753.290588,497.027069 749.573486,509.276703 746.086914,521.591187 
	C745.340515,524.227417 744.125244,525.001282 741.551392,524.910828 
	C736.758606,524.742310 731.955688,524.862488 726.166809,524.862488 
	C735.960999,491.966858 745.567139,459.702637 755.770203,427.200256 
	C757.241028,426.649475 758.114990,426.336914 758.988953,426.024384 
	C759.441650,425.964264 759.894287,425.904114 760.859985,426.183105 
	C762.244507,426.357178 763.116089,426.192139 763.987671,426.027100 
	C769.687988,425.964905 775.388306,425.902679 781.719360,426.182373 
	C782.922668,426.675476 783.495361,426.826599 784.067993,426.977753 
z" />
    <path fill="#556470" opacity="1.000000" stroke="none" d="
M706.177368,511.030579 
	C700.069824,521.886169 689.760071,523.694031 679.123169,524.790405 
	C676.976196,525.011658 674.801331,525.021545 672.639160,525.026550 
	C662.669739,525.049744 652.700317,525.036743 642.354370,525.036743 
	C642.354370,519.883423 642.354370,515.153320 642.354370,509.272552 
	C650.529907,509.272552 658.907715,509.425812 667.276428,509.214508 
	C672.208984,509.089935 677.372131,509.149109 681.963501,507.671356 
	C684.922729,506.718903 688.131104,503.550873 689.257141,500.618958 
	C690.803284,496.593170 690.281372,491.618835 685.629761,489.264923 
	C678.528748,485.671539 671.118958,482.693390 663.895386,479.335358 
	C660.140137,477.589630 656.324341,475.869995 652.845764,473.652496 
	C641.733582,466.568695 637.719299,457.145782 640.163147,444.195557 
	C641.819397,435.419189 647.324707,429.516022 655.864197,428.115906 
	C666.121399,426.434143 676.618774,426.118256 687.029663,425.510956 
	C692.796875,425.174530 698.599915,425.450623 704.610168,425.450623 
	C704.610168,430.746552 704.610168,435.500793 704.610168,440.794983 
	C702.750366,440.877045 700.993347,440.987854 699.234802,441.026733 
	C688.762329,441.258270 678.284790,441.352295 667.819092,441.755127 
	C663.835205,441.908447 660.093079,443.351685 658.986267,447.747192 
	C657.750000,452.657104 659.281189,456.687958 664.106567,458.903137 
	C669.988098,461.603180 675.933899,464.164307 681.869263,466.745544 
	C684.461304,467.872803 687.138245,468.810120 689.705444,469.988708 
	C707.094910,477.971954 713.369019,493.367065 706.177368,511.030579 
z" />
    <path fill="#546470" opacity="1.000000" stroke="none" d="
M409.974548,490.990143 
	C409.765778,512.001465 396.282013,525.468262 375.232788,526.028931 
	C364.913544,526.303711 354.887787,525.894531 346.212708,519.297607 
	C337.440002,512.626465 333.665771,503.151215 333.271271,492.776245 
	C332.626709,475.826813 333.097046,458.834961 333.097046,441.213440 
	C338.920990,444.045319 344.488525,446.535187 349.787903,449.503784 
	C350.913055,450.134064 351.554169,452.502777 351.577881,454.083099 
	C351.730072,464.244965 351.646210,474.410309 351.645905,484.574524 
	C351.645844,486.073822 351.620300,487.576294 351.703430,489.071930 
	C352.796722,508.743500 366.506653,511.755310 381.188019,507.614441 
	C386.008362,506.254852 388.960358,502.074860 389.720734,497.310883 
	C390.814789,490.456177 391.317383,483.467102 391.518066,476.519348 
	C391.806580,466.529999 391.596558,456.526276 391.599182,446.528687 
	C391.599609,444.928711 391.599243,443.328735 391.599243,440.757965 
	C398.269958,444.241974 404.101410,447.287598 409.655334,450.974487 
	C409.270416,464.177856 409.151001,476.739868 409.095184,489.302216 
	C409.092682,489.863556 409.668243,490.427460 409.974548,490.990143 
z" />
    <path fill="#556470" opacity="1.000000" stroke="none" d="
M258.000336,425.449524 
	C274.757507,425.449768 291.014740,425.449768 307.271973,425.449768 
	C307.271973,431.133698 307.271973,435.897461 307.271973,441.139343 
	C297.218750,441.139343 287.473724,441.139343 277.174011,441.139343 
	C277.174011,469.161316 277.174011,496.703827 277.174011,524.550903 
	C270.709076,524.550903 264.805481,524.550903 258.195770,524.550903 
	C258.195770,522.653992 258.195801,520.889343 258.195770,519.124695 
	C258.195282,494.982574 258.063599,470.839142 258.306854,446.699463 
	C258.354462,441.971832 256.886230,440.755341 252.387253,440.936584 
	C244.102402,441.270294 235.794525,441.031860 227.150696,441.031860 
	C227.150696,435.912994 227.150696,431.165192 227.150696,425.449310 
	C237.291489,425.449310 247.395950,425.449310 258.000336,425.449524 
z" />
    <path fill="#556470" opacity="1.000000" stroke="none" d="
M897.979980,426.066620 
	C898.469360,430.811829 898.958740,435.557068 899.504211,440.846741 
	C888.694153,440.846741 878.773926,440.846741 868.263062,440.846741 
	C868.263062,468.883484 868.263062,496.444885 868.263062,524.433228 
	C861.783875,524.433228 855.880127,524.433228 849.236755,524.433228 
	C849.236755,497.062286 849.236755,469.526886 849.236755,441.414154 
	C838.619324,441.414154 828.714417,441.414154 818.320984,441.414154 
	C818.320984,436.077972 818.320984,431.316284 818.784424,426.491516 
	C819.497009,426.290955 819.746094,426.153534 819.995239,426.016113 
	C845.359314,425.956604 870.723389,425.897064 896.631775,426.093445 
	C897.444031,426.255127 897.712036,426.160858 897.979980,426.066620 
z" />
    <path fill="#0D98D6" opacity="1.000000" stroke="none" d="
M73.820969,407.263062 
	C73.770119,419.267212 73.617722,430.904388 73.152428,442.839600 
	C63.934917,439.509033 54.982002,435.993835 46.136948,432.225433 
	C32.678020,426.491333 19.272644,420.629272 5.912687,414.668793 
	C4.663358,414.111420 3.064128,412.476868 3.042794,411.316437 
	C2.829507,399.714966 2.913264,388.108063 2.913264,375.870972 
	C12.211271,379.828064 20.922586,383.482849 29.591011,387.236664 
	C43.472481,393.247986 57.328377,399.318451 71.183990,405.389191 
	C72.077652,405.780731 72.876472,406.388733 73.820969,407.263062 
z" />
    <path fill="#0D99D6" opacity="1.000000" stroke="none" d="
M133.225967,442.263367 
	C134.487717,442.036346 136.128311,441.667694 137.459061,442.151398 
	C142.314896,443.916504 143.544342,441.845093 143.595398,436.893890 
	C144.440262,438.022339 145.183151,439.250336 146.159470,440.250427 
	C147.081360,441.194702 148.248657,441.899353 149.308014,442.709412 
	C149.758896,441.274750 150.238739,439.848053 150.633896,438.398224 
	C150.705032,438.137238 150.300949,437.768127 150.331696,437.471222 
	C150.508621,435.762054 150.750381,434.059662 150.970169,432.354950 
	C152.308029,432.737823 154.345642,432.733246 154.821793,433.593231 
	C155.559479,434.925507 155.251404,436.846497 155.345657,438.520203 
	C155.380157,439.132812 155.297638,439.752045 155.236832,441.038361 
	C156.655472,440.546021 157.615341,440.183899 158.593384,439.880310 
	C160.024185,439.436249 161.468018,439.034119 162.906296,438.614105 
	C163.127579,439.664307 163.890640,441.191803 163.466431,441.673370 
	C162.293472,443.004852 160.731491,444.539337 159.125549,444.807007 
	C157.068069,445.149933 154.817474,444.334198 152.160965,443.946259 
	C155.729843,451.120361 167.414337,457.138336 172.098953,454.290802 
	C174.492798,452.835663 177.306564,450.018372 177.592850,447.546051 
	C178.356049,440.955566 177.852463,434.218384 177.852463,427.539520 
	C177.309158,427.441589 176.765869,427.343689 176.222565,427.245758 
	C175.725647,428.619904 175.465515,430.157623 174.662399,431.320282 
	C173.922333,432.391663 172.679871,433.516296 171.500488,433.725494 
	C170.850357,433.840851 169.199387,432.148773 169.160599,431.222870 
	C168.976974,426.838409 166.060303,426.474731 162.726868,425.873840 
	C160.911545,425.546600 159.321594,423.969330 157.629990,422.955841 
	C157.860626,422.519958 158.091248,422.084045 158.321884,421.648163 
	C160.329880,421.648163 162.337891,421.648163 164.345901,421.648163 
	C164.425537,421.369629 164.505173,421.091095 164.584808,420.812561 
	C159.506607,418.524139 154.428391,416.235748 149.418152,413.977966 
	C141.798874,423.475586 134.683319,417.761475 129.768723,407.328125 
	C128.605301,409.519470 127.226006,410.981140 127.114738,412.533691 
	C126.735001,417.832031 124.463776,420.492615 118.884415,420.085876 
	C117.379326,419.976105 115.802246,420.853882 113.736946,421.421661 
	C114.595497,423.361053 115.770584,424.816711 115.739838,426.246399 
	C115.700516,428.074951 114.886230,429.990723 113.983208,431.637054 
	C113.690956,432.169922 111.487808,432.433350 111.160934,432.022552 
	C110.177620,430.786804 109.121880,429.167694 109.097054,427.681335 
	C108.927299,417.520050 109.014420,407.354492 109.034599,396.751038 
	C109.584229,396.001160 110.289886,395.291565 110.627167,395.436890 
	C133.084976,405.113770 155.521652,414.840088 177.915588,424.663757 
	C178.916794,425.102966 180.173172,426.471863 180.185959,427.422852 
	C180.342117,439.024078 180.287460,450.628143 180.287460,463.015076 
	C164.147186,455.948090 148.804901,449.230469 133.225967,442.263367 
z" />
    <path fill="#566571" opacity="1.000000" stroke="none" d="
M341.078094,425.753784 
	C344.687561,425.754272 347.831085,425.754272 351.310608,425.754272 
	C351.310608,431.811584 351.310608,437.554047 351.310608,444.226318 
	C345.411102,441.320099 339.317261,439.055237 334.210510,435.408203 
	C332.389465,434.107697 332.960571,429.457611 332.342438,425.753265 
	C335.700928,425.753265 338.156525,425.753265 341.078094,425.753784 
z" />
    <path fill="#546370" opacity="1.000000" stroke="none" d="
M409.993408,434.995544 
	C410.058136,437.042908 410.122864,439.090271 409.651672,441.571320 
	C408.522186,442.044037 407.928650,442.083069 407.335083,442.122101 
	C402.711212,440.003784 397.722412,438.401703 393.640747,435.516388 
	C391.976562,434.339996 392.279907,430.380310 392.292816,427.341675 
	C398.612305,427.000000 404.327087,427.003510 410.041901,427.007019 
	C410.089294,428.078766 410.136688,429.150574 409.825745,430.822327 
	C409.642761,432.613373 409.818085,433.804443 409.993408,434.995544 
z" />
    <path fill="#0D99D6" opacity="1.000000" stroke="none" d="
M126.015358,437.984772 
	C129.452209,438.234009 131.655518,437.167938 132.094757,433.268860 
	C132.458099,430.043579 134.314255,430.501801 136.096069,432.330627 
	C137.571701,433.845154 138.919281,435.484467 141.032288,437.867920 
	C137.781235,438.287262 135.228119,438.616577 132.425247,438.978088 
	C132.545624,439.540100 132.736969,440.433441 132.957428,441.669983 
	C130.816086,441.160736 128.645645,440.308289 126.235687,438.974243 
	C125.996185,438.492645 125.982994,438.017120 125.990685,438.009338 
	C125.998375,438.001587 126.015358,437.984772 126.015358,437.984772 
z" />
    <path fill="#445059" opacity="1.000000" stroke="none" d="
M410.051147,490.527466 
	C409.668243,490.427460 409.092682,489.863556 409.095184,489.302216 
	C409.151001,476.739868 409.270416,464.177856 409.667358,451.317871 
	C410.013855,464.034943 410.070801,477.049896 410.051147,490.527466 
z" />
    <path fill="#0D99D6" opacity="1.000000" stroke="none" d="
M116.307205,435.152649 
	C118.235535,434.077393 120.488152,432.479340 122.679085,432.559875 
	C123.842331,432.602600 124.898582,435.556793 126.009247,437.590759 
	C126.015358,437.984772 125.998375,438.001587 125.639252,438.002472 
	C124.578453,437.990662 123.876778,437.977936 123.175110,437.965210 
	C120.985359,437.086029 118.795609,436.206818 116.307205,435.152649 
z" />
    <path fill="#445059" opacity="1.000000" stroke="none" d="
M409.908142,426.577332 
	C404.327087,427.003510 398.612305,427.000000 392.426575,426.991669 
	C397.895203,426.707123 403.834808,426.427368 409.908142,426.577332 
z" />
    <path fill="#445059" opacity="1.000000" stroke="none" d="
M441.885620,518.409851 
	C442.178741,519.806396 442.394165,521.626831 442.351288,523.703979 
	C441.997986,522.251648 441.902954,520.542725 441.885620,518.409851 
z" />
    <path fill="#445059" opacity="1.000000" stroke="none" d="
M410.063019,434.600220 
	C409.818085,433.804443 409.642761,432.613373 409.728973,431.214264 
	C410.037903,432.072449 410.085266,433.138672 410.063019,434.600220 
z" />
    <path fill="#0E99D6" opacity="1.000000" stroke="none" d="
M123.406509,438.169830 
	C123.876778,437.977936 124.578453,437.990662 125.631561,438.010254 
	C125.982994,438.017120 125.996185,438.492645 125.996727,438.730469 
	C125.210815,438.770325 124.424362,438.572357 123.406509,438.169830 
z" />
    <path fill="#445059" opacity="1.000000" stroke="none" d="
M763.618774,425.961304 
	C763.116089,426.192139 762.244507,426.357178 761.193237,426.274353 
	C761.758972,425.982788 762.504456,425.939148 763.618774,425.961304 
z" />
    <path fill="#445059" opacity="1.000000" stroke="none" d="
M758.610474,425.956604 
	C758.114990,426.336914 757.241028,426.649475 755.995605,426.932953 
	C756.493408,426.565521 757.362671,426.227203 758.610474,425.956604 
z" />
    <path fill="#445059" opacity="1.000000" stroke="none" d="
M407.483490,442.420166 
	C407.928650,442.083069 408.522186,442.044037 409.560333,442.002136 
	C409.213928,442.238892 408.422913,442.478577 407.483490,442.420166 
z" />
    <path fill="#445059" opacity="1.000000" stroke="none" d="
M441.891907,429.326630 
	C442.122284,429.569885 442.272064,430.146118 442.191925,430.867676 
	C441.911774,430.561859 441.861572,430.110718 441.891907,429.326630 
z" />
    <path fill="#445059" opacity="1.000000" stroke="none" d="
M783.997314,426.645569 
	C783.495361,426.826599 782.922668,426.675476 782.180542,426.273010 
	C782.649597,426.118927 783.288147,426.216156 783.997314,426.645569 
z" />
    <path fill="#445059" opacity="1.000000" stroke="none" d="
M448.702026,425.796906 
	C448.451080,426.041290 447.853088,426.201599 447.100891,426.120880 
	C447.416107,425.824188 447.885559,425.768524 448.702026,425.796906 
z" />
    <path fill="#445059" opacity="1.000000" stroke="none" d="
M897.740051,425.995544 
	C897.712036,426.160858 897.444031,426.255127 897.093018,426.187469 
	C897.173401,425.991852 897.336731,425.958160 897.740051,425.995544 
z" />
    <path fill="#445059" opacity="1.000000" stroke="none" d="
M819.746887,425.969238 
	C819.746094,426.153534 819.497009,426.290955 819.144287,426.282593 
	C819.193359,426.065338 819.345947,425.993866 819.746887,425.969238 
z" />
    <path fill="#445059" opacity="1.000000" stroke="none" d="
M476.769196,425.861359 
	C476.731354,426.052979 476.457916,426.141327 476.108459,426.051575 
	C476.199493,425.835022 476.366577,425.796570 476.769196,425.861359 
z" />
    <path fill="#445059" opacity="1.000000" stroke="none" d="
M442.635132,425.858337 
	C442.776703,426.146301 442.595734,426.459351 442.169983,426.898926 
	C442.054352,426.644775 442.183472,426.264099 442.635132,425.858337 
z" />
    <path fill="#F4F5F6" opacity="1.000000" stroke="none" d="
M464.265289,473.787109 
	C462.632477,472.876709 460.462921,471.992401 460.439026,471.053497 
	C460.189911,461.271515 460.285492,451.480743 460.285492,440.329132 
	C469.176331,441.224731 477.614563,441.473877 485.783081,443.087860 
	C492.311523,444.377808 494.686951,448.997101 494.845917,456.800049 
	C494.997437,464.237762 491.849640,470.156097 485.437439,471.572266 
	C478.698761,473.060577 471.642242,473.109772 464.265289,473.787109 
z" />
    <path fill="#0D99D6" opacity="1.000000" stroke="none" d="
M162.647095,429.316711 
	C164.035904,430.250244 165.439072,430.819824 166.035156,431.854370 
	C166.376129,432.446198 165.404037,433.794617 165.023148,434.802368 
	C163.042267,433.361755 160.001038,432.295349 159.329498,430.392609 
	C158.327103,427.552429 160.798065,428.511017 162.647095,429.316711 
z" />
    <path fill="#0D99D6" opacity="1.000000" stroke="none" d="
M166.617920,448.543945 
	C167.057678,448.657715 167.327103,448.934906 167.575760,449.229614 
	C167.582077,449.237091 167.359802,449.437439 167.244141,449.547882 
	C166.977722,449.268433 166.711304,448.989014 166.617920,448.543945 
z" />
</svg>