<svg version="1.1" id="Layer_1" xmlns="http://www.w3.org/2000/svg" xmlns:xlink="http://www.w3.org/1999/xlink" x="0px" y="0px" viewBox="0 0 85.4 85.4" style="enable-background:new 0 0 85.4 85.4;" xml:space="preserve">
    <style type="text/css">
	.st0{fill:#FFFFFF;stroke:#ED1C24;stroke-width:1.4456;stroke-miterlimit:3.8637;}
	.st1{fill-rule:evenodd;clip-rule:evenodd;fill:#00539F;}
	.st2{fill:#00539F;}
	.st3{fill:none;stroke:#ED1C24;stroke-width:0.9638;stroke-miterlimit:3.8637;}
	.st4{fill:#FFFFFF;stroke:#FFFFFF;stroke-width:1.8136;stroke-miterlimit:3.8637;}
	.st5{fill:#FFFFFF;stroke:#ED1C24;stroke-width:0.8047;stroke-miterlimit:3.8637;}
	.st6{fill:#FFFFFF;}
	.st7{clip-path:url(#SVGID_2_);fill-rule:evenodd;clip-rule:evenodd;fill:#00539F;}
	.st8{clip-path:url(#SVGID_5_);}
	.st9{clip-path:url(#SVGID_6_);fill:#ED1C24;}
	.st10{clip-path:url(#SVGID_8_);fill:none;stroke:#FFFFFF;stroke-width:0.2321;stroke-miterlimit:3.8637;}
	
		.st11{clip-path:url(#SVGID_8_);fill-rule:evenodd;clip-rule:evenodd;fill:#00539F;stroke:#FFFFFF;stroke-width:0.2321;stroke-miterlimit:3.8637;}
	.st12{clip-path:url(#SVGID_8_);fill-rule:evenodd;clip-rule:evenodd;fill:#00539F;}
	.st13{clip-path:url(#SVGID_11_);}
	.st14{clip-path:url(#SVGID_12_);fill:#ED1C24;}
	.st15{clip-path:url(#SVGID_14_);fill:none;stroke:#FFFFFF;stroke-width:0.2321;stroke-miterlimit:3.8637;}
	
		.st16{clip-path:url(#SVGID_14_);fill-rule:evenodd;clip-rule:evenodd;fill:#00539F;stroke:#FFFFFF;stroke-width:0.2321;stroke-miterlimit:3.8637;}
	.st17{clip-path:url(#SVGID_14_);fill:#00539F;stroke:#FFFFFF;stroke-width:0.4178;stroke-miterlimit:3.8637;}
	.st18{clip-path:url(#SVGID_14_);fill:#FFFFFF;stroke:#FFFFFF;stroke-width:0.4373;stroke-miterlimit:3.8637;}
	.st19{fill:none;stroke:#FFFFFF;stroke-width:0.1419;stroke-miterlimit:3.8637;}
	.st20{fill:none;stroke:#00539F;stroke-width:0.8047;stroke-miterlimit:3.8637;}
	.st21{fill:#ED1C24;}
	.st22{fill:#00539F;stroke:#00539F;stroke-width:4.249950e-02;stroke-miterlimit:3.8637;}
	.st23{fill:#FFFFFF;stroke:#FFFFFF;stroke-width:0.9826;stroke-miterlimit:3.8637;}
	.st24{fill:#ED1C24;stroke:#ED1C24;stroke-width:4.249950e-02;stroke-miterlimit:3.8637;}
	.st25{fill-rule:evenodd;clip-rule:evenodd;fill:#FFFFFF;}
</style>
    <g>
        <path class="st0" d="M0.7,42.7c0-23.2,18.8-42,42-42c23.2,0,42,18.8,42,42c0,23.2-18.8,42-42,42C19.5,84.7,0.7,65.9,0.7,42.7
		L0.7,42.7z" />
        <path class="st1" d="M14,60.4L13,61.2l0.8,1.2c0.1,0.2,0.3,0.4,0.5,0.4c0.2,0.1,0.4,0,0.6-0.1c0.2-0.2,0.3-0.3,0.3-0.6
		c-0.1-0.2-0.2-0.4-0.3-0.6L14,60.4L14,60.4z M12.2,61.7l-1.3,0.9l0.8,1.2c0.1,0.2,0.3,0.4,0.4,0.4c0.3,0.1,0.5,0.1,0.8-0.1
		c0.3-0.2,0.3-0.4,0.3-0.7c0-0.2-0.1-0.3-0.3-0.5L12.2,61.7L12.2,61.7z M16.2,62.9c-0.1,0.3-0.3,0.5-0.6,0.7
		c-0.3,0.2-0.6,0.3-0.9,0.3c-0.2,0-0.3-0.1-0.5-0.2c0.1,0.3,0.1,0.6,0,0.9c-0.1,0.3-0.3,0.5-0.6,0.7c-0.3,0.2-0.6,0.3-0.9,0.3
		c-0.2,0-0.4,0-0.6-0.1c-0.2-0.1-0.4-0.2-0.6-0.4c-0.2-0.2-0.4-0.4-0.5-0.6l-1.5-2.2l4.8-3.4l1.6,2.3C16.2,61.8,16.4,62.4,16.2,62.9
		L16.2,62.9z" />
        <path class="st1" d="M17.7,65.2l-0.8-0.9l0.8-0.7l0.8,0.9L17.7,65.2L17.7,65.2z M16.5,64.7l0.8,0.9l-3.2,2.9l-0.8-0.9L16.5,64.7
		L16.5,64.7z" />
        <polygon class="st2" points="16,70.4 15.1,69.6 19.2,65.4 20,66.1 16,70.4 	" />
        <polygon class="st2" points="20.8,67 21.7,67.7 19.7,70.1 21.8,69.8 22.9,70.6 20.7,71 20.3,74 19.2,73.2 19.6,71.1 18.9,71.2 
		18,72.2 17.2,71.5 20.8,67 	" />
        <path class="st1" d="M24.1,72.6c-0.2,0.1-0.4,0.2-0.6,0.4l1.5,0.9c0.1-0.3,0.2-0.5,0.1-0.7c-0.1-0.2-0.2-0.4-0.4-0.5
		C24.6,72.6,24.3,72.5,24.1,72.6L24.1,72.6z M26,72.6c0.2,0.3,0.3,0.6,0.3,0.9c0,0.3,0,0.6-0.2,0.9c-0.1,0.2-0.2,0.4-0.4,0.8
		l-2.5-1.5c-0.2,0.4-0.3,0.7-0.1,1c0.1,0.2,0.2,0.3,0.4,0.4c0.2,0.1,0.4,0.2,0.6,0.1c0.1,0,0.2-0.1,0.3-0.1l1,0.6
		c-0.2,0.2-0.4,0.4-0.7,0.5c-0.5,0.2-1.1,0.1-1.7-0.3c-0.5-0.3-0.8-0.7-1-1.2c-0.2-0.5-0.1-1.1,0.4-1.8c0.4-0.6,0.8-1,1.4-1.2
		c0.5-0.1,1.1-0.1,1.6,0.2C25.6,72.1,25.8,72.3,26,72.6L26,72.6z" />
        <path class="st2" d="M31.2,75.1c0.2,0.3,0.2,0.7,0,1.2L30,79l-1.1-0.4l1-2.4c0.1-0.2,0.1-0.4,0.1-0.5c0-0.2-0.2-0.4-0.5-0.5
		c-0.4-0.1-0.7-0.1-0.9,0.2c-0.1,0.1-0.3,0.3-0.4,0.6L27.4,78l-1-0.4l1.6-4l1,0.4l-0.2,0.6c0.2-0.2,0.4-0.2,0.6-0.3
		c0.3-0.1,0.6,0,0.9,0.1C30.7,74.5,31,74.7,31.2,75.1L31.2,75.1z" />
        <path class="st2" d="M32.3,76.1l0.2-0.8l0.6,0.2l0.3-1.2l1.1,0.3l-0.3,1.2l0.7,0.2l-0.2,0.8l-0.7-0.2l-0.6,2.2c0,0.2-0.1,0.3,0,0.3
		c0,0.1,0.2,0.1,0.4,0.2c0,0,0.1,0,0.1,0c0,0,0.1,0,0.1,0l-0.2,0.8L33.2,80c-0.5-0.1-0.9-0.3-1-0.6c-0.1-0.2-0.1-0.4,0-0.6l0.7-2.6
		L32.3,76.1L32.3,76.1z" />
        <path class="st2" d="M38.4,75l1.2,0.1l-0.3,3.6c0,0.4,0,0.7,0.1,0.9c0.1,0.3,0.4,0.5,0.9,0.6c0.5,0,0.8-0.1,1-0.4
		c0.1-0.2,0.2-0.5,0.2-0.9l0.3-3.6l1.2,0.1L42.8,79c0,0.6-0.2,1.1-0.4,1.4c-0.4,0.6-1.1,0.9-2.1,0.8c-1-0.1-1.7-0.4-2-1.1
		c-0.2-0.4-0.2-0.9-0.2-1.5L38.4,75L38.4,75z" />
        <path class="st2" d="M48,76.6c0.3,0.2,0.5,0.6,0.6,1.1l0.4,2.9l-1.2,0.1l-0.3-2.6c0-0.2-0.1-0.4-0.2-0.5c-0.1-0.2-0.4-0.3-0.7-0.3
		c-0.4,0-0.6,0.2-0.7,0.6c-0.1,0.2-0.1,0.4,0,0.7l0.3,2.3L45,81.1l-0.5-4.3l1.1-0.1l0.1,0.6c0.1-0.2,0.2-0.4,0.4-0.5
		c0.2-0.2,0.5-0.3,0.8-0.4C47.3,76.3,47.7,76.4,48,76.6L48,76.6z" />
        <path class="st1" d="M50.7,75.3l-1.1,0.2l-0.2-1l1.1-0.2L50.7,75.3L50.7,75.3z M49.6,76.1l1.1-0.2l0.9,4.2l-1.1,0.2L49.6,76.1
		L49.6,76.1z" />
        <polygon class="st2" points="54.6,74.7 55.8,74.3 55.7,78.9 54.6,79.3 51.7,75.7 52.9,75.3 54.8,78 54.6,74.7 	" />
        <path class="st1" d="M58.1,74.3c-0.1,0.2,0,0.5,0,0.7l1.6-0.8c-0.1-0.3-0.3-0.4-0.5-0.5c-0.2-0.1-0.4-0.1-0.6,0.1
		C58.3,74,58.1,74.1,58.1,74.3L58.1,74.3z M59.1,72.8c0.3,0,0.6,0.1,0.9,0.3c0.3,0.2,0.5,0.4,0.7,0.7c0.1,0.2,0.3,0.4,0.4,0.8
		l-2.7,1.3c0.2,0.4,0.5,0.6,0.8,0.6c0.2,0,0.4,0,0.6-0.1c0.2-0.1,0.4-0.2,0.4-0.4c0-0.1,0.1-0.2,0.1-0.4l1-0.5
		c0.1,0.2,0.1,0.5,0,0.9c-0.1,0.5-0.5,1-1.1,1.3c-0.5,0.2-1,0.3-1.5,0.2c-0.5-0.1-1-0.6-1.3-1.3c-0.3-0.7-0.4-1.3-0.2-1.8
		c0.2-0.5,0.5-0.9,1.1-1.2C58.4,72.9,58.8,72.8,59.1,72.8L59.1,72.8z" />
        <path class="st2" d="M62.8,70.2C62.8,70.2,62.9,70.2,62.8,70.2l0.7,0.9c-0.1,0-0.1,0.1-0.2,0.1c0,0-0.1,0.1-0.1,0.1
		c-0.4,0.2-0.6,0.5-0.5,0.9c0,0.2,0.1,0.4,0.3,0.7l1.1,1.7l-1,0.6l-2.4-3.6l0.9-0.6l0.4,0.6c0-0.3,0-0.6,0.1-0.7
		C62.3,70.6,62.5,70.4,62.8,70.2C62.8,70.2,62.8,70.2,62.8,70.2L62.8,70.2z" />
        <path class="st2" d="M66.3,71.4c0.1,0.1,0.3,0.2,0.4,0.2c0.2,0,0.5-0.1,0.7-0.3c0.2-0.1,0.3-0.3,0.3-0.4c0.1-0.1,0-0.3,0-0.4
		c-0.1-0.1-0.2-0.1-0.3-0.1c-0.1,0-0.5,0.2-1.1,0.5c-0.5,0.2-0.8,0.3-1.1,0.3c-0.3,0-0.5-0.1-0.7-0.4c-0.3-0.3-0.4-0.7-0.3-1.1
		c0.1-0.4,0.3-0.8,0.7-1.2c0.4-0.3,0.8-0.5,1.2-0.6c0.4-0.1,0.8,0.1,1.2,0.5l-0.9,0.7c-0.1-0.1-0.2-0.2-0.3-0.2
		c-0.2,0-0.4,0-0.6,0.2c-0.2,0.2-0.3,0.3-0.3,0.4c0,0.1,0,0.2,0.1,0.3c0.1,0.1,0.2,0.1,0.3,0.1c0.1,0,0.5-0.2,1.1-0.5
		c0.4-0.2,0.8-0.3,1.1-0.3c0.3,0,0.6,0.2,0.8,0.4c0.3,0.3,0.4,0.7,0.3,1.1c-0.1,0.4-0.4,0.8-0.9,1.3c-0.5,0.4-1,0.7-1.4,0.6
		c-0.4,0-0.8-0.2-1.1-0.5L66.3,71.4L66.3,71.4z" />
        <path class="st1" d="M67.7,65.2l-0.8,0.8l-0.8-0.7l0.8-0.8L67.7,65.2L67.7,65.2z M67.3,66.4l0.8-0.8l3.2,3l-0.8,0.8L67.3,66.4
		L67.3,66.4z" />
        <path class="st2" d="M69.3,65.5L68.7,65l0.4-0.5l-0.9-0.8l0.7-0.9l0.9,0.8l0.4-0.5l0.6,0.5l-0.4,0.5l1.8,1.4
		c0.1,0.1,0.2,0.2,0.3,0.2c0.1,0,0.2-0.1,0.3-0.3c0,0,0-0.1,0.1-0.1c0,0,0-0.1,0.1-0.1l0.7,0.5l-0.3,0.4c-0.3,0.4-0.6,0.7-0.9,0.7
		c-0.2,0-0.4-0.1-0.6-0.2l-2.1-1.7L69.3,65.5L69.3,65.5z" />
        <path class="st2" d="M75.3,64.9l0.1-0.1c0.1-0.1,0.1-0.2,0.2-0.3c0-0.1,0.1-0.2,0.1-0.3c0-0.1-0.1-0.2-0.1-0.3
		c-0.1-0.1-0.2-0.2-0.2-0.2l-4.7-1.1l0.7-1.1l3.2,0.9l-2.2-2.5l0.6-1l2.8,3.5c0.5,0.7,0.9,1.1,0.9,1.4c0.1,0.2,0,0.6-0.3,1
		c-0.1,0.1-0.1,0.2-0.1,0.2c0,0.1-0.1,0.1-0.2,0.2L75.3,64.9L75.3,64.9z" />
        <path class="st3" d="M13,42.7C13,26.3,26.3,13,42.7,13c16.4,0,29.8,13.3,29.8,29.8c0,16.4-13.3,29.8-29.8,29.8
		C26.3,72.5,13,59.1,13,42.7L13,42.7z" />
        <path class="st1" d="M14.9,25.2l-0.7,1l-4.7-3.5l0.7-1L14.9,25.2L14.9,25.2z M8.3,21.6l0.6-0.8l0.8,0.6L9,22.1L8.3,21.6L8.3,21.6z" />
        <path class="st2" d="M14.3,18.7c0.2-0.1,0.4-0.2,0.7-0.2c0.2,0,0.4,0.1,0.5,0.1c0.1,0.1,0.4,0.3,0.7,0.5l2,1.6l-0.7,0.9L15.4,20
		c-0.2-0.1-0.4-0.2-0.5-0.3c-0.2,0-0.4,0-0.6,0.3c-0.2,0.2-0.3,0.5-0.2,0.7c0.1,0.2,0.2,0.5,0.5,0.7l1.8,1.5l-0.7,0.9l-4.5-3.7
		l0.7-0.9l1.6,1.3c-0.1-0.3-0.1-0.5-0.1-0.8c0.1-0.2,0.2-0.4,0.3-0.6C13.9,18.9,14.1,18.8,14.3,18.7L14.3,18.7z" />
        <path class="st2" d="M18.8,18.2c0.2,0.1,0.3,0.2,0.4,0.2c0.2,0,0.4-0.1,0.7-0.4c0.2-0.2,0.3-0.3,0.3-0.4c0.1-0.1,0-0.3-0.1-0.4
		c-0.1-0.1-0.2-0.1-0.3-0.1c-0.1,0-0.5,0.2-1.1,0.6c-0.4,0.2-0.8,0.4-1.1,0.4c-0.3,0-0.5-0.1-0.8-0.4c-0.3-0.3-0.4-0.7-0.4-1.1
		c0-0.4,0.3-0.8,0.7-1.2c0.4-0.4,0.8-0.6,1.2-0.7c0.4-0.1,0.8,0.1,1.2,0.4l-0.8,0.8c-0.1-0.1-0.2-0.2-0.3-0.2
		c-0.2,0-0.4,0.1-0.6,0.3c-0.2,0.2-0.3,0.3-0.3,0.4c0,0.1,0,0.2,0.1,0.3c0.1,0.1,0.2,0.1,0.3,0.1c0.1,0,0.5-0.2,1.1-0.6
		c0.4-0.2,0.8-0.3,1.1-0.3c0.3,0,0.6,0.1,0.8,0.4c0.3,0.3,0.4,0.7,0.4,1.1c0,0.4-0.3,0.9-0.8,1.3c-0.5,0.5-1,0.7-1.4,0.7
		c-0.4,0-0.8-0.1-1.1-0.5L18.8,18.2L18.8,18.2z" />
        <path class="st1" d="M23.4,13.6c0,0.1-0.1,0.2-0.1,0.2c0,0.1-0.1,0.1-0.2,0.2l-0.2,0.2c-0.2,0.2-0.3,0.3-0.3,0.4
		c-0.1,0.2-0.1,0.4,0.1,0.5c0.1,0.2,0.2,0.2,0.4,0.3c0.1,0,0.3,0,0.4-0.1c0.2-0.1,0.3-0.3,0.4-0.6c0.1-0.2,0-0.5-0.2-0.8L23.4,13.6
		L23.4,13.6z M22.6,13.5c0.2-0.1,0.3-0.3,0.3-0.3c0.1-0.1,0.1-0.3,0-0.4c-0.1-0.1-0.2-0.2-0.4-0.2c-0.1,0-0.3,0.1-0.5,0.2
		c-0.2,0.2-0.3,0.3-0.4,0.5c0,0.1,0,0.3,0.1,0.4l-0.9,0.6c-0.2-0.3-0.3-0.6-0.3-0.9c0-0.5,0.3-0.9,0.9-1.4c0.4-0.3,0.8-0.4,1.2-0.5
		c0.4-0.1,0.8,0.1,1.1,0.6l1.1,1.6c0.1,0.1,0.2,0.2,0.3,0.4c0.1,0.1,0.2,0.2,0.2,0.2c0.1,0,0.1,0,0.2,0l0.1,0.1l-1,0.7
		c-0.1-0.1-0.1-0.1-0.2-0.2c-0.1-0.1-0.1-0.1-0.2-0.2c0,0.2-0.1,0.5-0.2,0.7c-0.1,0.3-0.3,0.5-0.6,0.6c-0.3,0.2-0.7,0.3-1,0.3
		c-0.3,0-0.6-0.2-0.9-0.6c-0.3-0.4-0.4-0.9-0.2-1.3c0.1-0.2,0.3-0.5,0.7-0.8L22.6,13.5L22.6,13.5z" />
        <path class="st2" d="M28.1,8.8c0.4,0.1,0.7,0.4,0.9,0.9l1.2,2.7l-1.1,0.5l-1.1-2.4c-0.1-0.2-0.2-0.4-0.3-0.4
		c-0.2-0.2-0.4-0.2-0.7,0c-0.3,0.2-0.5,0.4-0.5,0.8c0,0.2,0.1,0.4,0.2,0.6l1,2.1l-1,0.5l-1.8-3.9l1-0.5l0.3,0.6
		c0-0.3,0.1-0.5,0.2-0.6C26.4,9.3,26.7,9.1,27,9C27.4,8.8,27.8,8.7,28.1,8.8L28.1,8.8z" />
        <path class="st1" d="M34.1,6.1l0.7,3.8l1.1-0.2c0.6-0.1,0.9-0.5,1-1.1c0.1-0.3,0.1-0.7,0-1.1c-0.1-0.6-0.3-1-0.5-1.3
		c-0.2-0.3-0.6-0.4-1.2-0.3L34.1,6.1L34.1,6.1z M36.1,4.8c0.4,0.1,0.8,0.2,1.1,0.5c0.3,0.2,0.5,0.5,0.6,0.9c0.1,0.3,0.2,0.6,0.3,0.9
		c0.1,0.8,0.1,1.4-0.1,2c-0.3,0.8-0.9,1.3-1.7,1.5l-2.5,0.5l-1.1-5.8l2.5-0.5C35.6,4.7,35.9,4.7,36.1,4.8L36.1,4.8z" />
        <path class="st1" d="M42.5,8.8c0.2-0.2,0.2-0.6,0.2-1c0-0.4-0.1-0.8-0.3-1c-0.2-0.2-0.4-0.3-0.8-0.3c-0.3,0-0.6,0.1-0.8,0.4
		c-0.2,0.2-0.2,0.6-0.2,1c0,0.4,0.1,0.8,0.3,1c0.2,0.2,0.4,0.3,0.8,0.3C42.1,9.2,42.3,9,42.5,8.8L42.5,8.8z M43.4,9.4
		c-0.4,0.5-0.9,0.7-1.6,0.7c-0.7,0-1.3-0.2-1.7-0.6c-0.4-0.4-0.6-1-0.6-1.6c0-0.6,0.1-1.2,0.5-1.6c0.4-0.5,0.9-0.7,1.6-0.7
		c0.7,0,1.3,0.2,1.7,0.6c0.4,0.4,0.6,1,0.6,1.6C44,8.4,43.8,8.9,43.4,9.4L43.4,9.4z" />
        <path class="st1" d="M47.8,9.1c0.2-0.2,0.3-0.5,0.4-0.9c0.1-0.4,0-0.7-0.1-1c-0.1-0.2-0.4-0.4-0.6-0.4c-0.4-0.1-0.7,0.1-0.9,0.4
		c-0.1,0.2-0.2,0.4-0.2,0.7c0,0.2,0,0.5,0,0.7c0.1,0.4,0.3,0.6,0.7,0.7C47.4,9.4,47.6,9.3,47.8,9.1L47.8,9.1z M47.8,6
		c0.3,0.2,0.4,0.4,0.6,0.7l0.1-0.6l1.1,0.2L49,10.3c-0.1,0.6-0.2,1-0.5,1.2c-0.4,0.4-1,0.6-1.9,0.5c-0.5-0.1-1-0.2-1.3-0.5
		c-0.3-0.3-0.5-0.6-0.4-1l1.2,0.2c0,0.1,0.1,0.2,0.1,0.3c0.1,0.1,0.3,0.2,0.6,0.2c0.4,0.1,0.7,0,0.9-0.3c0.1-0.2,0.2-0.4,0.3-0.9
		l0-0.3c-0.1,0.2-0.3,0.3-0.4,0.4c-0.2,0.1-0.6,0.2-0.9,0.1c-0.6-0.1-1-0.3-1.2-0.8c-0.3-0.4-0.4-1-0.3-1.6c0.1-0.6,0.3-1.2,0.7-1.5
		c0.4-0.4,0.9-0.5,1.4-0.5C47.5,5.8,47.7,5.9,47.8,6L47.8,6z M48.7,5.2c-0.3,0.2-0.6,0.2-1,0.1c-0.4-0.1-0.7-0.2-0.9-0.4
		c-0.2-0.2-0.3-0.5-0.3-0.9l0.5,0.1c0,0.2,0.1,0.4,0.3,0.5c0.1,0.1,0.3,0.1,0.4,0.1c0.2,0,0.3,0,0.5,0c0.2-0.1,0.4-0.2,0.4-0.4
		l0.5,0.1C49.2,4.8,49,5.1,48.7,5.2L48.7,5.2z" />
        <path class="st2" d="M53.7,7.1C53.7,7.1,53.8,7.2,53.7,7.1l-0.2,1.2c-0.1,0-0.1,0-0.2-0.1c-0.1,0-0.1,0-0.1,0
		c-0.4-0.1-0.8-0.1-1,0.2c-0.1,0.1-0.2,0.4-0.3,0.7l-0.5,2l-1.1-0.3l1.1-4.2l1,0.3l-0.2,0.7c0.2-0.2,0.4-0.4,0.6-0.5
		C53,7.1,53.3,7,53.7,7.1C53.7,7.1,53.7,7.1,53.7,7.1L53.7,7.1z" />
        <path class="st1" d="M56.5,10.6c-0.1,0-0.2,0-0.2,0c-0.1,0-0.2,0-0.3,0l-0.3-0.1c-0.2-0.1-0.4-0.1-0.5,0c-0.2,0-0.3,0.1-0.4,0.3
		c-0.1,0.2-0.1,0.3,0,0.5c0.1,0.1,0.2,0.2,0.3,0.3c0.2,0.1,0.5,0.1,0.7,0.1c0.2-0.1,0.4-0.3,0.6-0.6L56.5,10.6L56.5,10.6z M56.1,9.9
		c0.2,0.1,0.4,0.1,0.5,0.1c0.2,0,0.3-0.1,0.3-0.2c0.1-0.2,0.1-0.3,0-0.4c-0.1-0.1-0.2-0.2-0.5-0.3c-0.2-0.1-0.4-0.1-0.6,0
		c-0.1,0.1-0.2,0.2-0.3,0.3l-1-0.4c0.2-0.3,0.4-0.6,0.6-0.7c0.4-0.2,1-0.2,1.6,0c0.4,0.2,0.8,0.4,1.1,0.7c0.3,0.3,0.3,0.7,0.1,1.2
		L57.2,12c-0.1,0.1-0.1,0.3-0.2,0.5c0,0.1-0.1,0.2-0.1,0.3c0,0.1,0,0.1,0.1,0.2L57,13.1l-1.1-0.5c0-0.1,0-0.2,0-0.3
		c0-0.1,0-0.2,0.1-0.3c-0.2,0.1-0.4,0.2-0.7,0.2c-0.3,0-0.6,0-0.8-0.1c-0.4-0.1-0.6-0.4-0.8-0.7c-0.2-0.3-0.2-0.6,0-1
		c0.2-0.5,0.5-0.8,1-0.8c0.3,0,0.6,0,1,0.1L56.1,9.9L56.1,9.9z" />
        <path class="st2" d="M64.9,12.8c0.1,0.2,0.2,0.4,0.2,0.6c0,0.2,0,0.4-0.1,0.6c-0.1,0.1-0.2,0.3-0.3,0.6l-1.5,2.3l-1-0.6l1.5-2.3
		c0.1-0.1,0.1-0.3,0.2-0.4c0-0.2-0.1-0.4-0.3-0.6c-0.3-0.2-0.5-0.2-0.8,0c-0.1,0.1-0.2,0.2-0.3,0.4l-1.4,2.2l-1-0.6l1.4-2.2
		c0.1-0.2,0.2-0.4,0.2-0.5c0-0.2-0.1-0.4-0.3-0.6c-0.3-0.2-0.5-0.2-0.7-0.1c-0.1,0.1-0.2,0.2-0.4,0.4L59,14.1l-1-0.6l2.4-3.6
		l0.9,0.6L60.9,11c0.2-0.1,0.4-0.2,0.6-0.2c0.3,0,0.6,0.1,0.9,0.3c0.3,0.2,0.5,0.4,0.6,0.6c0.1,0.2,0.1,0.4,0,0.6
		c0.3-0.1,0.5-0.2,0.8-0.2c0.3,0,0.5,0.1,0.8,0.3C64.7,12.5,64.8,12.7,64.9,12.8L64.9,12.8z" />
        <path class="st1" d="M67.4,17.9c-0.1,0-0.2,0-0.2-0.1c-0.1,0-0.2-0.1-0.3-0.1l-0.2-0.1c-0.2-0.1-0.4-0.2-0.5-0.2
		c-0.2,0-0.4,0-0.5,0.2c-0.1,0.1-0.2,0.3-0.2,0.4c0,0.1,0.1,0.3,0.2,0.4c0.2,0.2,0.4,0.3,0.6,0.3c0.2,0,0.5-0.1,0.8-0.4L67.4,17.9
		L67.4,17.9z M67.2,17.1c0.2,0.1,0.3,0.2,0.4,0.2c0.2,0.1,0.3,0,0.4-0.1c0.1-0.1,0.2-0.3,0.1-0.4c0-0.1-0.2-0.3-0.3-0.4
		c-0.2-0.2-0.4-0.3-0.6-0.2c-0.1,0-0.3,0.1-0.4,0.2l-0.8-0.7c0.3-0.3,0.6-0.4,0.9-0.5c0.5-0.1,1,0.1,1.5,0.6
		c0.3,0.3,0.6,0.7,0.7,1.1c0.1,0.4,0,0.8-0.3,1.2l-1.4,1.5c-0.1,0.1-0.2,0.2-0.3,0.4C67.1,19.9,67,20,67,20.1c0,0.1,0,0.1,0,0.2
		l-0.1,0.1L66,19.6c0-0.1,0.1-0.2,0.1-0.2c0-0.1,0.1-0.1,0.2-0.2c-0.2,0-0.5,0-0.7-0.1c-0.3-0.1-0.5-0.2-0.8-0.4
		c-0.3-0.3-0.4-0.6-0.5-0.9c0-0.3,0.1-0.7,0.4-1c0.4-0.4,0.8-0.5,1.2-0.4c0.3,0.1,0.6,0.2,0.9,0.5L67.2,17.1L67.2,17.1z" />
        <path class="st2" d="M71.4,21.5c0.1-0.1,0.2-0.3,0.2-0.4c0.1-0.2,0-0.4-0.2-0.6c-0.2-0.3-0.6-0.4-0.9-0.3c-0.2,0.1-0.4,0.2-0.7,0.4
		c-0.2,0.2-0.4,0.4-0.5,0.6c-0.2,0.3-0.2,0.6,0.1,0.9c0.2,0.2,0.3,0.3,0.5,0.3c0.2,0,0.4-0.1,0.6-0.2l0.7,0.9
		c-0.3,0.2-0.6,0.3-1,0.3c-0.6,0-1.1-0.2-1.6-0.8c-0.4-0.5-0.6-1.1-0.5-1.6c0.1-0.5,0.4-1,0.9-1.4c0.6-0.5,1.1-0.7,1.7-0.7
		c0.6,0,1,0.3,1.4,0.8c0.3,0.4,0.5,0.8,0.6,1.3c0,0.4-0.2,0.9-0.6,1.3L71.4,21.5L71.4,21.5z" />
        <polygon class="st2" points="74.1,22.7 74.7,23.7 71.1,26 70.4,25 74.1,22.7 	" />
        <path class="st4" d="M42.7,70.3C61.9,63.9,63.3,43,63.1,24.2c-1.9-0.2-4-0.4-6.2-0.6c-8-0.9-12.8-4.1-14.2-5.2
		c-1.4,1.1-6.2,4.3-14.2,5.2c-2.1,0.2-4.2,0.5-6.2,0.6C22.1,43,23.5,63.9,42.7,70.3L42.7,70.3z" />
        <path class="st5" d="M23.8,25.6c1.6-0.1,3.3-0.3,4.9-0.5c7.1-0.8,11.8-3.4,14-4.8c2.1,1.4,6.8,4,14,4.8c1.7,0.2,3.3,0.4,4.9,0.5
		c0.1,18.4-1.7,36.9-18.9,42.9C25.5,62.4,23.7,43.9,23.8,25.6L23.8,25.6z" />
        <path class="st6" d="M42.7,67.5c-15.9-5.9-18-22.8-18-41.2c1.3-0.1,2.5-0.3,3.8-0.4c6.9-0.8,11.6-3.1,14.2-4.6
		c2.6,1.6,7.3,3.9,14.2,4.6c1.3,0.2,2.6,0.3,3.8,0.4C60.7,44.7,58.6,61.6,42.7,67.5L42.7,67.5z" />
        <g>
            <defs>
                <path id="SVGID_1_" d="M42.7,67.5c-15.9-5.9-18-22.8-18-41.2c1.3-0.1,2.5-0.3,3.8-0.4c6.9-0.8,11.6-3.1,14.2-4.6
				c2.6,1.6,7.3,3.9,14.2,4.6c1.3,0.2,2.6,0.3,3.8,0.4C60.7,44.7,58.6,61.6,42.7,67.5L42.7,67.5z" />
            </defs>
            <clipPath id="SVGID_2_">
                <use xlink:href="#SVGID_1_" style="overflow:visible;" />
            </clipPath>
            <polygon class="st7" points="58.4,20 61.4,22.2 42.7,57.3 42.7,57.3 58.4,20 		" />
        </g>
        <g>
            <defs>
                <polygon id="SVGID_3_" points="58.4,20 61.4,22.2 42.7,57.3 42.7,57.3 58.4,20 			" />
            </defs>
            <defs>
                <path id="SVGID_4_" d="M42.7,67.5c-15.9-5.9-18-22.8-18-41.2c1.3-0.1,2.5-0.3,3.8-0.4c6.9-0.8,11.6-3.1,14.2-4.6
				c2.6,1.6,7.3,3.9,14.2,4.6c1.3,0.2,2.6,0.3,3.8,0.4C60.7,44.7,58.6,61.6,42.7,67.5L42.7,67.5z" />
            </defs>
            <clipPath id="SVGID_5_">
                <use xlink:href="#SVGID_3_" style="overflow:visible;" />
            </clipPath>
            <clipPath id="SVGID_6_" class="st8">
                <use xlink:href="#SVGID_4_" style="overflow:visible;" />
            </clipPath>
            <polygon class="st9" points="55,28.8 55,29.9 57.2,29.9 57.2,28.8 55,28.8 		" />
        </g>
        <g>
            <defs>
                <path id="SVGID_7_" d="M42.7,67.5c-15.9-5.9-18-22.8-18-41.2c1.3-0.1,2.5-0.3,3.8-0.4c6.9-0.8,11.6-3.1,14.2-4.6
				c2.6,1.6,7.3,3.9,14.2,4.6c1.3,0.2,2.6,0.3,3.8,0.4C60.7,44.7,58.6,61.6,42.7,67.5L42.7,67.5z" />
            </defs>
            <clipPath id="SVGID_8_">
                <use xlink:href="#SVGID_7_" style="overflow:visible;" />
            </clipPath>
            <polygon class="st10" points="58.4,20 61.4,22.2 42.7,57.3 42.7,57.3 58.4,20 		" />
            <polygon class="st11" points="40.8,15.6 44.6,15.6 42.7,57.3 42.7,57.3 40.8,15.6 		" />
            <polygon class="st11" points="45.4,15.6 49.1,16.2 42.7,57.3 42.7,57.3 45.4,15.6 		" />
            <polygon class="st11" points="50,16.4 53.5,17.6 42.7,57.3 42.7,57.3 50,16.4 		" />
            <polygon class="st11" points="54.4,17.9 57.7,19.6 42.7,57.3 42.7,57.3 54.4,17.9 		" />
            <polygon class="st11" points="62.1,22.8 64.7,25.5 42.7,57.3 42.7,57.3 62.1,22.8 		" />
            <polygon class="st11" points="65.3,26.2 67.4,29.2 42.7,57.3 42.7,57.3 65.3,26.2 		" />
            <polygon class="st11" points="67.8,29.9 69.5,33.2 42.7,57.3 42.7,57.3 67.8,29.9 		" />
            <polygon class="st11" points="69.9,34.1 71,37.7 42.7,57.3 42.7,57.3 69.9,34.1 		" />
            <polygon class="st11" points="71.2,38.6 71.7,42.3 42.7,57.3 42.7,57.3 71.2,38.6 		" />
            <polygon class="st11" points="71.8,43.2 71.6,46.9 42.7,57.3 42.7,57.3 71.8,43.2 		" />
            <polygon class="st11" points="71.6,47.8 70.9,51.4 42.7,57.3 42.7,57.3 71.6,47.8 		" />
            <polygon class="st11" points="70.7,52.2 69.5,55.3 42.7,57.3 42.7,57.3 70.7,52.2 		" />
            <polygon class="st11" points="69.1,56.2 67.3,59.7 42.7,57.3 42.7,57.3 69.1,56.2 		" />
            <polygon class="st11" points="40,15.6 36.3,16.2 42.7,57.3 42.7,57.3 40,15.6 		" />
            <polygon class="st11" points="35.5,16.4 31.9,17.6 42.7,57.3 42.7,57.3 35.5,16.4 		" />
            <polygon class="st11" points="31,17.9 27.7,19.6 42.7,57.3 42.7,57.3 31,17.9 		" />
            <polygon class="st12" points="27,20 24,22.2 42.7,57.3 42.7,57.3 27,20 		" />
        </g>
        <g>
            <defs>
                <polygon id="SVGID_9_" points="27,20 24,22.2 42.7,57.3 42.7,57.3 27,20 			" />
            </defs>
            <defs>
                <path id="SVGID_10_" d="M42.7,67.5c-15.9-5.9-18-22.8-18-41.2c1.3-0.1,2.5-0.3,3.8-0.4c6.9-0.8,11.6-3.1,14.2-4.6
				c2.6,1.6,7.3,3.9,14.2,4.6c1.3,0.2,2.6,0.3,3.8,0.4C60.7,44.7,58.6,61.6,42.7,67.5L42.7,67.5z" />
            </defs>
            <clipPath id="SVGID_11_">
                <use xlink:href="#SVGID_9_" style="overflow:visible;" />
            </clipPath>
            <clipPath id="SVGID_12_" class="st13">
                <use xlink:href="#SVGID_10_" style="overflow:visible;" />
            </clipPath>
            <polygon class="st14" points="30.3,28.8 30.3,29.9 28.3,29.9 28.3,28.8 30.3,28.8 		" />
        </g>
        <g>
            <defs>
                <path id="SVGID_13_" d="M42.7,67.5c-15.9-5.9-18-22.8-18-41.2c1.3-0.1,2.5-0.3,3.8-0.4c6.9-0.8,11.6-3.1,14.2-4.6
				c2.6,1.6,7.3,3.9,14.2,4.6c1.3,0.2,2.6,0.3,3.8,0.4C60.7,44.7,58.6,61.6,42.7,67.5L42.7,67.5z" />
            </defs>
            <clipPath id="SVGID_14_">
                <use xlink:href="#SVGID_13_" style="overflow:visible;" />
            </clipPath>
            <polygon class="st15" points="27,20 24,22.2 42.7,57.3 42.7,57.3 27,20 		" />
            <polygon class="st16" points="23.3,22.8 20.7,25.5 42.7,57.3 42.7,57.3 23.3,22.8 		" />
            <polygon class="st16" points="20.1,26.2 18,29.2 42.7,57.3 42.7,57.3 20.1,26.2 		" />
            <polygon class="st16" points="17.6,29.9 15.9,33.2 42.7,57.3 42.7,57.3 17.6,29.9 		" />
            <polygon class="st16" points="15.5,34.1 14.4,37.7 42.7,57.3 42.7,57.3 15.5,34.1 		" />
            <polygon class="st16" points="14.2,38.6 13.7,42.3 42.7,57.3 42.7,57.3 14.2,38.6 		" />
            <polygon class="st16" points="13.7,43.2 13.8,46.9 42.7,57.3 42.7,57.3 13.7,43.2 		" />
            <polygon class="st16" points="13.8,47.8 14.5,51.4 42.7,57.3 42.7,57.3 13.8,47.8 		" />
            <polygon class="st16" points="14.7,52.2 15.9,55.3 42.7,57.3 42.7,57.3 14.7,52.2 		" />
            <polygon class="st16" points="16.3,56.2 18.1,59.7 42.7,57.3 42.7,57.3 16.3,56.2 		" />
            <path class="st17" d="M54.7,57.9c-2.7,4.3-6.5,7.6-12,9.6c-5.5-2-9.4-5.3-12.1-9.6H54.7L54.7,57.9z" />
            <path class="st18" d="M33.4,57.5c0-5.1,4.2-9.3,9.3-9.3c5.1,0,9.3,4.2,9.3,9.3H33.4L33.4,57.5z" />
        </g>
        <path class="st19" d="M42.7,67.5c-15.9-5.9-18-22.8-18-41.2c1.3-0.1,2.5-0.3,3.8-0.4c6.9-0.8,11.6-3.1,14.2-4.6
		c2.6,1.6,7.3,3.9,14.2,4.6c1.3,0.2,2.6,0.3,3.8,0.4C60.7,44.7,58.6,61.6,42.7,67.5L42.7,67.5z" />
        <path class="st20" d="M42.7,70.1c19-6.4,20.4-27,20.2-45.7c-1.9-0.2-4-0.4-6.1-0.6c-7.9-0.9-12.7-4.1-14.1-5.1
		c-1.4,1.1-6.2,4.2-14.1,5.1c-2.1,0.2-4.2,0.5-6.1,0.6C22.3,43,23.7,63.7,42.7,70.1L42.7,70.1z" />
        <path class="st21" d="M33.7,57.4c0-4.8,4.1-8.9,8.9-9l0.1,0l0,0l0,0c4.8,0,8.9,4.1,8.9,9c0,0.1,0,0.2,0,0.3h-18
		C33.7,57.6,33.7,57.5,33.7,57.4L33.7,57.4L33.7,57.4z" />
        <polygon class="st22" points="27.7,28.4 30.2,28.5 31,30.1 28.6,30.2 27.7,28.4 	" />
        <polygon class="st22" points="56.8,28.1 55.1,28.4 54.6,29.8 56.9,30.2 58,28 56.8,28.1 	" />
        <path class="st23" d="M26.9,37.5c0-0.6,0-5.8,0-5.8v-1.1c0,0-0.2-1.5,1.5-1.5c1.8,0,2,1.1,1,1.1l-1.1,0.1c0,0-0.5,0-0.5,0.9
		c0,1.1,0,6.3,0,6.3H26.9L26.9,37.5z" />
        <path class="st21" d="M26.9,37.4c0-0.6,0-5.8,0-5.8v-1.1c0,0-0.2-1.5,1.5-1.5c1.8,0,2,1.1,1,1.1l-1.1,0.1c0,0-0.5,0-0.5,0.9
		c0,1.1,0,6.3,0,6.3H26.9L26.9,37.4z" />
        <path class="st23" d="M58.5,37.5c0-0.6,0-5.8,0-5.8v-1.1c0,0,0.2-1.5-1.5-1.5c-1.8,0-2,1.1-1,1.1l1.1,0.1c0,0,0.5,0,0.5,0.9
		c0,1.1,0,6.3,0,6.3H58.5L58.5,37.5z" />
        <path class="st21" d="M58.5,37.4c0-0.6,0-5.8,0-5.8v-1.1c0,0,0.2-1.5-1.5-1.5c-1.8,0-2,1.1-1,1.1l1.1,0.1c0,0,0.5,0,0.5,0.9
		c0,1.1,0,6.3,0,6.3H58.5L58.5,37.4z" />
        <path class="st6" d="M28.7,31h27.9c0.5,0,0.9,0.4,0.9,0.9v7.7c0,0.5-0.4,0.9-0.9,0.9H28.7c-0.5,0-0.9-0.4-0.9-0.9v-7.7
		C27.8,31.4,28.2,31,28.7,31L28.7,31z" />
        <polygon class="st24" points="28.5,31.6 56.9,31.6 56.9,39.8 28.5,39.8 28.5,31.6 	" />
        <path class="st25" d="M31.5,36.1h1.1c0.2,0,0.7,0.2,0.7,0.7c0,0.4-0.3,0.7-0.8,0.7h-1V36.1L31.5,36.1z M31.5,34.1h1
		c0.3,0,0.7,0.1,0.7,0.6c0,0.4-0.3,0.7-0.7,0.7h-0.9V34.1L31.5,34.1z M30.5,38.2h2.3c0.9,0,1.5-0.5,1.5-1.2c0-0.8-0.4-1.2-1-1.3v0
		c0.6-0.2,0.9-0.6,0.9-1.2c0-0.8-0.6-1.1-1.2-1.1h-2.5V38.2L30.5,38.2z" />
        <path class="st25" d="M35.3,38.2h1v-3.5h-1V38.2L35.3,38.2z M35.3,34h1v-0.7h-1V34L35.3,34z" />
        <polygon class="st6" points="37.5,38.2 38.5,38.2 38.5,33.4 37.5,33.4 37.5,38.2 	" />
        <path class="st25" d="M39.6,38.2h1v-4.8h-1V38.2L39.6,38.2z M40.7,36.2l1.4,2h1.1l-1.5-2l1.3-1.6h-1.1L40.7,36.2L40.7,36.2z" />
        <path class="st25" d="M46.9,37.4c-0.4,0.1-0.8,0.2-1.2,0.2c-0.6,0-1.1-0.4-1.1-1v-0.1h2.6v-0.3c0-1.1-0.8-1.6-1.7-1.6
		c-1.2,0-1.8,0.8-1.8,1.9c0,1.1,0.7,1.9,2,1.9c0.5,0,0.9,0,1.2-0.1L46.9,37.4L46.9,37.4z M44.6,36c0-0.5,0.3-0.8,0.8-0.8
		c0.5,0,0.8,0.3,0.8,0.8H44.6L44.6,36z" />
        <path class="st6" d="M49,34.6h-1v3.5h1v-1.4c0-1.1,0.3-1.5,1-1.5c0.4,0,0.7,0.2,0.7,0.6v2.3h1v-2.5c0-0.9-0.6-1.1-1.4-1.1
		c-0.6,0-1.1,0.2-1.3,0.7l0,0V34.6L49,34.6z" />
        <path class="st6" d="M54,34.6v-0.8L53,34v0.6h-0.5v0.7H53v2c0,0.7,0.4,0.9,1.1,0.9c0.3,0,0.5,0,0.8-0.1l0.1-0.7
		c-0.2,0-0.3,0.1-0.5,0.1c-0.4,0-0.4-0.2-0.4-0.6v-1.6h0.9v-0.7H54L54,34.6z" />
        <path class="st6" d="M37.5,53.7v-0.4c0.2,0,0.3,0,0.4,0c0.1,0,0.2-0.1,0.3-0.2c0.1-0.1,0.1-0.1,0.1-0.2c0-0.1,0-0.1,0-0.1H39v3.2
		h-0.7v-2.2H37.5L37.5,53.7z" />
        <path class="st25" d="M40.2,53c0.2-0.2,0.5-0.3,0.8-0.3c0.5,0,0.8,0.2,1,0.7c0.1,0.2,0.2,0.6,0.2,1c0,0.4-0.1,0.7-0.2,1
		c-0.2,0.5-0.5,0.8-1.1,0.8c-0.2,0-0.5-0.1-0.7-0.2c-0.2-0.1-0.3-0.4-0.3-0.6h0.6c0,0.1,0.1,0.2,0.1,0.2c0.1,0.1,0.2,0.1,0.3,0.1
		c0.2,0,0.4-0.1,0.4-0.3c0-0.1,0.1-0.3,0.1-0.6c-0.1,0.1-0.1,0.1-0.2,0.2c-0.1,0.1-0.3,0.1-0.4,0.1c-0.3,0-0.5-0.1-0.7-0.3
		c-0.2-0.2-0.3-0.4-0.3-0.8C39.9,53.5,40,53.2,40.2,53L40.2,53z M41.3,54.3c0.1-0.1,0.2-0.3,0.2-0.5c0-0.2,0-0.3-0.1-0.4
		c-0.1-0.1-0.2-0.2-0.4-0.2c-0.1,0-0.2,0-0.3,0.1c-0.1,0.1-0.2,0.3-0.2,0.5c0,0.2,0,0.3,0.1,0.4c0.1,0.1,0.2,0.1,0.4,0.1
		C41.1,54.4,41.2,54.3,41.3,54.3L41.3,54.3z" />
        <path class="st25" d="M43.5,55.4c0.1,0.1,0.2,0.1,0.3,0.1c0.1,0,0.3,0,0.3-0.1c0.1-0.1,0.1-0.2,0.1-0.4c0-0.2,0-0.3-0.1-0.4
		c-0.1-0.1-0.2-0.1-0.3-0.1c-0.1,0-0.3,0-0.3,0.1c-0.1,0.1-0.1,0.2-0.1,0.4C43.4,55.2,43.5,55.3,43.5,55.4L43.5,55.4z M42.9,54.5
		c0.1-0.1,0.2-0.3,0.4-0.3c-0.2-0.1-0.3-0.2-0.3-0.3c0-0.1-0.1-0.2-0.1-0.3c0-0.2,0.1-0.4,0.3-0.6c0.2-0.2,0.4-0.3,0.8-0.3
		c0.3,0,0.6,0.1,0.8,0.3c0.2,0.2,0.3,0.4,0.3,0.6c0,0.1,0,0.2-0.1,0.3c0,0.1-0.1,0.2-0.3,0.3c0.2,0.1,0.3,0.2,0.4,0.4
		C45,54.7,45,54.9,45,55c0,0.3-0.1,0.5-0.3,0.7c-0.2,0.2-0.5,0.3-0.8,0.3c-0.4,0-0.6-0.1-0.8-0.3c-0.2-0.2-0.3-0.4-0.3-0.7
		C42.7,54.9,42.8,54.7,42.9,54.5L42.9,54.5z M43.6,53.9c0.1,0.1,0.2,0.1,0.3,0.1c0.1,0,0.2,0,0.3-0.1c0.1-0.1,0.1-0.2,0.1-0.3
		c0-0.1,0-0.2-0.1-0.3c-0.1-0.1-0.2-0.1-0.3-0.1c-0.1,0-0.2,0-0.3,0.1c-0.1,0.1-0.1,0.2-0.1,0.3C43.5,53.7,43.5,53.8,43.6,53.9
		L43.6,53.9z" />
        <path class="st25" d="M47.9,55.2h-0.4v0.7h-0.6v-0.7h-1.3v-0.6l1.2-2h0.7v2h0.4V55.2L47.9,55.2z M46.9,54.7v-1.4l-0.8,1.4H46.9
		L46.9,54.7z" />
    </g>
</svg>