<svg version="1.1" id="Layer_1" xmlns="http://www.w3.org/2000/svg" xmlns:xlink="http://www.w3.org/1999/xlink" x="0px" y="0px" width="100%" viewBox="0 0 225 225" enable-background="new 0 0 225 225" xml:space="preserve">
	<path fill="#FDFDFE" opacity="1.000000" stroke="none" d="
M1.000000,101.000000 
	C1.000000,67.739731 1.000000,34.479462 1.000000,1.000000 
	C34.020573,1.000000 67.041626,1.000000 100.373657,1.369236 
	C98.727448,2.109099 96.778488,2.531818 94.811867,2.842704 
	C50.063614,9.916545 13.146544,45.188007 3.803497,89.755142 
	C3.011445,93.533295 1.941073,97.253090 1.000000,101.000000 
z" />
	<path fill="#FDFDFF" opacity="1.000000" stroke="none" d="
M124.000000,1.000000 
	C157.926208,1.000000 191.852417,1.000000 226.000000,1.000000 
	C226.000000,34.020565 226.000000,67.041626 225.627594,100.368561 
	C219.008759,53.006081 186.809402,16.530729 140.167145,4.417846 
	C134.841415,3.034765 129.392044,2.127753 124.000000,1.000000 
z" />
	<path fill="#FDFDFF" opacity="1.000000" stroke="none" d="
M100.000000,226.000000 
	C67.072693,226.000000 34.145393,226.000000 1.000000,226.000000 
	C1.000000,192.979431 1.000000,159.958374 1.369031,126.626541 
	C1.857398,126.968536 1.982478,127.620316 2.095250,128.274216 
	C10.275890,175.708862 37.156349,206.967239 83.059601,221.659134 
	C88.601776,223.432968 94.348228,224.568588 100.000000,226.000000 
z" />
	<path fill="#FDFDFE" opacity="1.000000" stroke="none" d="
M226.000000,127.000000 
	C226.000000,159.928024 226.000000,192.856049 226.000000,226.000000 
	C192.312744,226.000000 158.625031,226.000000 124.637543,225.615646 
	C125.990227,225.115067 127.653770,225.083954 129.293518,224.870193 
	C173.094116,219.160049 210.913193,185.614365 222.066635,142.586884 
	C223.411194,137.399918 224.690475,132.196045 226.000000,127.000000 
z" />
	<path fill="#0C16D1" opacity="1.000000" stroke="none" d="
M226.000000,126.531349 
	C224.690475,132.196045 223.411194,137.399918 222.066635,142.586884 
	C210.913193,185.614365 173.094116,219.160049 129.293518,224.870193 
	C127.653770,225.083954 125.990227,225.115067 124.168884,225.615646 
	C116.312424,226.000000 108.624847,226.000000 100.468636,226.000000 
	C94.348228,224.568588 88.601776,223.432968 83.059601,221.659134 
	C37.156349,206.967239 10.275890,175.708862 2.095250,128.274216 
	C1.982478,127.620316 1.857398,126.968536 1.369031,126.157883 
	C1.000000,117.979103 1.000000,109.958199 1.000000,101.468651 
	C1.941073,97.253090 3.011445,93.533295 3.803497,89.755142 
	C13.146544,45.188007 50.063614,9.916545 94.811867,2.842704 
	C96.778488,2.531818 98.727448,2.109099 100.842316,1.369236 
	C108.354256,1.000000 115.708504,1.000000 123.531380,1.000000 
	C129.392044,2.127753 134.841415,3.034765 140.167145,4.417846 
	C186.809402,16.530729 219.008759,53.006081 225.627594,100.837219 
	C226.000000,109.354233 226.000000,117.708466 226.000000,126.531349 
M18.428101,167.011993 
	C41.863800,208.612854 89.517349,230.089142 135.104767,220.557755 
	C195.780609,207.871643 233.617523,149.426163 219.797440,89.053299 
	C206.406586,30.555506 149.609741,-5.168752 92.426308,6.618951 
	C19.053452,21.743914 -17.058172,100.138947 18.428101,167.011993 
z" />
	<path fill="#F6F7FB" opacity="1.000000" stroke="none" d="
M18.246021,166.688263 
	C-17.058172,100.138947 19.053452,21.743914 92.426308,6.618951 
	C149.609741,-5.168752 206.406586,30.555506 219.797440,89.053299 
	C233.617523,149.426163 195.780609,207.871643 135.104767,220.557755 
	C89.517349,230.089142 41.863800,208.612854 18.246021,166.688263 
M27.164867,168.272095 
	C52.296970,204.726822 86.775192,220.731781 130.689087,214.124832 
	C187.772690,205.536453 226.379807,147.860062 213.477554,91.655380 
	C200.064972,33.227581 143.627945,0.490319 88.389374,14.508532 
	C20.641085,31.701410 -9.683105,108.763054 27.164867,168.272095 
z" />
	<path fill="#041AD0" opacity="1.000000" stroke="none" d="
M27.001530,167.947372 
	C-9.683105,108.763054 20.641085,31.701410 88.389374,14.508532 
	C143.627945,0.490319 200.064972,33.227581 213.477554,91.655380 
	C226.379807,147.860062 187.772690,205.536453 130.689087,214.124832 
	C86.775192,220.731781 52.296970,204.726822 27.001530,167.947372 
M167.067917,86.202019 
	C166.824799,86.251953 166.581665,86.301895 166.338547,86.351830 
	C166.534592,86.590500 166.730621,86.829163 167.017853,87.708626 
	C167.132843,89.943336 167.247849,92.178047 167.331451,93.802811 
	C169.081451,94.289413 171.543930,94.974121 173.413162,95.493874 
	C174.696396,93.915573 176.309479,91.931587 177.504883,90.461327 
	C176.252899,88.816261 174.670624,86.737175 173.582611,85.307549 
	C171.681274,85.670876 169.587799,86.070908 167.067917,86.202019 
M97.196007,136.150391 
	C97.196007,138.408920 97.196007,140.667450 97.196007,142.986176 
	C108.399788,142.986176 119.026062,142.986176 129.928772,142.986176 
	C129.928772,140.141037 129.928772,137.679810 129.453796,134.525726 
	C119.159561,134.383530 108.865448,134.224731 98.570709,134.150406 
	C98.079384,134.146866 97.582664,134.890182 97.196007,136.150391 
M137.440750,118.477066 
	C136.971268,118.330627 136.502090,118.057274 136.032257,118.056160 
	C121.399338,118.021294 106.766273,117.990562 92.133583,118.048416 
	C91.097694,118.052505 90.064507,118.738747 88.996521,119.994148 
	C89.011398,122.951164 89.026276,125.908188 89.560432,129.523575 
	C90.195946,129.678940 90.831184,129.968613 91.467010,129.969910 
	C105.770103,129.999069 120.073410,130.023560 134.376175,129.950760 
	C135.572342,129.944687 136.764984,129.243240 137.988144,127.981888 
	C137.978714,125.033272 137.969299,122.084656 137.440750,118.477066 
M147.712479,154.300766 
	C119.415024,168.922195 86.001282,164.526001 63.638695,142.956680 
	C49.234234,129.063187 41.574944,111.959969 41.058838,91.900673 
	C40.548756,72.075264 47.762741,54.994251 60.645077,40.067863 
	C26.308941,64.205894 13.179213,109.277153 30.310963,148.839005 
	C39.171394,169.300171 53.720718,184.729034 73.747803,194.467789 
	C92.236214,203.458313 112.149689,207.550140 132.176804,202.472244 
	C153.370316,197.098618 172.027954,186.352737 185.520493,168.168030 
	C198.925720,150.100967 204.863861,129.949585 204.053680,107.490501 
	C203.159531,82.704147 181.858383,44.001118 167.240051,41.498169 
	C198.447296,78.467651 189.810181,130.070770 147.712479,154.300766 
M90.996124,53.586311 
	C92.805656,62.178310 94.552589,70.784126 96.444969,79.357841 
	C97.900269,85.951332 97.690834,89.658279 96.010658,92.191589 
	C92.963364,86.807686 89.130653,81.177429 86.482613,75.036339 
	C83.838776,68.905006 82.381287,62.262115 80.564095,56.364063 
	C76.238968,62.785950 75.879944,70.443527 79.048737,78.579155 
	C80.956062,83.476074 82.422462,88.544739 84.087013,93.536217 
	C83.566597,93.827217 83.046181,94.118217 82.525764,94.409210 
	C80.035088,92.219795 77.544411,90.030373 74.053627,86.961815 
	C75.405807,92.588547 76.035080,97.389496 77.731079,101.778206 
	C80.632210,109.285378 86.124969,113.270561 94.646263,113.080635 
	C107.636665,112.791092 120.639778,112.886902 133.634506,113.053139 
	C140.348938,113.139038 145.126724,110.304771 148.293915,104.573402 
	C153.128586,95.824516 154.479309,86.052696 151.241028,77.060928 
	C147.080338,65.507843 140.728226,54.743954 135.320160,43.640083 
	C134.806564,43.721840 134.292969,43.803600 133.779373,43.885357 
	C134.444473,49.191662 134.822983,54.555603 135.874496,59.784187 
	C136.586426,63.324276 138.363602,66.636658 139.457596,70.115891 
	C142.823349,80.820129 139.499939,89.859863 131.414627,93.136856 
	C131.613434,89.846230 132.541489,86.244278 131.879868,82.962814 
	C130.545914,76.346680 128.668182,69.791885 126.424522,63.419601 
	C123.584221,55.352783 120.801697,47.296772 122.078117,38.643902 
	C122.810867,33.676586 124.462112,28.844761 125.699875,23.951941 
	C125.429955,23.650900 125.160034,23.349859 124.890114,23.048819 
	C122.248245,25.544403 119.027351,27.657211 117.075874,30.609194 
	C111.770248,38.634968 111.068031,47.787636 112.542664,57.017971 
	C113.482521,62.900909 115.409241,68.619110 116.635948,74.465210 
	C117.968361,80.815041 118.322121,87.132217 114.860466,92.220154 
	C111.001106,82.845451 106.926369,73.338272 103.167145,63.707920 
	C99.291191,53.778542 98.792137,43.946182 105.085808,34.606964 
	C105.517807,33.965912 105.557770,33.060669 105.948196,31.686432 
	C97.125069,36.597713 91.339348,42.740292 90.996124,53.586311 
M114.397186,157.860992 
	C122.535713,157.859207 122.536873,157.857971 121.680038,149.904724 
	C116.189392,149.904724 110.693802,149.904724 105.297333,149.904724 
	C105.297333,152.680664 105.297333,155.084412 105.297333,157.860947 
	C108.226562,157.860947 110.836777,157.860947 114.397186,157.860992 
M167.226822,111.662086 
	C165.906174,110.858818 164.585541,110.055542 163.928848,109.656120 
	C162.475555,112.278313 161.072357,114.810074 159.953827,116.828239 
	C161.923050,118.124580 163.990250,119.485420 165.647568,120.576439 
	C167.598373,119.530563 169.889374,118.302315 171.419434,117.482018 
	C171.048187,115.657372 170.803177,113.742271 170.188980,111.953987 
	C170.042648,111.527946 168.662537,111.525673 167.226822,111.662086 
M59.236099,111.256058 
	C58.386585,110.909904 57.537075,110.563759 57.305248,110.469292 
	C56.636959,113.148392 56.026520,115.595589 55.641949,117.137283 
	C57.635635,118.362793 59.735359,119.653488 61.354015,120.648468 
	C63.094776,119.328049 65.182564,117.744392 66.457916,116.777000 
	C65.281738,114.209015 64.245453,111.946480 63.233402,109.736839 
	C62.473213,110.163193 61.152420,110.903961 59.236099,111.256058 
M153.458588,139.371033 
	C153.915298,139.444153 154.764526,139.611282 154.772736,139.576950 
	C155.364944,137.104706 155.890305,134.616425 156.253174,132.916199 
	C154.300446,131.681259 152.140350,130.315186 150.119080,129.036896 
	C149.801849,129.917313 149.256424,131.431015 148.764252,132.796967 
	C147.107147,132.948090 145.829163,133.064636 145.279892,133.114731 
	C146.234695,135.414322 147.224716,137.798767 148.149185,140.025330 
	C149.171478,139.805618 150.988113,139.415176 153.458588,139.371033 
M160.177200,64.945724 
	C161.456253,67.019562 162.735306,69.093391 164.130814,71.356041 
	C165.348694,67.310249 168.219528,69.653831 170.099274,70.516060 
	C170.408279,67.883316 170.679779,65.570198 170.886978,63.804981 
	C169.117828,62.414139 167.075089,60.808201 165.064774,59.227760 
	C165.515915,62.719212 163.379990,64.189095 160.177200,64.945724 
M116.476654,144.069748 
	C110.686264,144.069748 104.895882,144.069748 99.105492,144.069748 
	C99.108643,144.287445 99.111794,144.505142 99.114937,144.722839 
	C108.691948,144.722839 118.268951,144.722839 127.845955,144.722839 
	C127.849854,144.505188 127.853752,144.287537 127.857651,144.069885 
	C124.392799,144.069885 120.927948,144.069885 116.476654,144.069748 
z" />
	<path fill="#FBE304" opacity="1.000000" stroke="none" d="
M148.058899,154.164185 
	C189.810181,130.070770 198.447296,78.467651 167.240051,41.498169 
	C181.858383,44.001118 203.159531,82.704147 204.053680,107.490501 
	C204.863861,129.949585 198.925720,150.100967 185.520493,168.168030 
	C172.027954,186.352737 153.370316,197.098618 132.176804,202.472244 
	C112.149689,207.550140 92.236214,203.458313 73.747803,194.467789 
	C53.720718,184.729034 39.171394,169.300171 30.310963,148.839005 
	C13.179213,109.277153 26.308941,64.205894 60.645077,40.067863 
	C47.762741,54.994251 40.548756,72.075264 41.058838,91.900673 
	C41.574944,111.959969 49.234234,129.063187 63.638695,142.956680 
	C86.001282,164.526001 119.415024,168.922195 148.058899,154.164185 
M145.796677,184.272247 
	C144.771255,182.839951 143.745850,181.407669 142.927597,179.340759 
	C142.899902,178.900024 142.872208,178.459305 142.992569,177.386108 
	C142.798157,176.762985 142.603745,176.139862 142.409332,175.516739 
	C141.927505,175.980576 141.445679,176.444412 140.704834,177.549591 
	C140.158478,178.295609 139.612122,179.041626 139.053894,179.124603 
	C138.336349,178.534988 137.618805,177.945374 136.901260,177.355743 
	C136.595703,177.647263 136.290161,177.938782 135.984604,178.230301 
	C137.506729,181.897110 139.028854,185.563934 140.550980,189.230743 
	C141.046463,189.127579 141.541931,189.024399 142.037415,188.921219 
	C141.936066,187.939926 141.834717,186.958649 141.857910,185.295334 
	C142.246002,185.133057 142.634094,184.970779 143.272156,185.302628 
	C143.565155,185.519669 143.858154,185.736710 144.434372,186.493378 
	C145.299301,186.567947 146.164230,186.642502 147.029160,186.717072 
	C146.703979,186.108444 146.378799,185.499802 145.796677,184.272247 
M52.737362,167.570282 
	C53.393951,168.031525 54.050541,168.492767 54.707130,168.954010 
	C54.926144,168.724487 55.145157,168.494965 55.364170,168.265427 
	C54.642830,167.445190 53.921486,166.624954 53.454544,165.255051 
	C55.216148,164.872391 56.977753,164.489731 58.847095,164.083664 
	C58.532635,163.513992 58.006260,162.560425 57.409863,161.479996 
	C58.643867,160.659378 59.775425,159.906906 61.902863,158.492157 
	C59.998985,158.015625 58.565067,157.221451 58.083290,157.609467 
	C55.657932,159.562866 53.381264,161.736557 51.319443,164.068970 
	C50.992630,164.438675 52.027184,166.011780 52.737362,167.570282 
M96.056999,189.652023 
	C96.377556,190.365814 96.698112,191.079605 97.688538,192.181335 
	C98.079849,191.783066 98.471153,191.384796 98.934830,190.246872 
	C98.632706,188.807129 98.330574,187.367401 98.364769,185.302567 
	C99.398628,183.987457 100.432487,182.672348 101.466347,181.357239 
	C101.219597,181.085800 100.972855,180.814377 100.726105,180.542953 
	C99.306091,181.030930 97.886086,181.518906 97.026009,181.814468 
	C96.288734,180.660797 95.727852,179.783173 95.166977,178.905533 
	C93.852257,183.274750 91.635323,186.971741 91.951241,190.932144 
	C92.534737,191.038757 93.118233,191.145370 93.701729,191.251984 
	C94.175140,189.594223 94.648544,187.936462 95.500626,186.140671 
	C95.500626,186.140671 95.877853,186.282562 95.873611,186.970291 
	C95.966080,187.649261 96.058540,188.328247 96.056999,189.652023 
M62.732983,165.143555 
	C60.952538,167.433655 59.172092,169.723770 57.416100,171.982422 
	C62.516582,176.297791 67.788330,174.813553 68.935333,168.879120 
	C69.209709,167.459488 67.633255,165.457001 66.463402,164.108231 
	C66.066177,163.650253 64.301018,164.378738 62.732983,165.143555 
M146.256699,174.028931 
	C147.668549,177.177002 148.911087,180.429688 150.708801,183.339340 
	C150.930832,183.698685 154.111053,182.230301 155.920471,181.608887 
	C154.771835,178.788635 153.997635,175.699020 152.268936,173.296112 
	C151.674026,172.469193 148.697372,173.355789 146.256699,174.028931 
M89.218124,184.907272 
	C90.090340,182.726181 90.962555,180.545090 91.834763,178.363998 
	C91.228668,177.883408 90.622574,177.402802 90.016479,176.922195 
	C89.548843,178.564697 89.081200,180.207214 88.590088,181.932159 
	C87.359047,178.860916 86.680405,177.167831 86.001762,175.474747 
	C85.492485,175.604706 84.983200,175.734665 84.473923,175.864609 
	C83.049065,179.473969 81.624199,183.083313 80.199341,186.692657 
	C80.486435,186.856384 80.773529,187.020111 81.060631,187.183838 
	C81.944473,186.517075 82.828316,185.850296 83.092842,185.650742 
	C84.360580,187.054398 85.294037,188.087936 86.227493,189.121460 
	C87.147751,187.964539 88.068008,186.807617 89.218124,184.907272 
M121.032265,184.470154 
	C120.211494,179.843658 116.841843,181.700592 114.359192,181.367508 
	C114.359192,185.717636 114.359192,189.646225 114.359192,193.574814 
	C114.810318,193.640747 115.261436,193.706680 115.712563,193.772614 
	C116.148483,192.119888 116.584404,190.467163 117.288193,187.798828 
	C118.416504,190.225861 119.160240,191.825653 119.903969,193.425446 
	C120.270752,193.345932 120.637535,193.266434 121.004318,193.186935 
	C121.004318,190.549088 121.004318,187.911224 121.032265,184.470154 
M74.946045,182.547897 
	C75.223808,183.385269 75.501564,184.222641 76.179741,186.267151 
	C77.736298,181.625748 78.910408,178.411789 79.838036,175.128204 
	C80.034966,174.431107 79.471443,173.381638 78.981026,172.691544 
	C78.766953,172.390320 77.578743,172.315109 77.301628,172.597397 
	C74.647247,175.301224 72.093185,178.103546 69.099678,181.318710 
	C71.832893,181.551575 73.415825,181.686447 74.946045,182.547897 
M110.046173,190.408646 
	C109.709038,187.949692 109.492111,185.464340 108.961594,183.047836 
	C108.802254,182.322052 107.857979,181.555176 107.098579,181.266037 
	C106.727829,181.124878 105.618958,181.920853 105.420715,182.492538 
	C104.231674,185.921616 103.210220,189.408813 101.695229,194.284012 
	C104.100319,192.459549 105.264511,191.576416 106.652702,190.523361 
	C107.672585,191.797043 108.534058,192.872910 109.952858,194.644791 
	C110.032829,192.861908 110.068573,192.064835 110.046173,190.408646 
M124.991417,183.004929 
	C124.991417,186.275986 124.991417,189.547058 124.991417,192.818115 
	C125.371475,192.848892 125.751534,192.879654 126.131599,192.910431 
	C126.760773,191.761597 127.389946,190.612778 128.172806,189.183319 
	C129.635330,190.134933 130.792816,190.888062 131.950287,191.641190 
	C131.381134,187.795837 130.243759,184.436676 128.536087,181.398041 
	C127.201302,179.022888 125.731735,179.675629 124.991417,183.004929 
M161.388596,163.186279 
	C163.500702,166.619598 165.612808,170.052902 167.879700,173.737854 
	C170.040878,171.822144 171.495346,170.532898 173.688370,168.588974 
	C170.869705,168.789200 169.431885,168.891342 167.994049,168.993484 
	C168.177185,167.543320 168.360336,166.093155 168.373581,165.988235 
	C166.039658,164.900299 164.037292,163.966919 161.388596,163.186279 
M178.076752,163.622925 
	C178.435745,159.464813 172.513596,153.983444 168.807709,155.489120 
	C171.306458,157.721954 173.691452,159.853149 176.179672,162.076569 
	C174.803558,162.788300 173.725204,163.346024 172.646851,163.903748 
	C172.812225,164.423920 172.977615,164.944092 173.143005,165.464264 
	C174.665161,165.044540 176.187317,164.624802 178.076752,163.622925 
M47.672451,158.938660 
	C50.571476,157.266571 52.356857,153.012863 57.384171,154.565460 
	C56.060104,152.820221 54.736042,151.074997 54.159248,150.314728 
	C51.352013,152.597946 49.063549,154.442688 46.793938,156.310349 
	C44.941853,157.834442 44.951839,157.846573 47.672451,158.938660 
M154.972351,168.354477 
	C156.833023,171.988800 158.693710,175.623138 160.746307,179.632339 
	C162.879745,177.733719 164.198624,176.560013 164.828873,175.999130 
	C162.778748,174.827896 161.175079,174.243378 160.021683,173.173447 
	C158.376343,171.647171 157.061050,169.765106 154.972351,168.354477 
M175.723404,153.894791 
	C178.017090,155.222290 180.310776,156.549774 182.604477,157.877274 
	C182.890442,157.319672 183.176422,156.762070 183.462387,156.204453 
	C181.109833,154.537766 178.835236,152.740189 176.366119,151.269135 
	C175.386078,150.685226 173.974579,150.825546 172.759506,150.636139 
	C173.562759,151.588181 174.366013,152.540222 175.723404,153.894791 
z" />
	<path fill="#FB0804" opacity="1.000000" stroke="none" d="
M90.996933,53.137833 
	C91.339348,42.740292 97.125069,36.597713 105.948196,31.686432 
	C105.557770,33.060669 105.517807,33.965912 105.085808,34.606964 
	C98.792137,43.946182 99.291191,53.778542 103.167145,63.707920 
	C106.926369,73.338272 111.001106,82.845451 114.860466,92.220154 
	C118.322121,87.132217 117.968361,80.815041 116.635948,74.465210 
	C115.409241,68.619110 113.482521,62.900909 112.542664,57.017971 
	C111.068031,47.787636 111.770248,38.634968 117.075874,30.609194 
	C119.027351,27.657211 122.248245,25.544403 124.890114,23.048819 
	C125.160034,23.349859 125.429955,23.650900 125.699875,23.951941 
	C124.462112,28.844761 122.810867,33.676586 122.078117,38.643902 
	C120.801697,47.296772 123.584221,55.352783 126.424522,63.419601 
	C128.668182,69.791885 130.545914,76.346680 131.879868,82.962814 
	C132.541489,86.244278 131.613434,89.846230 131.414627,93.136856 
	C139.499939,89.859863 142.823349,80.820129 139.457596,70.115891 
	C138.363602,66.636658 136.586426,63.324276 135.874496,59.784187 
	C134.822983,54.555603 134.444473,49.191662 133.779373,43.885357 
	C134.292969,43.803600 134.806564,43.721840 135.320160,43.640083 
	C140.728226,54.743954 147.080338,65.507843 151.241028,77.060928 
	C154.479309,86.052696 153.128586,95.824516 148.293915,104.573402 
	C145.126724,110.304771 140.348938,113.139038 133.634506,113.053139 
	C120.639778,112.886902 107.636665,112.791092 94.646263,113.080635 
	C86.124969,113.270561 80.632210,109.285378 77.731079,101.778206 
	C76.035080,97.389496 75.405807,92.588547 74.053627,86.961815 
	C77.544411,90.030373 80.035088,92.219795 82.525764,94.409210 
	C83.046181,94.118217 83.566597,93.827217 84.087013,93.536217 
	C82.422462,88.544739 80.956062,83.476074 79.048737,78.579155 
	C75.879944,70.443527 76.238968,62.785950 80.564095,56.364063 
	C82.381287,62.262115 83.838776,68.905006 86.482613,75.036339 
	C89.130653,81.177429 92.963364,86.807686 96.010658,92.191589 
	C97.690834,89.658279 97.900269,85.951332 96.444969,79.357841 
	C94.552589,70.784126 92.805656,62.178310 90.996933,53.137833 
z" />
	<path fill="#FAFBFD" opacity="1.000000" stroke="none" d="
M89.041145,128.865204 
	C89.026276,125.908188 89.011398,122.951164 89.478729,119.516365 
	C105.960587,119.071068 121.960228,119.103554 137.959869,119.136040 
	C137.969299,122.084656 137.978714,125.033272 137.510010,128.470108 
	C121.034973,128.927292 105.038063,128.896255 89.041145,128.865204 
z" />
	<path fill="#FBFCFE" opacity="1.000000" stroke="none" d="
M129.928772,135.218567 
	C129.928772,137.679810 129.928772,140.141037 129.928772,142.986176 
	C119.026062,142.986176 108.399788,142.986176 97.196007,142.986176 
	C97.196007,140.667450 97.196007,138.408920 97.595947,135.621628 
	C108.640175,135.134766 119.284477,135.176666 129.928772,135.218567 
z" />
	<path fill="#EFF0FA" opacity="1.000000" stroke="none" d="
M113.922089,157.860962 
	C110.836777,157.860947 108.226562,157.860947 105.297333,157.860947 
	C105.297333,155.084412 105.297333,152.680664 105.297333,149.904724 
	C110.693802,149.904724 116.189392,149.904724 121.680038,149.904724 
	C122.536873,157.857971 122.535713,157.859207 113.922089,157.860962 
z" />
	<path fill="#E7E8F6" opacity="1.000000" stroke="none" d="
M167.538361,111.495285 
	C168.662537,111.525673 170.042648,111.527946 170.188980,111.953987 
	C170.803177,113.742271 171.048187,115.657372 171.419434,117.482018 
	C169.889374,118.302315 167.598373,119.530563 165.647568,120.576439 
	C163.990250,119.485420 161.923050,118.124580 159.953827,116.828239 
	C161.072357,114.810074 162.475555,112.278313 163.928848,109.656120 
	C164.585541,110.055542 165.906174,110.858818 167.538361,111.495285 
z" />
	<path fill="#E9EAF7" opacity="1.000000" stroke="none" d="
M59.533859,111.450394 
	C61.152420,110.903961 62.473213,110.163193 63.233402,109.736839 
	C64.245453,111.946480 65.281738,114.209015 66.457916,116.777000 
	C65.182564,117.744392 63.094776,119.328049 61.354015,120.648468 
	C59.735359,119.653488 57.635635,118.362793 55.641949,117.137283 
	C56.026520,115.595589 56.636959,113.148392 57.305248,110.469292 
	C57.537075,110.563759 58.386585,110.909904 59.533859,111.450394 
z" />
	<path fill="#EAEBF7" opacity="1.000000" stroke="none" d="
M153.131653,139.197876 
	C150.988113,139.415176 149.171478,139.805618 148.149185,140.025330 
	C147.224716,137.798767 146.234695,135.414322 145.279892,133.114731 
	C145.829163,133.064636 147.107147,132.948090 148.764252,132.796967 
	C149.256424,131.431015 149.801849,129.917313 150.119080,129.036896 
	C152.140350,130.315186 154.300446,131.681259 156.253174,132.916199 
	C155.890305,134.616425 155.364944,137.104706 154.772736,139.576950 
	C154.764526,139.611282 153.915298,139.444153 153.131653,139.197876 
z" />
	<path fill="#EEEFF8" opacity="1.000000" stroke="none" d="
M160.039917,64.635818 
	C163.379990,64.189095 165.515915,62.719212 165.064774,59.227760 
	C167.075089,60.808201 169.117828,62.414139 170.886978,63.804981 
	C170.679779,65.570198 170.408279,67.883316 170.099274,70.516060 
	C168.219528,69.653831 165.348694,67.310249 164.130814,71.356041 
	C162.735306,69.093391 161.456253,67.019562 160.039917,64.635818 
z" />
	<path fill="#F0F1F9" opacity="1.000000" stroke="none" d="
M167.494324,86.470947 
	C169.587799,86.070908 171.681274,85.670876 173.582611,85.307549 
	C174.670624,86.737175 176.252899,88.816261 177.504883,90.461327 
	C176.309479,91.931587 174.696396,93.915573 173.413162,95.493874 
	C171.543930,94.974121 169.081451,94.289413 167.331451,93.802811 
	C167.247849,92.178047 167.132843,89.943336 167.119232,87.243820 
	C167.220596,86.779015 167.494324,86.470940 167.494324,86.470947 
z" />
	<path fill="#0000C9" opacity="1.000000" stroke="none" d="
M137.700317,118.806549 
	C121.960228,119.103554 105.960587,119.071068 89.495499,119.073189 
	C90.064507,118.738747 91.097694,118.052505 92.133583,118.048416 
	C106.766273,117.990562 121.399338,118.021294 136.032257,118.056160 
	C136.502090,118.057274 136.971268,118.330627 137.700317,118.806549 
z" />
	<path fill="#0000CC" opacity="1.000000" stroke="none" d="
M89.300789,129.194397 
	C105.038063,128.896255 121.034973,128.927292 137.495575,128.911606 
	C136.764984,129.243240 135.572342,129.944687 134.376175,129.950760 
	C120.073410,130.023560 105.770103,129.999069 91.467010,129.969910 
	C90.831184,129.968613 90.195946,129.678940 89.300789,129.194397 
z" />
	<path fill="#0000D0" opacity="1.000000" stroke="none" d="
M129.691284,134.872131 
	C119.284477,135.176666 108.640175,135.134766 97.542160,135.189285 
	C97.582664,134.890182 98.079384,134.146866 98.570709,134.150406 
	C108.865448,134.224731 119.159561,134.383530 129.691284,134.872131 
z" />
	<path fill="#0000D0" opacity="1.000000" stroke="none" d="
M116.969879,144.069824 
	C120.927948,144.069885 124.392799,144.069885 127.857651,144.069885 
	C127.853752,144.287537 127.849854,144.505188 127.845955,144.722839 
	C118.268951,144.722839 108.691948,144.722839 99.114937,144.722839 
	C99.111794,144.505142 99.108643,144.287445 99.105492,144.069748 
	C104.895882,144.069748 110.686264,144.069748 116.969879,144.069824 
z" />
	<path fill="#F0F1F9" opacity="1.000000" stroke="none" d="
M167.073624,86.923416 
	C166.730621,86.829163 166.534592,86.590500 166.338547,86.351837 
	C166.581665,86.301895 166.824799,86.251953 167.281128,86.336479 
	C167.494324,86.470940 167.220596,86.779015 167.073624,86.923416 
z" />
	<path fill="#191CC9" opacity="1.000000" stroke="none" d="
M62.946968,164.854309 
	C64.301018,164.378738 66.066177,163.650253 66.463402,164.108231 
	C67.633255,165.457001 69.209709,167.459488 68.935333,168.879120 
	C67.788330,174.813553 62.516582,176.297791 57.416100,171.982422 
	C59.172092,169.723770 60.952538,167.433655 62.946968,164.854309 
z" />
	<path fill="#1517CD" opacity="1.000000" stroke="none" d="
M146.532730,173.744278 
	C148.697372,173.355789 151.674026,172.469193 152.268936,173.296112 
	C153.997635,175.699020 154.771835,178.788635 155.920471,181.608887 
	C154.111053,182.230301 150.930832,183.698685 150.708801,183.339340 
	C148.911087,180.429688 147.668549,177.177002 146.532730,173.744278 
z" />
	<path fill="#0F11D2" opacity="1.000000" stroke="none" d="
M89.103195,185.278992 
	C88.068008,186.807617 87.147751,187.964539 86.227493,189.121460 
	C85.294037,188.087936 84.360580,187.054398 83.092842,185.650742 
	C82.828316,185.850296 81.944473,186.517075 81.060631,187.183838 
	C80.773529,187.020111 80.486435,186.856384 80.199341,186.692657 
	C81.624199,183.083313 83.049065,179.473969 84.473923,175.864609 
	C84.983200,175.734665 85.492485,175.604706 86.001762,175.474747 
	C86.680405,177.167831 87.359047,178.860916 88.590088,181.932159 
	C89.081200,180.207214 89.548843,178.564697 90.016479,176.922195 
	C90.622574,177.402802 91.228668,177.883408 91.834763,178.363998 
	C90.962555,180.545090 90.090340,182.726181 89.103195,185.278992 
z" />
	<path fill="#1C1DCA" opacity="1.000000" stroke="none" d="
M121.018295,184.871765 
	C121.004318,187.911224 121.004318,190.549088 121.004318,193.186935 
	C120.637535,193.266434 120.270752,193.345932 119.903969,193.425446 
	C119.160240,191.825653 118.416504,190.225861 117.288193,187.798828 
	C116.584404,190.467163 116.148483,192.119888 115.712563,193.772614 
	C115.261436,193.706680 114.810318,193.640747 114.359192,193.574814 
	C114.359192,189.646225 114.359192,185.717636 114.359192,181.367508 
	C116.841843,181.700592 120.211494,179.843658 121.018295,184.871765 
z" />
	<path fill="#1B1EC9" opacity="1.000000" stroke="none" d="
M74.972404,182.184601 
	C73.415825,181.686447 71.832893,181.551575 69.099678,181.318710 
	C72.093185,178.103546 74.647247,175.301224 77.301628,172.597397 
	C77.578743,172.315109 78.766953,172.390320 78.981026,172.691544 
	C79.471443,173.381638 80.034966,174.431107 79.838036,175.128204 
	C78.910408,178.411789 77.736298,181.625748 76.179741,186.267151 
	C75.501564,184.222641 75.223808,183.385269 74.972404,182.184601 
z" />
	<path fill="#2023C4" opacity="1.000000" stroke="none" d="
M110.075249,190.838196 
	C110.068573,192.064835 110.032829,192.861908 109.952858,194.644791 
	C108.534058,192.872910 107.672585,191.797043 106.652702,190.523361 
	C105.264511,191.576416 104.100319,192.459549 101.695229,194.284012 
	C103.210220,189.408813 104.231674,185.921616 105.420715,182.492538 
	C105.618958,181.920853 106.727829,181.124878 107.098579,181.266037 
	C107.857979,181.555176 108.802254,182.322052 108.961594,183.047836 
	C109.492111,185.464340 109.709038,187.949692 110.075249,190.838196 
z" />
	<path fill="#1216CC" opacity="1.000000" stroke="none" d="
M125.000412,182.571960 
	C125.731735,179.675629 127.201302,179.022888 128.536087,181.398041 
	C130.243759,184.436676 131.381134,187.795837 131.950287,191.641190 
	C130.792816,190.888062 129.635330,190.134933 128.172806,189.183319 
	C127.389946,190.612778 126.760773,191.761597 126.131599,192.910431 
	C125.751534,192.879654 125.371475,192.848892 124.991417,192.818115 
	C124.991417,189.547058 124.991417,186.275986 125.000412,182.571960 
z" />
	<path fill="#191ACA" opacity="1.000000" stroke="none" d="
M98.862457,190.986542 
	C98.471153,191.384796 98.079849,191.783066 97.353989,191.679047 
	C96.729965,190.453583 96.440491,189.730392 96.151009,189.007217 
	C96.058540,188.328247 95.966080,187.649261 95.912704,186.296875 
	C95.875305,185.052032 95.798813,184.480621 95.722321,183.909195 
	C95.522202,183.920761 95.322075,183.932312 95.121956,183.943863 
	C95.121956,184.722137 95.121956,185.500427 95.121956,186.278702 
	C94.648544,187.936462 94.175140,189.594223 93.701729,191.251984 
	C93.118233,191.145370 92.534737,191.038757 91.951241,190.932144 
	C91.635323,186.971741 93.852257,183.274750 95.166977,178.905533 
	C95.727852,179.783173 96.288734,180.660797 97.026009,181.814468 
	C97.886086,181.518906 99.306091,181.030930 100.726105,180.542953 
	C100.972855,180.814377 101.219597,181.085800 101.466347,181.357239 
	C100.432487,182.672348 99.398628,183.987457 98.159256,185.999847 
	C98.256645,188.126938 98.559555,189.556732 98.862457,190.986542 
z" />
	<path fill="#181CC9" opacity="1.000000" stroke="none" d="
M161.711761,163.109909 
	C164.037292,163.966919 166.039658,164.900299 168.373581,165.988235 
	C168.360336,166.093155 168.177185,167.543320 167.994049,168.993484 
	C169.431885,168.891342 170.869705,168.789200 173.688370,168.588974 
	C171.495346,170.532898 170.040878,171.822144 167.879700,173.737854 
	C165.612808,170.052902 163.500702,166.619598 161.711761,163.109909 
z" />
	<path fill="#1B1EC8" opacity="1.000000" stroke="none" d="
M177.893112,163.914001 
	C176.187317,164.624802 174.665161,165.044540 173.143005,165.464264 
	C172.977615,164.944092 172.812225,164.423920 172.646851,163.903748 
	C173.725204,163.346024 174.803558,162.788300 176.179672,162.076569 
	C173.691452,159.853149 171.306458,157.721954 168.807709,155.489120 
	C172.513596,153.983444 178.435745,159.464813 177.893112,163.914001 
z" />
	<path fill="#141BCB" opacity="1.000000" stroke="none" d="
M47.374657,159.100006 
	C44.951839,157.846573 44.941853,157.834442 46.793938,156.310349 
	C49.063549,154.442688 51.352013,152.597946 54.159248,150.314728 
	C54.736042,151.074997 56.060104,152.820221 57.384171,154.565460 
	C52.356857,153.012863 50.571476,157.266571 47.374657,159.100006 
z" />
	<path fill="#1619CA" opacity="1.000000" stroke="none" d="
M155.288574,168.194733 
	C157.061050,169.765106 158.376343,171.647171 160.021683,173.173447 
	C161.175079,174.243378 162.778748,174.827896 164.828873,175.999130 
	C164.198624,176.560013 162.879745,177.733719 160.746307,179.632339 
	C158.693710,175.623138 156.833023,171.988800 155.288574,168.194733 
z" />
	<path fill="#0D13D0" opacity="1.000000" stroke="none" d="
M52.432327,167.028519 
	C52.027184,166.011780 50.992630,164.438675 51.319443,164.068970 
	C53.381264,161.736557 55.657932,159.562866 58.083290,157.609467 
	C58.565067,157.221451 59.998985,158.015625 61.902863,158.492157 
	C59.775425,159.906906 58.643867,160.659378 57.409863,161.479996 
	C58.006260,162.560425 58.532635,163.513992 58.847095,164.083664 
	C56.977753,164.489731 55.216148,164.872391 53.115646,165.823456 
	C52.661938,166.604080 52.547131,166.816299 52.432327,167.028519 
z" />
	<path fill="#171BCA" opacity="1.000000" stroke="none" d="
M175.446320,153.693527 
	C174.366013,152.540222 173.562759,151.588181 172.759506,150.636139 
	C173.974579,150.825546 175.386078,150.685226 176.366119,151.269135 
	C178.835236,152.740189 181.109833,154.537766 183.462387,156.204453 
	C183.176422,156.762070 182.890442,157.319672 182.604477,157.877274 
	C180.310776,156.549774 178.017090,155.222290 175.446320,153.693527 
z" />
	<path fill="#151BCA" opacity="1.000000" stroke="none" d="
M141.733368,185.977356 
	C141.834717,186.958649 141.936066,187.939926 142.037415,188.921219 
	C141.541931,189.024399 141.046463,189.127579 140.550980,189.230743 
	C139.028854,185.563934 137.506729,181.897110 135.984604,178.230301 
	C136.290161,177.938782 136.595703,177.647263 136.901260,177.355743 
	C137.618805,177.945374 138.336349,178.534988 139.136124,179.789703 
	C139.806473,181.627151 140.394577,182.799500 140.991837,183.985046 
	C141.000977,183.998245 141.022186,184.022339 141.013855,184.298141 
	C141.248154,185.041748 141.490753,185.509552 141.733368,185.977356 
z" />
	<path fill="#151BCA" opacity="1.000000" stroke="none" d="
M142.720428,179.975372 
	C143.745850,181.407669 144.771255,182.839951 145.780182,184.837158 
	C145.226181,185.585968 144.688660,185.769852 144.151154,185.953751 
	C143.858154,185.736710 143.565155,185.519669 142.968811,184.832733 
	C142.117691,184.249329 141.569946,184.135834 141.022186,184.022339 
	C141.022186,184.022339 141.000977,183.998245 141.000305,183.545563 
	C140.987701,181.031326 140.975769,178.969803 140.963852,176.908264 
	C141.445679,176.444412 141.927505,175.980576 142.409332,175.516739 
	C142.603745,176.139862 142.798157,176.762985 142.724609,177.848938 
	C142.544571,178.866318 142.632492,179.420837 142.720428,179.975372 
z" />
	<path fill="#2025C5" opacity="1.000000" stroke="none" d="
M140.834351,177.228928 
	C140.975769,178.969803 140.987701,181.031326 140.991150,183.532364 
	C140.394577,182.799500 139.806473,181.627151 139.142059,180.121216 
	C139.612122,179.041626 140.158478,178.295609 140.834351,177.228928 
z" />
	<path fill="#2025C5" opacity="1.000000" stroke="none" d="
M144.292755,186.223572 
	C144.688660,185.769852 145.226181,185.585968 145.908661,185.146637 
	C146.378799,185.499802 146.703979,186.108444 147.029160,186.717072 
	C146.164230,186.642502 145.299301,186.567947 144.292755,186.223572 
z" />
	<path fill="#2527C2" opacity="1.000000" stroke="none" d="
M98.898651,190.616699 
	C98.559555,189.556732 98.256645,188.126938 97.991089,186.312393 
	C98.330574,187.367401 98.632706,188.807129 98.898651,190.616699 
z" />
	<path fill="#0D13D0" opacity="1.000000" stroke="none" d="
M52.988441,166.098282 
	C53.921486,166.624954 54.642830,167.445190 55.364170,168.265427 
	C55.145157,168.494965 54.926144,168.724487 54.707130,168.954010 
	C54.050541,168.492767 53.393951,168.031525 52.584846,167.299408 
	C52.547131,166.816299 52.661938,166.604080 52.988441,166.098282 
z" />
	<path fill="#2527C2" opacity="1.000000" stroke="none" d="
M95.311295,186.209686 
	C95.121956,185.500427 95.121956,184.722137 95.121956,183.943863 
	C95.322075,183.932312 95.522202,183.920761 95.722321,183.909195 
	C95.798813,184.480621 95.875305,185.052032 95.914825,185.953003 
	C95.877853,186.282562 95.500626,186.140671 95.311295,186.209686 
z" />
	<path fill="#2025C5" opacity="1.000000" stroke="none" d="
M141.013855,184.298141 
	C141.569946,184.135834 142.117691,184.249329 142.843811,184.585678 
	C142.634094,184.970779 142.246002,185.133057 141.795639,185.636353 
	C141.490753,185.509552 141.248154,185.041748 141.013855,184.298141 
z" />
	<path fill="#2527C2" opacity="1.000000" stroke="none" d="
M96.104004,189.329620 
	C96.440491,189.730392 96.729965,190.453583 97.019058,191.485077 
	C96.698112,191.079605 96.377556,190.365814 96.104004,189.329620 
z" />
	<path fill="#2025C5" opacity="1.000000" stroke="none" d="
M142.824005,179.658066 
	C142.632492,179.420837 142.544571,178.866318 142.650574,178.165176 
	C142.872208,178.459305 142.899902,178.900024 142.824005,179.658066 
z" />
</svg>