<?xml version="1.0" encoding="UTF-8"?>
<svg width="595.28" height="841.89" xmlns="http://www.w3.org/2000/svg" xmlns:svg="http://www.w3.org/2000/svg">
 <metadata id="metadata123">image/svg+xmlArch. Emilie Rollandin</metadata>
 <g>
  <title>Layer 1</title>
  <g id="g3">
   <path fill-rule="evenodd" clip-rule="evenodd" fill="#00ff00" d="m261.720001,40.841999c52.93399,134.615993 -101.430008,141.962002 -85.828995,264.072002c8.870987,69.375 93.464981,112.843964 145.238998,168.337006c41.822998,44.835968 66.005981,92.043976 72.626007,168.342987c-22.878021,13.190002 -69.546021,13.190002 -92.424011,0c-2.410004,-174.714996 -167.541016,-186.73999 -211.272018,-320.171997c9.029999,-15.480988 22.457001,18.455994 36.32,19.799011c-39.400993,-160.115021 138.302025,-155.204025 135.340019,-300.379009z" id="path22"/>
   <path fill-rule="evenodd" clip-rule="evenodd" fill="#00ff00" d="m258.416992,209.184998c-15.626007,45.061005 33.122009,62.819 56.118988,85.830994c31.686005,31.671997 36.912018,69.21701 19.799011,122.137024c17.363007,-0.236023 22.154999,-13.072021 26.407013,-26.407013c11.083984,34.227997 -5.384003,69.402008 -23.090027,85.822998c-28.026978,-12.688995 -40.072998,-41.368011 -66.030975,-56.125c13.203003,-32.567993 0.024994,-67.558014 -29.711014,-75.917999c10.662994,-8.292999 34.514999,-1.618988 42.914017,3.303986c5.514984,-45.415985 -65.743011,-79.458984 -26.407013,-138.644989z" id="path41"/>
   <path fill-rule="evenodd" clip-rule="evenodd" fill="#00ff00" d="m76.856003,367.628998c9.360001,57.765015 61.97699,72.270996 66.030991,135.348022c8.952011,-4.265015 10.006012,-16.402008 9.901001,-29.725006c4.922012,67.742004 -29.343994,139.539978 9.899002,191.458984c14.242996,18.85199 30.054001,20.247009 56.117996,36.307983c55.25,0.342041 92.149994,30.960999 151.848999,16.507019c-59.738007,113.632996 -248.17099,60.58197 -264.072998,-52.814026c-12.176003,11.795044 -10.385002,36.807007 -6.608002,56.132019c-94.188002,-73.377014 51.209991,-194.882019 -13.203003,-273.990997c-6.701996,-26.382996 -16.574997,-47.656006 -9.914001,-79.223999l0.000015,0z" id="path60"/>
   <path fill-rule="evenodd" clip-rule="evenodd" fill="#00ff00" d="m542.302002,549.182983c-5.819031,35.98999 -20.194031,63.450989 -33.003998,92.411987c-2.830017,-3.026978 1.936981,-26.485962 0,-39.597961c-16.79599,21.721008 -34.252991,42.756958 -49.52301,66.004944c-35.067993,14.507019 -55.578003,37.676025 -92.424988,42.915039c-144.149002,20.536011 -259.203003,-124.031982 -155.139999,-227.765991c22.050003,13.162994 36.673996,33.752991 52.814011,52.841003c-93.741013,117.846008 167.303986,168.132019 201.358002,56.10498c-21.115021,-1.315979 -30.027008,9.583008 -52.813995,6.582031c34.291992,-28.75 74.048981,-50.786987 82.524994,-102.313019c6.411987,-38.984985 -15.335022,-85.348999 -6.608002,-125.446991c4.346008,-19.957001 16.720001,-28.580017 19.812988,-49.498016c-15.652008,64.240997 20.957977,124.006012 33.003998,181.554016c0,15.402985 0,30.805023 0,46.207977z" id="path79"/>
   <path fill-rule="evenodd" clip-rule="evenodd" fill="#00ff00" d="m294.735992,133.268005c7.266998,-7.068993 12.084991,16.363007 23.089996,16.49501c4.791992,114.067001 120.373016,117.318008 122.149994,234.373978c15.506012,-10.899994 7.395996,-45.415985 19.798004,-59.421997c37.584991,100.296997 -9.200989,203.985016 -62.712982,254.167023c-17.442017,-21.062988 -24.604004,-52.419006 -42.916016,-72.613007c26.514008,-40.730011 50.433014,-109.625 19.798004,-161.742004c-6.765015,5.330994 -8.304993,15.888977 -13.201996,23.102997c6.936981,-56.869019 -41.572998,-85.725006 -59.408997,-128.744995c0.84201,-41.390015 11.992004,-75.643005 -6.596008,-105.617004z" id="path98"/>
   <path fill-rule="evenodd" clip-rule="evenodd" fill="#00ff00" d="m258.416992,169.561996c-4.238998,44.258011 -68.585999,125.809006 3.303009,155.153c-27.814011,4.673004 -52.905014,-21.891998 -66.019012,-42.915009c-3.236984,-61.529984 49.169006,-67.453995 62.716003,-112.237991z" id="path117"/>
  </g>
 </g>
</svg>