<?xml version="1.0"?>
<svg xmlns:rdf="http://www.w3.org/1999/02/22-rdf-syntax-ns#" xmlns="http://www.w3.org/2000/svg" xmlns:cc="http://creativecommons.org/ns#" xmlns:xlink="http://www.w3.org/1999/xlink" xmlns:dc="http://purl.org/dc/elements/1.1/" xmlns:svg="http://www.w3.org/2000/svg" id="svg4910" viewBox="0 0 523.73 507.81" version="1.1">
  <defs id="defs4912">
    <linearGradient id="linearGradient4808" y2="-3555.1" gradientUnits="userSpaceOnUse" y1="-3726.7" x2="-7101.7" x1="-7101.7">
      <stop id="stop4146" stop-color="#186200" offset="0"/>
      <stop id="stop4148" stop-color="#90ff6c" offset="1"/>
    </linearGradient>
    <linearGradient id="linearGradient4810" x1="-6024.5" gradientUnits="userSpaceOnUse" y1="-5803.9" gradientTransform="translate(-893.83 2059.7)" x2="-6024.5" y2="-5614.7">
      <stop id="stop3860" stop-color="#000025" offset="0"/>
      <stop id="stop3862" stop-color="#23acc6" offset="1"/>
    </linearGradient>
  </defs>
  <g id="layer1" transform="translate(-78.137 -332.74)">
    <g id="g2865">
      <path id="rect4687" d="m328.21 403.1h23.573v202.7h-23.573v-202.7zm54.808 34.918v29.969c-7.185-3.4771-14.195-6.101-21.029-7.8715-6.8345-1.7701-13.289-2.6553-19.364-2.6555-8.0611 0.00014-14.019 1.2014-17.875 3.6039-3.8552 2.4026-5.7829 6.133-5.7829 11.191 0 3.7936 1.2851 6.7652 3.8554 8.9148 2.6285 2.0865 7.36 3.8883 14.194 5.4057l14.37 3.1296c14.545 3.1613 24.884 7.9664 31.017 14.415 6.1332 6.449 9.1999 15.617 9.2 27.503-0.00015 15.617-4.2934 27.25-12.88 34.9-8.5284 7.587-21.584 11.38-39.166 11.38-8.2947 0-16.619-0.85338-24.972-2.5606-8.3531-1.7072-16.706-4.2361-25.059-7.587v-30.822c8.3531 4.805 16.414 8.4405 24.183 10.906 7.8273 2.4026 15.362 3.6039 22.606 3.6039 7.36 0 12.997-1.3276 16.911-3.9831 3.9136-2.6555 5.8705-6.4489 5.8705-11.381 0-4.4258-1.3436-7.8399-4.0304-10.243-2.6288-2.4024-7.9152-4.5521-15.859-6.4488l-13.055-3.1296c-13.085-3.0349-22.664-7.8715-28.739-14.51-6.0166-6.6385-9.0249-15.585-9.0247-26.839-0.00014-14.099 4.2056-24.942 12.617-32.529 8.4114-7.5869 20.503-11.38 36.274-11.381 7.1848 0.00034 14.574 0.60089 22.168 1.8021 7.5936 1.1381 15.45 2.8769 23.57 5.2161"/>
      <g id="g4695" transform="matrix(.87269 0 0 .87269 6075.2 -2999.5)">
        <path id="path3835" d="m-6571.9 3855.3c-88.214 0-159.72 71.504-159.72 159.72 0 88.214 71.505 159.72 159.72 159.72 4.8457 0 9.6392-0.2338 14.375-0.6562l-0.1876-0.2188h-0.062l-18.844-21-2-2.1874-0.5-0.5626-2.75-5.1562c-26.837-2.0267-51.408-12.171-71.25-28l43.156-43.156c-1.0646-1.5144-2.0427-3.077-2.8437-4.75-4.8183-5.1076-4.5285-12.658-8.5313-17.438-0.015-0.016-0.016-0.047-0.031-0.062-0.151-0.1783-0.3363-0.33-0.5-0.5-0.7349-0.6637-1.5827-1.258-2.5938-1.75-0.055-0.1159-0.1058-0.228-0.1562-0.3438-0.1256-0.067-0.2443-0.1239-0.375-0.1875-0.1489-0.3153-0.2574-0.6535-0.375-0.9687l-48.469 48.437c-17.769-22.274-28.375-50.51-28.375-81.219 0-71.977 58.336-130.31 130.31-130.31 2.1201 0 4.2172 0.056 6.3124 0.1562 0.7704-0.7609 1.5977-1.4877 2.5-2.1562 4.5373-3.4609 8.7361-7.1166 7.2813-13.469 0.7053-6.1171 5.7587-9.8223 11.438-10.781 0.2623-0.2239 0.5303-0.4267 0.7812-0.6562-9.1885-1.6469-18.652-2.5-28.312-2.5zm134.28 73.25c-0.1644 0.055-0.3341 0.1053-0.5 0.1562 1.5181 5.8524-4.9758 11.838-7.5 16.656-3.0835 3.6841-7.5485 5.7551-12.281 6.4376 10.411 18.72 16.344 40.283 16.344 63.219 0 13.679-2.1223 26.863-6.0313 39.25 2.033 1.2345 3.9277 2.6224 5.625 4.3125 0.1213 0.1208 0.2561 0.2197 0.375 0.3438 0.097 0.093 0.1862 0.1856 0.2813 0.2812 1.1786 1.1838 2.2359 2.5089 3.1563 4.0625 4.7681 5.2963 8.4497 13.81 10.156 21.062 10.119-20.97 15.812-44.466 15.812-69.312 0-31.877-9.3471-61.552-25.438-86.469zm-65.25 23.594c-0.3548-0.0007-0.7115 0.012-1.0625 0.031-1.685 0.09-3.3166 0.4429-4.8125 1.3437-2.4878 4.3116-5.4244 9.3595-11.375 6.3125-4.7056-1.8975-9.6455-3.0265-14.625-2.6562l-57 56.969c7.6048 2.2486 15.036 5.4481 22.938 6.7813 2.7301 1.4717 5.7255 2.2513 8.75 2.9687l71.438-71.406c-2.2616-0.035-4.5195-0.058-6.7812-0.094-2.4269 0.1732-4.985-0.2451-7.4688-0.25z" fill="#000080"/>
        <path id="path4672" d="m-6542.9 3858.1c-3.1689 0.2597-6.2671 1.3224-8.6563 3.1875s-4.0791 4.5264-4.4687 7.9063a0.19143 0.19143 0 0 0 0 0.031 0.19143 0.19143 0 0 0 0 0.031c0.7166 3.1292 0.037 5.5729-1.375 7.6876-1.4126 2.1145-3.5786 3.8971-5.8438 5.625-0.9635 0.7138-1.812 1.4958-2.625 2.3124 28.37 1.2954 54.38 11.646 75.188 28.25l-44.25 44.25c4.9893-0.4097 9.9596 0.6919 14.688 2.5938 0.013 0.01 0.018 0.025 0.031 0.031 3.0057 1.5247 5.3317 1.0342 7.1563-0.4062 1.822-1.4384 3.1679-3.7914 4.4063-5.9375 1.9395-1.1543 4.1211-1.3313 6.375-1.2813 2.2681 0.051 4.5976 0.3477 6.8437 0.1876 2.2097 0.035 4.4172 0.06 6.625 0.094l18.9-18.6c4.5292 5.6797 8.6109 11.729 12.156 18.125 4.7505-0.701 9.239-2.7906 12.344-6.5a0.19143 0.19143 0 0 0 0 -0.031c1.3867-2.6472 4.0328-5.6809 5.8438-8.875 0.9053-1.5971 1.6159-3.2434 1.8437-4.9063s-0.041-3.3472-1.0313-5c-24.147-35.785-61.954-61.875-104.03-68.562a0.19143 0.19143 0 0 0 -0.031 0z" fill="#1a8d1a"/>
        <path id="path4677" d="m-6591.3 4013.8l-34.7 34.6c0.071 0.1688 0.1391 0.3314 0.2188 0.5a0.53991 0.53991 0 0 0 0.25 0.2813c3.867 1.8823 5.351 5.1777 6.625 8.9375 1.2563 3.7079 2.2861 7.8039 5.2812 11.062 0.042 0.046 0.051 0.1109 0.094 0.1563 0.8633 1.7725 1.8994 3.4418 3.0312 5.0312l50.938-50.938c-3.244-0.7646-6.4657-1.5277-9.3125-3.0625a0.53991 0.53991 0 0 0 -0.1562 -0.063c-7.6122-1.2841-14.843-4.3225-22.281-6.5625zm143.88 40.062c-16.505 53.048-65.987 91.562-124.47 91.562-3.647 0-7.2724-0.1753-10.844-0.4688l2.8438 5.375a0.53991 0.53991 0 0 0 0.062 0.125l21.375 23.75a0.53991 0.53991 0 0 0 0.4376 0.1563c60.966-4.5045 110.72-46.374 129.91-89.562a0.53991 0.53991 0 0 0 0.031 -0.3438c-1.625-7.4655-5.3927-16.417-10.406-22.031-0.02-0.033-0.043-0.06-0.063-0.094-2.2884-3.8153-5.44-6.3583-8.875-8.4687z" fill="#1a8d1a"/>
      </g>
      <g id="g4773" transform="matrix(.69028 0 0 .69028 4522.1 -2040.7)">
        <path id="path4712" opacity=".088339" d="m-6154.2 3927c-12.891 0.0003-25.24 2.326-37.002 6.9781a1.7556 1.7556 0 0 0 -0.051 0.034c-11.327 4.9169-21.569 11.86-30.683 20.799a1.7556 1.7556 0 0 0 0 0.017c-9.6348 9.6349-17.106 20.52-22.37 32.626a1.7556 1.7556 0 0 0 -0.017 0c-5.0123 11.783-7.5019 24.5-7.5019 38.084 0 9.185 1.0086 18.09 3.0245 26.679 2.0189 8.6026 5.1279 16.771 9.3435 24.499a1.7556 1.7556 0 0 0 0 0.017c4.3004 7.6355 9.5551 14.568 15.696 20.799 0.01 0.01-0.01 0.014 0 0.017l0.017-0.017c18.671 19.192 41.887 28.875 69.291 28.875 20.806 0 38.649-4.9553 53.375-14.919 7.2283-4.8484 13.855-10.969 19.904-18.332 6.0573-7.3743 11.309-15.92 15.764-25.614a1.7556 1.7556 0 0 0 -1.5882 -2.4838h-44.758a1.7556 1.7556 0 0 0 -1.4024 0.6927c-4.753 6.2539-10.638 11.027-17.724 14.362a1.7556 1.7556 0 0 0 -0.051 0.017c-6.7146 3.3987-14.438 5.1195-23.266 5.1195-15.699 0-28.948-5.5895-40.128-16.93l-0.017-0.017c-10.824-11.336-16.186-25.039-16.186-41.463 0-16.433 5.3678-30.14 16.203-41.48 10.835-11.339 23.897-16.93 39.604-16.93 9.0893 0.0001 17.041 1.7545 23.925 5.2378a1.7556 1.7556 0 0 0 0.017 0c6.9805 3.4074 13.28 8.6549 18.924 15.815a1.7556 1.7556 0 0 0 1.3855 0.6758h45.028a1.7556 1.7556 0 0 0 1.5882 -2.5006c-4.7944-10.199-10.332-19.117-16.643-26.747-0.01-0.01-0.012-0.01-0.017-0.017-6.2099-7.6929-12.982-13.924-20.292-18.687-0.013-0.01-0.02-0.025-0.034-0.033-7.3917-5.0972-15.526-8.8927-24.398-11.354h-0.017c-8.8022-2.5507-18.457-3.8186-28.943-3.8186zm335.27 0c-12.891 0.0003-25.224 2.3262-36.986 6.9781a1.7556 1.7556 0 0 0 -0.051 0.034c-11.326 4.9166-21.584 11.859-30.7 20.799a1.7556 1.7556 0 0 0 0 0.017c-9.6347 9.6349-17.106 20.52-22.37 32.626a1.7556 1.7556 0 0 0 -0.017 0c-5.0124 11.783-7.5018 24.5-7.5018 38.084 0 9.185 1.0084 18.09 3.0244 26.679 2.0194 8.6048 5.1458 16.773 9.3603 24.499a1.7556 1.7556 0 0 0 0 0.017c4.2995 7.6337 9.5371 14.567 15.68 20.799 0.01 0.01-0.01 0.014 0 0.017l0.017-0.017c18.671 19.192 41.887 28.875 69.291 28.875 20.806 0 38.649-4.9553 53.375-14.919 7.2273-4.8477 13.871-10.968 19.92-18.332 6.0573-7.3743 11.309-15.92 15.764-25.614a1.7556 1.7556 0 0 0 -1.5882 -2.4838h-44.775a1.7556 1.7556 0 0 0 -1.4023 0.6927c-4.7543 6.2554-10.622 11.028-17.707 14.362a1.7556 1.7556 0 0 0 -0.051 0.017c-6.7135 3.3982-14.454 5.1195-23.283 5.1195-15.699 0-28.948-5.5895-40.128-16.93l-0.017-0.017c-10.824-11.336-16.186-25.039-16.186-41.463 0-16.433 5.3678-30.14 16.203-41.48 10.834-11.338 23.914-16.93 39.621-16.93 9.0894 0.0001 17.023 1.754 23.908 5.2378a1.7556 1.7556 0 0 0 0.017 0c6.9814 3.4078 13.298 8.6561 18.94 15.815a1.7556 1.7556 0 0 0 1.3855 0.6758h45.028a1.7556 1.7556 0 0 0 1.5882 -2.5006c-4.795-10.2-10.35-19.118-16.66-26.747-0.01-0.01-0.012-0.01-0.017-0.017-6.2088-7.6916-12.964-13.924-20.275-18.687-0.013-0.01-0.021-0.025-0.034-0.033-7.3928-5.0979-15.544-8.8929-24.415-11.354h-0.017c-8.8024-2.5507-18.457-3.8186-28.943-3.8186zm-542.38 3.751a1.7556 1.7556 0 0 0 -1.7572 1.7572v74.326h-23.992a1.7556 1.7556 0 0 0 -1.7573 1.7572v32.609a1.7556 1.7556 0 0 0 1.7573 1.7572h23.992v77.942a1.7556 1.7556 0 0 0 1.7572 1.7572h36.614a1.7556 1.7556 0 0 0 1.7571 -1.7572v-77.942h67.06a1.7556 1.7556 0 0 0 1.7404 -1.9937c-1.6161-12.084-1.6153-15.768 0-32.204a1.7556 1.7556 0 0 0 -1.7404 -1.9262h-67.06v-39.435h85.579a1.7556 1.7556 0 0 0 1.3517 -0.6421c13.356-16.336 22.509-24.02 39.52-32.677a1.7556 1.7556 0 0 0 -0.7942 -3.3285h-164.03zm302.1 0a1.7556 1.7556 0 0 0 -1.7571 1.7572l-0.2534 79.699h-62.634c-5.9494-9.5326-16.504-15.916-28.554-15.916-18.581 0-33.691 15.11-33.691 33.691s15.111 33.674 33.691 33.674c11.654 0 21.902-5.9566 27.946-14.97h63.242l0.2534 72.214a1.7556 1.7556 0 0 0 1.7571 1.7572h36.884a1.7556 1.7556 0 0 0 1.7572 -1.7572v-73.549l35.972-0.8617 40.686 75.238a1.7556 1.7556 0 0 0 1.5375 0.9293h39.858a1.7556 1.7556 0 0 0 1.5544 -2.5683l-42.95-82.199c7.1841-3.7459 12.753-7.9222 16.49-12.672 0.01-0.01 0.012-0.011 0.017-0.017 4.3889-5.4452 7.5835-10.674 9.5632-15.713a1.7556 1.7556 0 0 0 0 -0.017c1.9937-5.1659 2.9737-11.201 2.9737-18.096 0-19.089-6.3135-34.106-18.873-44.538-0.01 0 0.01-0.015 0-0.017-0.01-0.01-0.013 0.01-0.017 0-12.806-10.755-30.332-16.068-52.344-16.068h-73.109zm38.641 34.181h11.946c5.0181 0 10.851 0.2954 17.454 0.8955 6.5925 0.5995 12.334 1.4159 17.251 2.4331a1.7556 1.7556 0 0 0 0.034 0c4.8677 0.9233 8.3016 2.2157 10.171 3.582a1.7556 1.7556 0 0 0 0.017 0.017c5.7853 4.1212 8.7015 10.746 8.7015 20.562 0 4.6514-0.8161 7.948-2.112 9.918-3.2951 3.8154-6.5793 5.7765-10.982 6.995-4.4327 1.2267-10.025 1.6221-17.471 2.0613-12.54 0.7701-19.824 0.8112-28.875 0.8111h-6.1332v-47.275z" stroke="#000" stroke-width="1.7101" fill="#fff"/>
        <path id="path4714" opacity=".060071" d="m-6154.2 3927c-12.891 0.0003-25.24 2.326-37.002 6.9781a1.7556 1.7556 0 0 0 -0.051 0.034c-11.327 4.9169-21.569 11.86-30.683 20.799a1.7556 1.7556 0 0 0 0 0.017c-9.6348 9.6349-17.106 20.52-22.37 32.626a1.7556 1.7556 0 0 0 -0.017 0c-5.0123 11.783-7.5019 24.5-7.5019 38.084 0 9.185 1.0086 18.09 3.0245 26.679 2.0189 8.6026 5.1279 16.771 9.3435 24.499a1.7556 1.7556 0 0 0 0 0.017c4.3004 7.6355 9.5551 14.568 15.696 20.799 0.01 0.01-0.01 0.014 0 0.017l0.017-0.017c18.671 19.192 41.887 28.875 69.291 28.875 20.806 0 38.649-4.9553 53.375-14.919 7.2283-4.8484 13.855-10.969 19.904-18.332 6.0573-7.3743 11.309-15.92 15.764-25.614a1.7556 1.7556 0 0 0 -1.5882 -2.4838h-44.758a1.7556 1.7556 0 0 0 -1.4024 0.6927c-4.753 6.2539-10.638 11.027-17.724 14.362a1.7556 1.7556 0 0 0 -0.051 0.017c-6.7146 3.3987-14.438 5.1195-23.266 5.1195-15.699 0-28.948-5.5895-40.128-16.93l-0.017-0.017c-10.824-11.336-16.186-25.039-16.186-41.463 0-16.433 5.3678-30.14 16.203-41.48 10.835-11.339 23.897-16.93 39.604-16.93 9.0893 0.0001 17.041 1.7545 23.925 5.2378a1.7556 1.7556 0 0 0 0.017 0c6.9805 3.4074 13.28 8.6549 18.924 15.815a1.7556 1.7556 0 0 0 1.3855 0.6758h45.028a1.7556 1.7556 0 0 0 1.5882 -2.5006c-4.7944-10.199-10.332-19.117-16.643-26.747-0.01-0.01-0.012-0.01-0.017-0.017-6.2099-7.6929-12.982-13.924-20.292-18.687-0.013-0.01-0.02-0.025-0.034-0.033-7.3917-5.0972-15.526-8.8927-24.398-11.354h-0.017c-8.8022-2.5507-18.457-3.8186-28.943-3.8186zm335.27 0c-12.891 0.0003-25.224 2.3262-36.986 6.9781a1.7556 1.7556 0 0 0 -0.051 0.034c-11.326 4.9166-21.584 11.859-30.7 20.799a1.7556 1.7556 0 0 0 0 0.017c-9.6347 9.6349-17.106 20.52-22.37 32.626a1.7556 1.7556 0 0 0 -0.017 0c-5.0124 11.783-7.5018 24.5-7.5018 38.084 0 9.185 1.0084 18.09 3.0244 26.679 2.0194 8.6048 5.1458 16.773 9.3603 24.499a1.7556 1.7556 0 0 0 0 0.017c4.2995 7.6337 9.5371 14.567 15.68 20.799 0.01 0.01-0.01 0.014 0 0.017l0.017-0.017c18.671 19.192 41.887 28.875 69.291 28.875 20.806 0 38.649-4.9553 53.375-14.919 7.2273-4.8477 13.871-10.968 19.92-18.332 6.0573-7.3743 11.309-15.92 15.764-25.614a1.7556 1.7556 0 0 0 -1.5882 -2.4838h-44.775a1.7556 1.7556 0 0 0 -1.4023 0.6927c-4.7543 6.2554-10.622 11.028-17.707 14.362a1.7556 1.7556 0 0 0 -0.051 0.017c-6.7135 3.3982-14.454 5.1195-23.283 5.1195-15.699 0-28.948-5.5895-40.128-16.93l-0.017-0.017c-10.824-11.336-16.186-25.039-16.186-41.463 0-16.433 5.3678-30.14 16.203-41.48 10.834-11.338 23.914-16.93 39.621-16.93 9.0894 0.0001 17.023 1.754 23.908 5.2378a1.7556 1.7556 0 0 0 0.017 0c6.9814 3.4078 13.298 8.6561 18.94 15.815a1.7556 1.7556 0 0 0 1.3855 0.6758h45.028a1.7556 1.7556 0 0 0 1.5882 -2.5006c-4.795-10.2-10.35-19.118-16.66-26.747-0.01-0.01-0.012-0.01-0.017-0.017-6.2088-7.6916-12.964-13.924-20.275-18.687-0.013-0.01-0.021-0.025-0.034-0.033-7.3928-5.0979-15.544-8.8929-24.415-11.354h-0.017c-8.8024-2.5507-18.457-3.8186-28.943-3.8186zm-542.38 3.751a1.7556 1.7556 0 0 0 -1.7572 1.7572v74.326h-23.992a1.7556 1.7556 0 0 0 -1.7573 1.7572v32.609a1.7556 1.7556 0 0 0 1.7573 1.7572h23.992v77.942a1.7556 1.7556 0 0 0 1.7572 1.7572h36.614a1.7556 1.7556 0 0 0 1.7571 -1.7572v-77.942h67.06a1.7556 1.7556 0 0 0 1.7404 -1.9937c-1.6161-12.084-1.6153-15.768 0-32.204a1.7556 1.7556 0 0 0 -1.7404 -1.9262h-67.06v-39.435h85.579a1.7556 1.7556 0 0 0 1.3517 -0.6421c13.356-16.336 22.509-24.02 39.52-32.677a1.7556 1.7556 0 0 0 -0.7942 -3.3285h-164.03zm302.1 0a1.7556 1.7556 0 0 0 -1.7571 1.7572l-0.2534 79.699h-62.634c-5.9494-9.5326-16.504-15.916-28.554-15.916-18.581 0-33.691 15.11-33.691 33.691s15.111 33.674 33.691 33.674c11.654 0 21.902-5.9566 27.946-14.97h63.242l0.2534 72.214a1.7556 1.7556 0 0 0 1.7571 1.7572h36.884a1.7556 1.7556 0 0 0 1.7572 -1.7572v-73.549l35.972-0.8617 40.686 75.238a1.7556 1.7556 0 0 0 1.5375 0.9293h39.858a1.7556 1.7556 0 0 0 1.5544 -2.5683l-42.95-82.199c7.1841-3.7459 12.753-7.9222 16.49-12.672 0.01-0.01 0.012-0.011 0.017-0.017 4.3889-5.4452 7.5835-10.674 9.5632-15.713a1.7556 1.7556 0 0 0 0 -0.017c1.9937-5.1659 2.9737-11.201 2.9737-18.096 0-19.089-6.3135-34.106-18.873-44.538-0.01 0 0.01-0.015 0-0.017-0.01-0.01-0.013 0.01-0.017 0-12.806-10.755-30.332-16.068-52.344-16.068h-73.109zm38.641 34.181h11.946c5.0181 0 10.851 0.2954 17.454 0.8955 6.5925 0.5995 12.334 1.4159 17.251 2.4331a1.7556 1.7556 0 0 0 0.034 0c4.8677 0.9233 8.3016 2.2157 10.171 3.582a1.7556 1.7556 0 0 0 0.017 0.017c5.7853 4.1212 8.7015 10.746 8.7015 20.562 0 4.6514-0.8161 7.948-2.112 9.918-3.2951 3.8154-6.5793 5.7765-10.982 6.995-4.4327 1.2267-10.025 1.6221-17.471 2.0613-12.54 0.7701-19.824 0.8112-28.875 0.8111h-6.1332v-47.275z" stroke="#000" stroke-width="1.7101" fill="#e6e6e6"/>
        <g id="g4717" transform="matrix(.54067 0 0 .54067 -2319.6 6042)">
          <path id="path4719" d="m-7092.1-3898.3c-22.238 0-43.337 3.979-63.549 11.947-19.452 8.4608-36.987 20.345-52.763 35.818-16.699 16.714-29.502 35.413-38.579 56.265-0.01 0.02-0.016 0.041-0.025 0.062 0 0 0 0.01-0.01 0.012-8.5533 20.136-12.849 41.818-12.849 65.346 0 16.054 1.7612 31.498 5.2572 46.394 3.477 14.815 8.8233 28.82 16.074 42.113 7.3956 13.108 16.342 24.982 26.891 35.682a9.5541 9.5541 0 0 1 0.049 0.049c32.35 33.262 71.31 49.513 119.02 49.513 36.458 0 66.666-8.5555 91.564-25.402a9.5541 9.5541 0 0 1 0.037 -0.019c12.243-8.2119 23.59-18.638 34.069-31.394 7.5653-9.2102 14.452-19.558 20.658-31.048h-62.795c-9.4109 11.257-20.909 20.176-34.236 26.489l0.01 0.01c-0.081 0.041-0.1656 0.077-0.2471 0.1174-14.348 7.2091-30.682 10.718-48.574 10.718-32.133 0.0001-60.596-12.025-83.385-35.157a9.5541 9.5541 0 0 1 -0.099 -0.105c-22.167-23.198-33.513-52.35-33.513-85.566-0.0001-33.216 11.346-62.367 33.513-85.566 22.172-23.204 50.394-35.262 82.526-35.262 18.416 0 35.195 3.6029 49.896 11.015 0.041 0.021 0.083 0.041 0.1235 0.062 13.511 6.6185 25.627 16.459 36.312 29.127h63.246c-6.7416-12.38-14.149-23.434-22.208-33.174a9.5541 9.5541 0 0 1 -0.08 -0.093c-10.784-13.366-22.329-23.974-34.625-31.975a9.5541 9.5541 0 0 1 -0.2224 -0.1421c-12.519-8.6438-26.256-15.041-41.39-19.237a9.5541 9.5541 0 0 1 -0.1112 -0.031c-14.974-4.342-31.61-6.5668-49.983-6.5668z" fill="url(#linearGradient4808)"/>
          <path id="path4721" d="m-6472-3898.3c-22.238 0-43.337 3.979-63.549 11.947-19.452 8.4608-36.987 20.345-52.763 35.818-16.699 16.714-29.502 35.413-38.579 56.265-0.01 0.02-0.016 0.041-0.025 0.062 0 0 0 0.01-0.01 0.012-8.5532 20.136-12.849 41.818-12.849 65.346 0 16.054 1.7611 31.498 5.2571 46.394 3.477 14.815 8.8234 28.82 16.074 42.113 7.3956 13.108 16.342 24.982 26.891 35.682a9.5541 9.5541 0 0 1 0.049 0.049c32.35 33.262 71.31 49.513 119.02 49.513 36.458 0 66.666-8.5555 91.564-25.402a9.5541 9.5541 0 0 1 0.037 -0.019c12.243-8.2119 23.59-18.638 34.069-31.394 7.5652-9.2102 14.452-19.558 20.658-31.048h-62.795c-9.4109 11.257-20.909 20.176-34.236 26.489l0.01 0.01c-0.081 0.041-0.1656 0.077-0.2471 0.1174-14.348 7.2091-30.682 10.718-48.574 10.718-32.133 0.0001-60.596-12.025-83.385-35.157a9.5541 9.5541 0 0 1 -0.099 -0.105c-22.167-23.198-33.513-52.35-33.513-85.566-0.0001-33.216 11.346-62.367 33.513-85.566 22.172-23.204 50.394-35.262 82.526-35.262 18.416 0 35.195 3.6029 49.896 11.015 0.041 0.021 0.082 0.041 0.1235 0.062 13.511 6.6185 25.627 16.459 36.312 29.127h63.246c-6.7417-12.38-14.149-23.434-22.208-33.174a9.5541 9.5541 0 0 1 -0.08 -0.093c-10.784-13.366-22.329-23.974-34.625-31.975a9.5541 9.5541 0 0 1 -0.2224 -0.1421c-12.52-8.6438-26.256-15.041-41.39-19.237a9.5541 9.5541 0 0 1 -0.1112 -0.031c-14.974-4.342-31.61-6.5668-49.983-6.5668z" fill="url(#linearGradient4810)"/>
          <path id="path4723" d="m-7465.6-3891.3v131.16a9.5541 9.5541 0 0 1 -9.5505 9.5505h-38.066v41.204h38.066a9.5541 9.5541 0 0 1 9.5505 9.5505v137.86h48.624v-137.86a9.5541 9.5541 0 0 1 9.5506 -9.5505h116.52c-1.3834-13.338-1.3151-23.128 0.2657-41.204h-116.79a9.5541 9.5541 0 0 1 -9.5506 -9.5505v-79.45a9.5541 9.5541 0 0 1 9.5506 -9.5505h157.05c15.128-18.145 28.346-31.079 43.935-42.156h-259.16z" fill="url(#linearGradient4810)"/>
          <path id="path4725" d="m-6906.9-3891.3l-0.4375 141.09a9.5541 9.5541 0 0 1 -9.5625 9.5313h-120.81a9.5541 9.5541 0 0 1 -8.25 -4.75c-8.5684-14.747-24.483-24.688-42.844-24.688-27.447 0-49.5 22.052-49.5 49.5s22.052 49.5 49.5 49.5c17.755 0 33.214-9.2704 41.969-23.219a9.5541 9.5541 0 0 1 8.0938 -4.4687h121.84a9.5541 9.5541 0 0 1 9.5625 9.5l0.4375 127.31h49.125v-129.66a9.5541 9.5541 0 0 1 9.3437 -9.5626l71.688-1.6874a9.5541 9.5541 0 0 1 8.625 5.0312l73.5 135.88h52.219l-73.5-140.8a9.5541 9.5541 0 0 1 4.2188 -12.969c13.655-6.7523 23.22-14.104 29.031-21.5a9.5541 9.5541 0 0 1 0.063 -0.094c7.5077-9.3097 12.73-17.941 15.781-25.688 2.9832-7.73 4.625-17.332 4.625-28.875 0-32.55-10.052-55.75-30.313-72.562a9.5541 9.5541 0 0 1 -0.031 -0.031c-20.872-17.538-49.951-26.719-88.625-26.719h-125.69zm58.688 37.594h25.375c9.794 0 20.906 0.5826 33.406 1.7188 12.494 1.1361 23.541 2.6932 33.219 4.6875 0.05 0.01 0.1064 0.021 0.1562 0.031 9.8605 1.8805 17.594 4.306 23.719 8.75 0.015 0.012 0.046 0.02 0.063 0.031 0.01 0.01 0.021 0.023 0.031 0.031 14.363 10.285 21.375 27.625 21.375 48.375 0 10.155-1.4646 18.759-6.1876 25.719a9.5541 9.5541 0 0 1 -0.6562 0.8438c-7.5537 8.8036-16.621 14.26-26.75 17.062-10.123 2.801-21.151 3.435-34.969 4.25h-0.031c-23.454 1.4399-37.384 1.5315-54.156 1.5313h-14.594a9.5541 9.5541 0 0 1 -9.5625 -9.5625v-93.906a9.5541 9.5541 0 0 1 9.5625 -9.5626z" fill="url(#linearGradient4810)"/>
        </g>
        <path id="path4727" opacity=".21201" fill="#e6e6e6" d="m-6154.2 3934.3c-12.024 0-23.438 2.1459-34.367 6.4542-10.517 4.5746-19.991 11.014-28.52 19.38-9.0285 9.037-15.942 19.138-20.85 30.413-0.01 0.011-0.012 0.023-0.017 0.033h-0.017c-4.6245 10.887-6.9443 22.609-6.9443 35.33 0 4.3573 0.2316 8.6456 0.7097 12.841 8.973-3.0484 17.913-5.8449 26.814-8.3805-0.043-1.0446-0.068-2.0994-0.068-3.1596-0.0001-17.959 6.1274-33.719 18.113-46.261 11.988-12.546 27.249-19.059 44.622-19.059 9.9573 0 19.034 1.9401 26.983 5.9475 0.022 0.011 0.046 0.023 0.068 0.033 7.305 3.5784 13.856 8.898 19.633 15.747h34.198c-3.6451-6.6934-7.6555-12.661-12.013-17.927a5.1657 5.1657 0 0 1 -0.034 -0.051c-5.8308-7.2266-12.072-12.976-18.721-17.302a5.1657 5.1657 0 0 1 -0.1352 -0.068c-6.7689-4.6734-14.188-8.1393-22.37-10.408a5.1657 5.1657 0 0 1 -0.068 -0.017c-8.0959-2.3477-17.083-3.5483-27.017-3.5483zm335.27 0c-12.024 0-23.422 2.1459-34.35 6.4542-10.517 4.5746-20.008 11.014-28.538 19.38-9.0284 9.037-15.942 19.138-20.85 30.413-0.01 0.011-0.012 0.023-0.017 0.033-4.6246 10.887-6.9443 22.609-6.9443 35.33 0 1.873 0.046 3.733 0.1352 5.5756 9.4611 2.4566 18.889 5.1032 28.301 7.9074-0.6626-3.9333-0.9969-7.9971-0.9969-12.182-0.0001-17.959 6.1443-33.719 18.13-46.261 11.988-12.546 27.249-19.059 44.623-19.059 9.9573 0 19.017 1.9401 26.966 5.9475 0.022 0.011 0.045 0.023 0.068 0.033 7.3051 3.5784 13.856 8.898 19.633 15.747h34.198c-3.645-6.6934-7.6386-12.661-11.996-17.927a5.1657 5.1657 0 0 1 -0.051 -0.051c-5.8309-7.2266-12.072-12.976-18.721-17.302a5.1657 5.1657 0 0 1 -0.1182 -0.068c-6.769-4.6734-14.205-8.1393-22.387-10.408a5.1657 5.1657 0 0 1 -0.051 -0.017c-8.096-2.3477-17.1-3.5483-27.034-3.5483zm-537.21 3.7508v70.913a5.1657 5.1657 0 0 1 -5.1702 5.1702h-20.579v22.269h20.579a5.1657 5.1657 0 0 1 5.1702 5.1702v48.272c8.8003-5.0563 17.565-9.835 26.29-14.362v-33.91a5.1657 5.1657 0 0 1 5.1533 -5.1702h63.005c-0.7479-7.2115-0.7195-12.496 0.1352-22.269h-63.141a5.1657 5.1657 0 0 1 -5.1533 -5.1702v-42.95a5.1657 5.1657 0 0 1 5.1533 -5.1702h84.92c8.179-9.8105 15.327-16.804 23.756-22.793h-140.12zm302.08 0l-0.2366 71.944c8.9617 0.2515 17.894 0.7189 26.797 1.3855v-47.833a5.1657 5.1657 0 0 1 5.1702 -5.1533h13.703c5.2953 0 11.303 0.315 18.062 0.9293 6.7554 0.6142 12.728 1.4393 17.961 2.5175 0.027 0.01 0.057 0.011 0.084 0.017 5.3314 1.0168 9.5127 2.3281 12.824 4.7309 0.012 0.01 0.022 0.025 0.033 0.034 0.01 0.01 0.011-0.01 0.017 0 7.7655 5.5607 11.557 14.953 11.557 26.172 0 5.4907-0.7919 10.125-3.3455 13.888a5.1657 5.1657 0 0 1 -0.3547 0.4731c-4.0842 4.76-8.9864 7.7099-14.463 9.2252-2.4246 0.671-4.9506 1.0965-7.6539 1.4193 12.556 2.0522 25.053 4.4794 37.509 7.2315 1.3832-1.236 2.5662-2.4843 3.5481-3.734a5.1657 5.1657 0 0 1 0.034 -0.051c4.0592-5.0335 6.866-9.6836 8.5157-13.872 1.613-4.1794 2.5006-9.371 2.5006-15.612 0-17.599-5.4177-30.159-16.372-39.25a5.1657 5.1657 0 0 1 -0.017 -0.017c-11.285-9.4821-27.007-14.446-47.917-14.446h-67.956zm-98.352 65.54c-11.381 0-21.035 7.0176-24.922 16.981 15.285-3.1239 30.462-5.5242 45.552-7.2653-4.9004-5.9357-12.294-9.7153-20.63-9.7153zm378.39 68.767c-1.2204 1.4597-2.504 2.8442-3.8523 4.1565 9.1444 3.7882 18.274 7.6797 27.388 11.675 3.7917-4.7406 7.2621-10.008 10.408-15.832h-33.944z"/>
      </g>
    </g>
  </g>
  <metadata>
    <rdf:RDF>
      <cc:Work>
        <dc:format>image/svg+xml</dc:format>
        <dc:type rdf:resource="http://purl.org/dc/dcmitype/StillImage"/>
        <cc:license rdf:resource="http://creativecommons.org/licenses/publicdomain/"/>
        <dc:publisher>
          <cc:Agent rdf:about="http://openclipart.org/">
            <dc:title>Openclipart</dc:title>
          </cc:Agent>
        </dc:publisher>
        <dc:title>FCRC logo globe/money</dc:title>
        <dc:date>2010-07-16T10:58:50</dc:date>
        <dc:description>clip art, clipart, fcrc, globe, money, </dc:description>
        <dc:source>http://openclipart.org/detail/73411/fcrc-logo-globe/money-by-timeth</dc:source>
        <dc:creator>
          <cc:Agent>
            <dc:title>timeth</dc:title>
          </cc:Agent>
        </dc:creator>
        <dc:subject>
          <rdf:Bag>
            <rdf:li>clip art</rdf:li>
            <rdf:li>clipart</rdf:li>
            <rdf:li>fcrc</rdf:li>
            <rdf:li>globe</rdf:li>
            <rdf:li>money</rdf:li>
          </rdf:Bag>
        </dc:subject>
      </cc:Work>
      <cc:License rdf:about="http://creativecommons.org/licenses/publicdomain/">
        <cc:permits rdf:resource="http://creativecommons.org/ns#Reproduction"/>
        <cc:permits rdf:resource="http://creativecommons.org/ns#Distribution"/>
        <cc:permits rdf:resource="http://creativecommons.org/ns#DerivativeWorks"/>
      </cc:License>
    </rdf:RDF>
  </metadata>
</svg>
