<?xml version="1.0" encoding="utf-8"?>
<!-- Generator: Adobe Illustrator 19.1.0, SVG Export Plug-In . SVG Version: 6.00 Build 0)  -->
<svg version="1.1" id="Layer_1" xmlns="http://www.w3.org/2000/svg" xmlns:xlink="http://www.w3.org/1999/xlink" x="0px" y="0px"
	 viewBox="0 0 792 1057.4" enable-background="new 0 0 792 1057.4" xml:space="preserve">
<g>
	<linearGradient id="SVGID_1_" gradientUnits="userSpaceOnUse" x1="119.7658" y1="528.7236" x2="696.7891" y2="528.7236">
		<stop  offset="0" style="stop-color:#00A651"/>
		<stop  offset="0.1255" style="stop-color:#009966"/>
		<stop  offset="0.305" style="stop-color:#008983"/>
		<stop  offset="0.4772" style="stop-color:#007C95"/>
		<stop  offset="0.6373" style="stop-color:#0071A1"/>
		<stop  offset="0.7826" style="stop-color:#0069A9"/>
		<stop  offset="0.9083" style="stop-color:#0065AD"/>
		<stop  offset="1" style="stop-color:#0063B0"/>
	</linearGradient>
	<path fill="url(#SVGID_1_)" d="M696.8,695.1c0-96.5-23.8-150.5-61-203l0,0c-34.4-47.1-63.4-78-98.2-125.8
		c-63-86.5-113.2-213.7-128.7-306.9c-18.3,110.4-62.8,216.4-128.7,306.9c-34.8,47.8-67.7,95.2-97.4,142.1l0.3,0c-2,3.2-4,6.6-6,10.1
		c-23.9,41.6-51.5,105.8-56.9,176.5c-9,171.6,132.5,303,296,303S699.2,868.6,696.8,695.1z"/>
</g>
<linearGradient id="SVGID_2_" gradientUnits="userSpaceOnUse" x1="241.8016" y1="784.2044" x2="396" y2="784.2044">
	<stop  offset="0" style="stop-color:#00A651"/>
	<stop  offset="0.6609" style="stop-color:#007998"/>
	<stop  offset="1" style="stop-color:#0063B0"/>
</linearGradient>
<linearGradient id="SVGID_3_" gradientUnits="userSpaceOnUse" x1="241.3016" y1="784.2044" x2="396.5" y2="784.2044">
	<stop  offset="0" style="stop-color:#00A651"/>
	<stop  offset="0.1255" style="stop-color:#009966"/>
	<stop  offset="0.305" style="stop-color:#008983"/>
	<stop  offset="0.4772" style="stop-color:#007C95"/>
	<stop  offset="0.6373" style="stop-color:#0071A1"/>
	<stop  offset="0.7826" style="stop-color:#0069A9"/>
	<stop  offset="0.9083" style="stop-color:#0065AD"/>
	<stop  offset="1" style="stop-color:#0063B0"/>
</linearGradient>
<circle fill="url(#SVGID_2_)" stroke="url(#SVGID_3_)" stroke-miterlimit="10" cx="318.9" cy="784.2" r="77.1"/>
<g>
</g>
<g>
</g>
<g>
</g>
<g>
</g>
<g>
</g>
<g>
</g>
</svg>
