<svg version="1.1" id="Layer_1" xmlns="http://www.w3.org/2000/svg" xmlns:xlink="http://www.w3.org/1999/xlink" x="0px" y="0px"
	 width="100%" viewBox="0 0 300 173" enable-background="new 0 0 300 173" xml:space="preserve">
<path fill="#F3F3F3" opacity="1.000000" stroke="none" 
	d="
M180.000000,174.000000 
	C120.000008,174.000000 60.500015,174.000000 1.000016,174.000000 
	C1.000011,116.333351 1.000011,58.666695 1.000005,1.000031 
	C100.999969,1.000021 200.999939,1.000021 300.999939,1.000010 
	C300.999939,58.666637 300.999939,116.333275 300.999969,173.999954 
	C260.833344,174.000000 220.666672,174.000000 180.000000,174.000000 
M213.484039,133.499405 
	C213.783478,134.651550 214.082916,135.803696 214.292969,137.618973 
	C214.769211,138.508835 215.245438,139.398712 215.914902,140.649628 
	C214.376801,140.788437 213.185669,140.895920 211.482117,140.185562 
	C211.419052,129.062988 211.356003,117.940407 212.146957,107.009964 
	C220.068466,109.107353 224.245758,106.898483 227.422958,99.402275 
	C227.960602,98.133743 229.768280,96.970413 231.208923,96.589455 
	C239.291214,94.452187 242.641861,86.780190 238.517349,79.516251 
	C237.894302,78.418930 237.515884,77.182693 237.519882,75.877625 
	C237.669876,75.584663 237.819855,75.291702 238.599197,74.506378 
	C238.761810,71.228821 238.924423,67.951271 239.242661,64.554153 
	C239.242661,64.554153 238.950363,64.340706 238.816208,63.778889 
	C238.541321,63.520145 238.266449,63.261402 237.845383,62.419144 
	C237.229767,61.950031 236.614151,61.480919 235.523575,60.401466 
	C234.839859,59.582542 233.842728,58.864124 233.540863,57.922756 
	C232.994019,56.217381 224.725143,41.612919 223.395676,40.715504 
	C222.575363,40.161781 221.663605,39.370560 220.779068,39.352169 
	C217.633804,39.286777 216.176651,37.823021 214.702637,34.959545 
	C212.044693,29.796131 204.515778,30.160868 201.586304,35.231953 
	C200.864822,36.480873 200.451996,37.908077 199.947876,39.130592 
	C191.692932,39.449432 189.486221,41.893387 189.222473,50.673225 
	C181.888214,54.324638 181.049591,56.382988 182.773880,66.500916 
	C172.878448,72.880005 174.319092,83.149803 183.992554,88.605026 
	C179.505920,99.212151 182.981003,104.129700 194.904419,104.130211 
	C195.612335,104.130241 196.348495,104.613724 197.023041,104.965248 
	C199.455582,106.232910 201.867371,107.540390 204.269287,109.798508 
	C204.269287,120.430786 204.269287,131.063065 204.269287,141.857285 
	C206.904449,141.857285 209.359741,141.857285 212.772797,141.942551 
	C221.480804,141.942551 230.188828,141.942551 238.896835,141.942551 
	C238.900146,141.600388 238.903458,141.258209 238.906769,140.916046 
	C234.532547,140.916046 230.158325,140.916046 225.498459,140.916046 
	C226.124924,139.290909 226.804031,138.247757 226.895798,137.155289 
	C227.161987,133.986603 227.427719,130.786255 223.807388,128.946442 
	C220.247269,127.137230 217.817947,128.462616 215.713882,131.345901 
	C215.246201,131.986786 214.527512,132.444489 213.484039,133.499405 
M73.844719,109.708595 
	C73.844719,120.336838 73.844719,130.965088 73.844719,141.735641 
	C74.437653,141.735641 76.010620,141.735641 77.765739,141.735641 
	C77.765739,130.099762 77.765739,118.653503 78.559181,107.158524 
	C80.386536,105.958649 83.148888,105.163895 83.875443,103.487061 
	C86.659668,97.061172 88.596336,90.487923 83.453629,83.952553 
	C81.134361,81.005211 74.337296,76.800194 72.846321,78.646614 
	C69.748863,82.482529 67.440369,86.973389 65.004684,91.305847 
	C64.653603,91.930328 65.469772,93.158051 65.610443,94.126274 
	C65.763306,95.178467 65.979134,96.296135 65.783745,97.311401 
	C64.926880,101.764030 69.008720,107.671692 73.844719,109.708595 
M131.053909,108.656380 
	C131.053909,119.613182 131.053909,130.569977 131.053909,141.648041 
	C132.515366,141.648041 134.591675,141.648041 136.077393,141.648041 
	C136.077393,130.179749 136.077393,118.956421 136.576065,107.260124 
	C138.336395,105.053040 140.074234,103.624161 143.460739,103.810394 
	C148.378647,104.080833 151.511017,99.219109 150.646530,94.040123 
	C150.448212,92.852158 150.136734,91.316307 150.678391,90.430290 
	C154.607437,84.003349 154.653488,83.777817 149.779236,78.832939 
	C151.968674,71.830124 151.786072,71.351692 145.414795,66.062134 
	C144.930649,65.660187 144.587097,64.845207 144.541336,64.196602 
	C144.087448,57.761448 137.118942,56.756214 134.302246,52.193771 
	C133.888474,51.523552 129.465424,52.373924 127.836136,53.686211 
	C126.309242,54.916031 126.027542,57.691841 125.032654,60.204639 
	C120.998833,61.312988 119.381279,64.181778 118.697510,69.049370 
	C118.221565,72.437523 114.175674,75.202721 112.387680,78.595657 
	C111.783447,79.742264 113.314888,81.940407 113.677711,83.697754 
	C113.902061,84.784454 114.131294,86.104271 113.725800,87.047516 
	C111.650146,91.875862 117.257057,102.952255 122.405663,103.921272 
	C122.730835,103.982468 123.121346,104.112137 123.389801,103.996735 
	C127.377724,102.282570 129.215378,105.086716 131.053909,108.656380 
M187.193619,139.478043 
	C191.694611,140.631134 196.195602,141.784241 200.696579,142.937332 
	C200.824112,142.444717 200.951645,141.952103 201.079178,141.459488 
	C199.931641,141.177246 198.784088,140.895004 197.623779,140.609634 
	C200.778839,131.580765 198.670578,127.938095 190.450638,128.135223 
	C190.132721,127.164665 189.809799,126.178787 189.056824,123.879997 
	C188.135178,129.822327 187.431458,134.359711 187.193619,139.478043 
z"/>
<path fill="#09CA84" opacity="1.000000" stroke="none" 
	d="
M237.024307,76.010719 
	C237.515884,77.182693 237.894302,78.418930 238.517349,79.516251 
	C242.641861,86.780190 239.291214,94.452187 231.208923,96.589455 
	C229.768280,96.970413 227.960602,98.133743 227.422958,99.402275 
	C224.245758,106.898483 220.068466,109.107353 211.511902,106.703239 
	C208.680222,107.208626 206.483612,108.020729 204.286987,108.832840 
	C201.867371,107.540390 199.455582,106.232910 197.023041,104.965248 
	C196.348495,104.613724 195.612335,104.130241 194.904419,104.130211 
	C182.981003,104.129700 179.505920,99.212151 183.992554,88.605026 
	C174.319092,83.149803 172.878448,72.880005 182.773880,66.500916 
	C181.049591,56.382988 181.888214,54.324638 189.222473,50.673225 
	C189.486221,41.893387 191.692932,39.449432 199.947876,39.130592 
	C200.451996,37.908077 200.864822,36.480873 201.586304,35.231953 
	C204.515778,30.160868 212.044693,29.796131 214.702637,34.959545 
	C216.176651,37.823021 217.633804,39.286777 220.779068,39.352169 
	C221.663605,39.370560 222.575363,40.161781 223.395676,40.715504 
	C224.725143,41.612919 232.994019,56.217381 233.540863,57.922756 
	C233.842728,58.864124 234.839859,59.582542 235.806595,61.023056 
	C236.723587,62.097317 237.357574,62.549992 237.991562,63.002663 
	C238.266449,63.261402 238.541321,63.520145 238.908630,64.114639 
	C239.001068,64.450386 239.087051,64.673714 239.087051,64.673714 
	C238.924423,67.951271 238.761810,71.228821 238.059982,74.762428 
	C237.355286,75.349228 237.189789,75.679970 237.024307,76.010719 
M214.131012,42.305622 
	C213.638382,41.970081 213.145767,41.634541 212.207397,41.218418 
	C211.909561,41.186314 211.612717,41.193619 210.890350,40.670719 
	C207.299225,40.118813 204.702271,41.759533 203.763931,44.998432 
	C203.270416,46.701996 203.698059,49.380615 204.817505,50.611355 
	C205.660080,51.537708 208.265167,50.860928 210.520004,50.931229 
	C210.520004,50.931229 210.952499,50.879555 211.699768,50.992268 
	C214.547791,49.964779 215.710602,48.067158 215.149155,44.708832 
	C214.797928,44.103813 214.446701,43.498798 214.013062,42.945839 
	C214.013062,42.945839 214.110504,42.943298 214.131012,42.305622 
M216.370590,55.968376 
	C215.609695,56.671032 214.848785,57.373688 213.923950,58.739502 
	C213.907776,60.163944 213.891617,61.588383 214.029922,63.786366 
	C215.635284,67.395889 218.932571,66.671959 221.090744,65.474457 
	C222.865448,64.489716 224.454361,61.703163 224.528687,59.657177 
	C224.575165,58.378136 221.660339,56.991501 219.665588,55.198589 
	C218.821686,55.470085 217.977768,55.741577 216.370590,55.968376 
M225.461319,69.373390 
	C225.461319,69.373390 225.325592,69.549637 224.678329,69.697487 
	C221.645584,71.524971 221.079163,73.649803 223.905228,76.848755 
	C224.876266,77.563713 225.847290,78.278671 227.342010,79.536362 
	C231.860138,80.513565 234.572922,78.852905 235.555206,73.635147 
	C233.960739,71.459641 232.366272,69.284134 231.519516,67.033569 
	C232.349564,66.510544 233.179611,65.987511 234.009674,65.464485 
	C233.646423,64.993729 233.283173,64.522964 232.919922,64.052208 
	C231.947205,65.019836 230.974487,65.987473 229.338654,67.079613 
	C228.382019,67.569084 227.425385,68.058548 226.433426,68.593506 
	C226.433426,68.593506 226.414932,68.648041 226.068176,68.737129 
	C225.841904,68.859940 225.710022,69.048752 225.461319,69.373390 
M203.530716,77.130692 
	C203.530716,77.130692 203.299347,77.191399 202.537292,77.152573 
	C201.840683,78.398758 200.415985,79.763252 200.595367,80.867096 
	C200.999100,83.351662 201.549652,86.684715 203.266525,87.822739 
	C204.790726,88.833046 209.174835,88.168617 210.126770,86.768364 
	C211.471558,84.790207 211.733322,81.062286 210.766861,78.807114 
	C209.770187,76.481461 206.811447,74.719528 203.530716,77.130692 
M226.037384,90.707626 
	C224.994370,87.545891 223.022461,85.346298 219.503708,86.119934 
	C217.844223,86.484779 215.688049,87.725075 215.093491,89.133080 
	C213.929550,91.889389 214.032776,94.851624 217.665512,96.311302 
	C221.137527,97.706375 224.226608,95.990707 226.037384,90.707626 
M197.213501,67.757965 
	C196.224518,64.715385 195.235519,61.672813 194.167664,58.387596 
	C189.837341,60.947300 185.330902,61.949993 186.427368,66.726387 
	C186.868210,68.646774 189.348526,71.016121 191.260941,71.403809 
	C192.919022,71.739944 195.085999,69.565880 197.213501,67.757965 
M195.582199,100.027702 
	C199.088760,100.172035 201.430511,98.545975 201.949875,95.101852 
	C202.519287,91.325882 201.048477,88.769394 196.940994,87.875145 
	C192.588425,86.927544 190.199112,89.466301 189.300232,92.755592 
	C188.199585,96.783264 190.705673,99.266556 195.582199,100.027702 
z"/>
<path fill="#0ACB84" opacity="1.000000" stroke="none" 
	d="
M131.169571,107.658569 
	C129.215378,105.086716 127.377724,102.282570 123.389801,103.996735 
	C123.121346,104.112137 122.730835,103.982468 122.405663,103.921272 
	C117.257057,102.952255 111.650146,91.875862 113.725800,87.047516 
	C114.131294,86.104271 113.902061,84.784454 113.677711,83.697754 
	C113.314888,81.940407 111.783447,79.742264 112.387680,78.595657 
	C114.175674,75.202721 118.221565,72.437523 118.697510,69.049370 
	C119.381279,64.181778 120.998833,61.312988 125.032654,60.204639 
	C126.027542,57.691841 126.309242,54.916031 127.836136,53.686211 
	C129.465424,52.373924 133.888474,51.523552 134.302246,52.193771 
	C137.118942,56.756214 144.087448,57.761448 144.541336,64.196602 
	C144.587097,64.845207 144.930649,65.660187 145.414795,66.062134 
	C151.786072,71.351692 151.968674,71.830124 149.779236,78.832939 
	C154.653488,83.777817 154.607437,84.003349 150.678391,90.430290 
	C150.136734,91.316307 150.448212,92.852158 150.646530,94.040123 
	C151.511017,99.219109 148.378647,104.080833 143.460739,103.810394 
	C140.074234,103.624161 138.336395,105.053040 135.916962,107.505661 
	C133.895081,107.720322 132.532333,107.689445 131.169571,107.658569 
M134.907959,71.391380 
	C134.878326,71.897293 134.848694,72.403198 134.131287,73.698959 
	C133.282654,77.387444 135.349670,78.394852 138.465317,78.333054 
	C143.387589,78.235428 145.515381,73.944305 142.903198,68.300308 
	C140.953110,67.590637 139.003021,66.880966 136.307281,66.085083 
	C133.487656,67.075241 133.105865,68.759193 134.907959,71.391380 
M122.696739,92.942978 
	C123.980629,92.677925 125.345917,92.607132 126.532555,92.109962 
	C129.604309,90.822945 131.818420,88.227249 130.292511,85.189880 
	C129.170944,82.957390 126.268532,80.732773 123.825363,80.270042 
	C120.594917,79.658226 118.701363,82.584755 118.053551,85.695778 
	C117.351128,89.069077 118.903870,91.407623 122.696739,92.942978 
M142.982483,92.989174 
	C141.348557,90.441574 139.609268,87.690071 136.042679,89.604591 
	C133.443451,90.999847 130.603043,93.262627 132.364563,96.495872 
	C133.440720,98.471146 136.466263,100.655548 138.501083,100.548859 
	C141.815170,100.375114 143.855347,97.645561 142.982483,92.989174 
z"/>
<path fill="#11C785" opacity="1.000000" stroke="none" 
	d="
M73.791725,108.731544 
	C69.008720,107.671692 64.926880,101.764030 65.783745,97.311401 
	C65.979134,96.296135 65.763306,95.178467 65.610443,94.126274 
	C65.469772,93.158051 64.653603,91.930328 65.004684,91.305847 
	C67.440369,86.973389 69.748863,82.482529 72.846321,78.646614 
	C74.337296,76.800194 81.134361,81.005211 83.453629,83.952553 
	C88.596336,90.487923 86.659668,97.061172 83.875443,103.487061 
	C83.148888,105.163895 80.386536,105.958649 77.872452,107.143753 
	C76.054390,107.663170 74.923058,108.197357 73.791725,108.731544 
M79.927559,100.573479 
	C79.927559,100.573479 80.041206,100.275574 80.678322,99.769272 
	C81.854652,96.168007 81.170982,93.026367 77.521637,91.555382 
	C74.944603,90.516640 71.968567,90.261002 70.360977,94.337212 
	C70.606300,95.231468 70.851631,96.125732 70.995049,97.746864 
	C70.119179,102.580307 72.188225,103.915215 78.636063,102.112457 
	C78.987823,101.670845 79.339577,101.229240 79.927559,100.573479 
z"/>
<path fill="#1A1B1A" opacity="1.000000" stroke="none" 
	d="
M204.278137,109.315674 
	C206.483612,108.020729 208.680222,107.208626 211.084900,106.607170 
	C211.356003,117.940407 211.419052,129.062988 211.667816,140.802551 
	C211.853516,141.419556 211.815018,141.857285 211.815018,141.857285 
	C209.359741,141.857285 206.904449,141.857285 204.269287,141.857285 
	C204.269287,131.063065 204.269287,120.430786 204.278137,109.315674 
z"/>
<path fill="#121212" opacity="1.000000" stroke="none" 
	d="
M131.111740,108.157471 
	C132.532333,107.689445 133.895081,107.720322 135.667618,107.742142 
	C136.077393,118.956421 136.077393,130.179749 136.077393,141.648041 
	C134.591675,141.648041 132.515366,141.648041 131.053909,141.648041 
	C131.053909,130.569977 131.053909,119.613182 131.111740,108.157471 
z"/>
<path fill="#242525" opacity="1.000000" stroke="none" 
	d="
M73.818222,109.220070 
	C74.923058,108.197357 76.054390,107.663170 77.475731,107.168121 
	C77.765739,118.653503 77.765739,130.099762 77.765739,141.735641 
	C76.010620,141.735641 74.437653,141.735641 73.844719,141.735641 
	C73.844719,130.965088 73.844719,120.336838 73.818222,109.220070 
z"/>
<path fill="#B4B0B4" opacity="1.000000" stroke="none" 
	d="
M212.293915,141.899918 
	C211.815018,141.857285 211.853516,141.419556 211.924026,141.211487 
	C213.185669,140.895920 214.376801,140.788437 215.914902,140.649628 
	C215.245438,139.398712 214.769211,138.508835 214.526810,137.103821 
	C215.204071,135.919998 215.647491,135.251343 216.098923,134.570618 
	C215.381271,134.047836 214.652832,133.517181 213.924377,132.986526 
	C214.527512,132.444489 215.246201,131.986786 215.713882,131.345901 
	C217.817947,128.462616 220.247269,127.137230 223.807388,128.946442 
	C227.427719,130.786255 227.161987,133.986603 226.895798,137.155289 
	C226.804031,138.247757 226.124924,139.290909 225.498459,140.916046 
	C230.158325,140.916046 234.532547,140.916046 238.906769,140.916046 
	C238.903458,141.258209 238.900146,141.600388 238.896835,141.942551 
	C230.188828,141.942551 221.480804,141.942551 212.293915,141.899918 
M220.633713,135.238022 
	C221.939438,135.384766 223.245163,135.531509 225.394852,135.773102 
	C224.117920,134.297821 223.597458,133.696503 223.121353,132.507355 
	C222.833801,132.271652 222.546249,132.035934 221.720016,131.427765 
	C218.278839,131.684448 217.992538,131.963577 218.993393,134.548401 
	C219.322495,134.700745 219.651611,134.853073 220.633713,135.238022 
z"/>
<path fill="#B4B0B6" opacity="1.000000" stroke="none" 
	d="
M186.960663,139.187561 
	C187.431458,134.359711 188.135178,129.822327 189.056824,123.879997 
	C189.809799,126.178787 190.132721,127.164665 190.450638,128.135223 
	C198.670578,127.938095 200.778839,131.580765 197.623779,140.609634 
	C198.784088,140.895004 199.931641,141.177246 201.079178,141.459488 
	C200.951645,141.952103 200.824112,142.444717 200.696579,142.937332 
	C196.195602,141.784241 191.694611,140.631134 186.960663,139.187561 
M188.479858,133.338089 
	C188.619888,134.285629 188.759918,135.233185 189.423294,136.617508 
	C190.315277,136.742767 191.207275,136.868027 192.762741,136.915863 
	C193.597061,136.212219 194.431366,135.508575 195.840225,134.842865 
	C196.222504,134.877686 196.604767,134.912506 197.234009,135.276596 
	C197.181610,134.840881 197.129227,134.405182 196.971375,133.254196 
	C193.672028,128.790222 192.617416,128.754608 188.994781,132.995178 
	C188.994781,132.995178 188.990311,132.955597 188.479858,133.338089 
z"/>
<path fill="#D0D0D1" opacity="1.000000" stroke="none" 
	d="
M213.704208,133.242966 
	C214.652832,133.517181 215.381271,134.047836 216.098923,134.570618 
	C215.647491,135.251343 215.204071,135.919998 214.571503,136.772247 
	C214.082916,135.803696 213.783478,134.651550 213.704208,133.242966 
z"/>
<path fill="#10CB85" opacity="1.000000" stroke="none" 
	d="
M237.918472,62.710907 
	C237.357574,62.549992 236.723587,62.097317 236.044067,61.328224 
	C236.614151,61.480919 237.229767,61.950031 237.918472,62.710907 
z"/>
<path fill="#10CB85" opacity="1.000000" stroke="none" 
	d="
M237.272095,75.944168 
	C237.189789,75.679970 237.355286,75.349228 237.745300,75.008606 
	C237.819855,75.291702 237.669876,75.584663 237.272095,75.944168 
z"/>
<path fill="#10CB85" opacity="1.000000" stroke="none" 
	d="
M239.164856,64.613937 
	C239.087051,64.673714 239.001068,64.450386 238.975708,64.395546 
	C238.950363,64.340706 239.242661,64.554153 239.164856,64.613937 
z"/>
<path fill="#AEB4B3" opacity="1.000000" stroke="none" 
	d="
M203.767883,77.161545 
	C206.811447,74.719528 209.770187,76.481461 210.766861,78.807114 
	C211.733322,81.062286 211.471558,84.790207 210.126770,86.768364 
	C209.174835,88.168617 204.790726,88.833046 203.266525,87.822739 
	C201.549652,86.684715 200.999100,83.351662 200.595367,80.867096 
	C200.415985,79.763252 201.840683,78.398758 202.789032,77.548752 
	C201.713272,81.074646 200.875702,84.122841 204.531891,87.658180 
	C204.217926,83.344650 203.992905,80.253098 203.767883,77.161545 
z"/>
<path fill="#DFDEE0" opacity="1.000000" stroke="none" 
	d="
M226.019470,91.103027 
	C224.226608,95.990707 221.137527,97.706375 217.665512,96.311302 
	C214.032776,94.851624 213.929550,91.889389 215.093491,89.133080 
	C215.688049,87.725075 217.844223,86.484779 219.503708,86.119934 
	C223.022461,85.346298 224.994370,87.545891 226.019470,91.103027 
z"/>
<path fill="#E5E4E5" opacity="1.000000" stroke="none" 
	d="
M197.120773,68.129623 
	C195.085999,69.565880 192.919022,71.739944 191.260941,71.403809 
	C189.348526,71.016121 186.868210,68.646774 186.427368,66.726387 
	C185.330902,61.949993 189.837341,60.947300 194.167664,58.387596 
	C195.235519,61.672813 196.224518,64.715385 197.120773,68.129623 
M193.521027,68.915764 
	C194.092087,68.465775 194.663147,68.015785 196.102585,66.881538 
	C194.120071,67.003197 193.133499,67.063736 192.146912,67.124283 
	C192.443909,67.821564 192.740906,68.518852 193.521027,68.915764 
z"/>
<path fill="#B0AFB1" opacity="1.000000" stroke="none" 
	d="
M195.178558,100.016251 
	C190.705673,99.266556 188.199585,96.783264 189.300232,92.755592 
	C190.199112,89.466301 192.588425,86.927544 196.940994,87.875145 
	C201.048477,88.769394 202.519287,91.325882 201.949875,95.101852 
	C201.430511,98.545975 199.088760,100.172035 195.178558,100.016251 
M196.526947,90.126282 
	C195.682999,91.112961 194.839050,92.099640 194.095673,93.796913 
	C194.072433,94.275040 194.049210,94.753166 193.923889,95.955940 
	C195.146500,96.450027 196.369110,96.944107 197.591721,97.438194 
	C198.087341,95.954872 198.582947,94.471550 198.945572,92.305534 
	C198.308716,91.719643 197.671844,91.133743 196.526947,90.126282 
z"/>
<path fill="#ACABB1" opacity="1.000000" stroke="none" 
	d="
M210.085693,50.897758 
	C208.265167,50.860928 205.660080,51.537708 204.817505,50.611355 
	C203.698059,49.380615 203.270416,46.701996 203.763931,44.998432 
	C204.702271,41.759533 207.299225,40.118813 211.019928,41.253990 
	C211.083572,42.245594 211.017624,42.653927 210.598541,43.072296 
	C206.799362,45.618149 208.082474,48.250595 210.085693,50.897758 
z"/>
<path fill="#ABB2B1" opacity="1.000000" stroke="none" 
	d="
M220.074341,55.653145 
	C221.660339,56.991501 224.575165,58.378136 224.528687,59.657177 
	C224.454361,61.703163 222.865448,64.489716 221.090744,65.474457 
	C218.932571,66.671959 215.635284,67.395889 214.216797,63.223061 
	C214.636734,62.306847 214.869797,61.953941 215.397400,61.425232 
	C217.192825,61.486958 218.693695,61.724491 220.546753,61.932014 
	C221.196548,60.939281 221.494171,59.976562 221.777374,58.743767 
	C221.135071,57.847134 220.507187,57.220577 219.867157,56.346176 
	C219.855026,56.098335 220.074341,55.653145 220.074341,55.653145 
z"/>
<path fill="#A5ABAD" opacity="1.000000" stroke="none" 
	d="
M230.771820,67.108627 
	C232.366272,69.284134 233.960739,71.459641 235.263992,73.815353 
	C234.972778,73.995560 234.738205,73.840652 234.516418,73.588135 
	C232.899857,73.228340 231.505081,73.121063 229.785797,73.001801 
	C229.030762,73.020454 228.600250,73.051102 228.135681,72.744293 
	C228.332108,71.350487 228.562592,70.294121 228.815918,69.133018 
	C228.035751,68.938576 227.252258,68.743294 226.468750,68.548019 
	C227.425385,68.058548 228.382019,67.569084 229.856232,67.088364 
	C230.373795,67.097107 230.771820,67.108627 230.771820,67.108627 
z"/>
<path fill="#C9CACC" opacity="1.000000" stroke="none" 
	d="
M226.451080,68.570763 
	C227.252258,68.743294 228.035751,68.938576 228.815918,69.133018 
	C228.562592,70.294121 228.332108,71.350487 228.014191,72.999100 
	C228.625092,74.358368 229.323410,75.125389 229.917664,76.203339 
	C228.815155,77.340721 227.816742,78.167183 226.818329,78.993637 
	C225.847290,78.278671 224.876266,77.563713 224.164093,76.240562 
	C224.723816,73.604790 225.024704,71.577217 225.325592,69.549637 
	C225.325592,69.549637 225.461319,69.373390 225.814880,69.448669 
	C226.250610,69.231979 226.332764,68.940010 226.414917,68.648041 
	C226.414932,68.648041 226.433426,68.593506 226.451080,68.570763 
z"/>
<path fill="#A5ABAD" opacity="1.000000" stroke="none" 
	d="
M227.080170,79.264999 
	C227.816742,78.167183 228.815155,77.340721 230.021133,75.964760 
	C230.477890,74.955803 230.727081,74.496338 231.356400,74.020203 
	C232.737091,73.949234 233.737640,73.894943 234.738205,73.840652 
	C234.738205,73.840652 234.972778,73.995560 235.089569,74.074799 
	C234.572922,78.852905 231.860138,80.513565 227.080170,79.264999 
z"/>
<path fill="#3D3E3D" opacity="1.000000" stroke="none" 
	d="
M210.302856,50.914494 
	C208.082474,48.250595 206.799362,45.618149 210.720276,43.383270 
	C213.720566,46.170559 211.931839,48.511406 210.952499,50.879555 
	C210.952499,50.879555 210.520004,50.931229 210.302856,50.914494 
z"/>
<path fill="#EAE8E9" opacity="1.000000" stroke="none" 
	d="
M211.326141,50.935913 
	C211.931839,48.511406 213.720566,46.170559 211.073425,43.373238 
	C211.017624,42.653927 211.083572,42.245594 211.233185,41.538792 
	C211.612717,41.193619 211.909561,41.186314 212.507141,41.550419 
	C213.241409,42.236046 213.675964,42.589672 214.110504,42.943298 
	C214.110504,42.943298 214.013062,42.945839 213.999390,43.227966 
	C214.242065,44.031925 214.498413,44.553757 214.754761,45.075592 
	C215.710602,48.067158 214.547791,49.964779 211.326141,50.935913 
z"/>
<path fill="#E5E4E5" opacity="1.000000" stroke="none" 
	d="
M203.649292,77.146118 
	C203.992905,80.253098 204.217926,83.344650 204.531891,87.658180 
	C200.875702,84.122841 201.713272,81.074646 203.170074,77.568161 
	C203.299347,77.191399 203.530716,77.130692 203.649292,77.146118 
z"/>
<path fill="#A5ABAD" opacity="1.000000" stroke="none" 
	d="
M225.001953,69.623566 
	C225.024704,71.577217 224.723816,73.604790 224.159714,75.907471 
	C221.079163,73.649803 221.645584,71.524971 225.001953,69.623566 
z"/>
<path fill="#10CB85" opacity="1.000000" stroke="none" 
	d="
M231.145660,67.071098 
	C230.771820,67.108627 230.373795,67.097107 230.187790,67.026108 
	C230.974487,65.987473 231.947205,65.019836 232.919922,64.052208 
	C233.283173,64.522964 233.646423,64.993729 234.009674,65.464485 
	C233.179611,65.987511 232.349564,66.510544 231.145660,67.071098 
z"/>
<path fill="#E5E4E5" opacity="1.000000" stroke="none" 
	d="
M215.102859,61.601036 
	C214.869797,61.953941 214.636734,62.306847 214.139557,62.836288 
	C213.891617,61.588383 213.907776,60.163944 214.287048,58.400082 
	C214.837509,58.057224 215.024857,58.053783 215.168045,58.277233 
	C215.123886,58.504120 215.069717,58.963230 214.940643,59.382614 
	C214.865906,60.380283 214.920227,60.958565 215.007095,61.551941 
	C215.039642,61.567039 215.102859,61.601032 215.102859,61.601036 
z"/>
<path fill="#C9CACC" opacity="1.000000" stroke="none" 
	d="
M215.212204,58.050346 
	C215.024857,58.053783 214.837509,58.057224 214.369019,58.068504 
	C214.848785,57.373688 215.609695,56.671032 216.817978,56.098000 
	C217.265366,56.227619 217.243546,56.478313 217.070618,56.674381 
	C216.335861,57.263748 215.774033,57.657047 215.212204,58.050346 
z"/>
<path fill="#ACABB1" opacity="1.000000" stroke="none" 
	d="
M214.951965,44.892212 
	C214.498413,44.553757 214.242065,44.031925 214.040588,43.201935 
	C214.446701,43.498798 214.797928,44.103813 214.951965,44.892212 
z"/>
<path fill="#E5E4E5" opacity="1.000000" stroke="none" 
	d="
M217.199615,56.120346 
	C217.977768,55.741577 218.821686,55.470085 219.869965,55.425865 
	C220.074341,55.653145 219.855026,56.098335 219.544891,56.250824 
	C218.571030,56.428310 217.907288,56.453312 217.243546,56.478313 
	C217.243546,56.478313 217.265366,56.227619 217.199615,56.120346 
z"/>
<path fill="#ACABB1" opacity="1.000000" stroke="none" 
	d="
M214.120758,42.624462 
	C213.675964,42.589672 213.241409,42.236046 212.730011,41.590714 
	C213.145767,41.634541 213.638382,41.970081 214.120758,42.624462 
z"/>
<path fill="#A5ABAD" opacity="1.000000" stroke="none" 
	d="
M226.241547,68.692581 
	C226.332764,68.940010 226.250610,69.231979 225.920486,69.413765 
	C225.710022,69.048752 225.841904,68.859940 226.241547,68.692581 
z"/>
<path fill="#B2B3B5" opacity="1.000000" stroke="none" 
	d="
M122.301537,92.913422 
	C118.903870,91.407623 117.351128,89.069077 118.053551,85.695778 
	C118.701363,82.584755 120.594917,79.658226 123.825363,80.270042 
	C126.268532,80.732773 129.170944,82.957390 130.292511,85.189880 
	C131.818420,88.227249 129.604309,90.822945 126.532555,92.109962 
	C125.345917,92.607132 123.980629,92.677925 122.301537,92.913422 
z"/>
<path fill="#E7E4E7" opacity="1.000000" stroke="none" 
	d="
M143.004578,93.397858 
	C143.855347,97.645561 141.815170,100.375114 138.501083,100.548859 
	C136.466263,100.655548 133.440720,98.471146 132.364563,96.495872 
	C130.603043,93.262627 133.443451,90.999847 136.042679,89.604591 
	C139.609268,87.690071 141.348557,90.441574 143.004578,93.397858 
z"/>
<path fill="#A8B0AD" opacity="1.000000" stroke="none" 
	d="
M143.178802,68.894821 
	C145.515381,73.944305 143.387589,78.235428 138.465317,78.333054 
	C135.349670,78.394852 133.282654,77.387444 134.640045,73.717484 
	C135.859161,73.784775 136.569519,73.833534 137.635254,73.864059 
	C138.700821,73.891785 139.410980,73.937744 140.462006,73.964493 
	C141.186981,73.298447 141.571106,72.651627 141.988983,71.682465 
	C141.657455,70.586197 141.292145,69.812263 141.302826,69.024124 
	C142.178818,68.971550 142.678818,68.933189 143.178802,68.894821 
z"/>
<path fill="#BDBEBE" opacity="1.000000" stroke="none" 
	d="
M143.041000,68.597565 
	C142.678818,68.933189 142.178818,68.971550 140.917740,68.939331 
	C139.112274,68.838135 138.067902,68.807526 137.004486,68.451187 
	C137.007950,67.474068 137.030441,66.822678 137.052948,66.171295 
	C139.003021,66.880966 140.953110,67.590637 143.041000,68.597565 
z"/>
<path fill="#A8B0AD" opacity="1.000000" stroke="none" 
	d="
M136.680115,66.128189 
	C137.030441,66.822678 137.007950,67.474068 136.762115,68.604858 
	C136.166489,69.508842 135.794189,69.933426 135.277374,70.524490 
	C135.132843,70.690979 134.891464,71.059967 134.891464,71.059967 
	C133.105865,68.759193 133.487656,67.075241 136.680115,66.128189 
z"/>
<path fill="#363435" opacity="1.000000" stroke="none" 
	d="
M134.899719,71.225677 
	C134.891464,71.059967 135.132843,70.690979 135.496536,70.773514 
	C136.015991,71.013054 136.171738,71.170067 136.365997,71.562599 
	C136.404510,71.798126 136.640549,72.214935 136.640549,72.214935 
	C136.640549,72.214935 137.079590,72.022476 137.052200,72.005318 
	C137.024811,71.988159 136.975800,71.946022 136.710754,72.243469 
	C136.723770,72.988037 137.001816,73.435165 137.279861,73.882294 
	C136.569519,73.833534 135.859161,73.784775 134.983948,73.322563 
	C134.848694,72.403198 134.878326,71.897293 134.899719,71.225677 
z"/>
<path fill="#BDBEBE" opacity="1.000000" stroke="none" 
	d="
M70.770164,93.974625 
	C71.968567,90.261002 74.944603,90.516640 77.521637,91.555382 
	C81.170982,93.026367 81.854652,96.168007 80.336403,99.626640 
	C79.937935,98.260269 79.881386,97.036530 79.822197,95.755562 
	C78.132164,96.252480 76.664711,96.683960 75.158203,96.837029 
	C74.446037,96.729614 73.772934,96.900597 73.046387,96.730240 
	C72.252022,95.584137 71.511093,94.779381 70.770164,93.974625 
z"/>
<path fill="#DFDEE0" opacity="1.000000" stroke="none" 
	d="
M75.197266,97.115433 
	C76.664711,96.683960 78.132164,96.252480 79.822197,95.755562 
	C79.881386,97.036530 79.937935,98.260269 80.017845,99.879791 
	C80.041206,100.275574 79.927559,100.573479 79.513863,100.760117 
	C78.753143,101.399330 78.406128,101.851906 78.059105,102.304482 
	C72.188225,103.915215 70.119179,102.580307 71.439636,97.438988 
	C72.144836,97.179344 72.405457,97.227577 72.684616,97.492088 
	C73.465706,97.788139 74.228271,97.867920 75.021347,98.258347 
	C75.684143,98.765366 76.316422,98.961731 76.948708,99.158096 
	C77.032593,98.819519 77.116470,98.480942 77.200356,98.142372 
	C76.448776,98.092949 75.697205,98.043518 74.997726,97.771332 
	C75.049820,97.548569 75.197266,97.115433 75.197266,97.115433 
z"/>
<path fill="#DAD7D7" opacity="1.000000" stroke="none" 
	d="
M72.666077,97.275818 
	C72.405457,97.227577 72.144836,97.179344 71.490593,97.075546 
	C70.851631,96.125732 70.606300,95.231468 70.565567,94.155914 
	C71.511093,94.779381 72.252022,95.584137 72.940186,96.786652 
	C72.887428,97.184418 72.666077,97.275818 72.666077,97.275818 
z"/>
<path fill="#BDBEBE" opacity="1.000000" stroke="none" 
	d="
M78.347580,102.208466 
	C78.406128,101.851906 78.753143,101.399330 79.395752,100.867188 
	C79.339577,101.229240 78.987823,101.670845 78.347580,102.208466 
z"/>
<path fill="#1A1B1A" opacity="1.000000" stroke="none" 
	d="
M219.015533,134.064468 
	C217.992538,131.963577 218.278839,131.684448 221.946411,131.893646 
	C222.074661,132.520416 221.976486,132.681305 221.570953,132.847382 
	C220.831863,133.258713 220.400146,133.664810 219.730927,133.960754 
	C219.334137,133.921875 219.174835,133.993164 219.015533,134.064468 
z"/>
<path fill="#779187" opacity="1.000000" stroke="none" 
	d="
M219.968414,134.070923 
	C220.400146,133.664810 220.831863,133.258713 221.858154,132.971130 
	C222.660797,133.091522 222.868896,133.093369 223.076981,133.095200 
	C223.597458,133.696503 224.117920,134.297821 225.394852,135.773102 
	C223.245163,135.531509 221.939438,135.384766 220.242004,134.888977 
	C219.850281,134.539932 219.968414,134.070923 219.968414,134.070923 
z"/>
<path fill="#D0D0D1" opacity="1.000000" stroke="none" 
	d="
M219.730927,133.960754 
	C219.968414,134.070923 219.850281,134.539932 219.915497,134.772675 
	C219.651611,134.853073 219.322495,134.700745 219.004456,134.306427 
	C219.174835,133.993164 219.334137,133.921875 219.730927,133.960754 
z"/>
<path fill="#605E5E" opacity="1.000000" stroke="none" 
	d="
M223.099167,132.801270 
	C222.868896,133.093369 222.660797,133.091522 222.165512,132.965912 
	C221.976486,132.681305 222.074661,132.520416 222.215759,132.079895 
	C222.546249,132.035934 222.833801,132.271652 223.099167,132.801270 
z"/>
<path fill="#EAE8E9" opacity="1.000000" stroke="none" 
	d="
M188.953308,132.983459 
	C192.617416,128.754608 193.672028,128.790222 196.990906,133.855438 
	C197.010452,134.456680 196.987045,134.947311 196.987045,134.947311 
	C196.604767,134.912506 196.222504,134.877686 195.303802,134.416626 
	C194.280670,133.605286 193.793961,133.220200 193.136169,132.795517 
	C192.598724,132.824173 192.232391,132.892410 191.502228,132.949493 
	C190.410019,132.953369 189.681671,132.968414 188.953308,132.983459 
z"/>
<path fill="#D0D0D1" opacity="1.000000" stroke="none" 
	d="
M188.974045,132.989319 
	C189.681671,132.968414 190.410019,132.953369 191.516083,132.971069 
	C191.893768,133.003799 191.898544,133.048370 191.801086,133.539185 
	C191.835510,135.017761 191.967377,136.005524 192.099243,136.993286 
	C191.207275,136.868027 190.315277,136.742767 189.366074,136.193909 
	C189.202667,134.832077 189.096497,133.893829 188.990326,132.955597 
	C188.990311,132.955597 188.994781,132.995178 188.974045,132.989319 
z"/>
<path fill="#949696" opacity="1.000000" stroke="none" 
	d="
M192.431000,136.954575 
	C191.967377,136.005524 191.835510,135.017761 192.051758,133.637177 
	C192.702347,133.107941 193.004807,132.971527 193.307266,132.835114 
	C193.793961,133.220200 194.280670,133.605286 195.016525,134.397644 
	C194.431366,135.508575 193.597061,136.212219 192.431000,136.954575 
z"/>
<path fill="#EAE8E9" opacity="1.000000" stroke="none" 
	d="
M188.735092,133.146851 
	C189.096497,133.893829 189.202667,134.832077 189.104401,135.975525 
	C188.759918,135.233185 188.619888,134.285629 188.735092,133.146851 
z"/>
<path fill="#C9CACC" opacity="1.000000" stroke="none" 
	d="
M197.110535,135.111954 
	C196.987045,134.947311 197.010452,134.456680 197.043640,134.213074 
	C197.129227,134.405182 197.181610,134.840881 197.110535,135.111954 
z"/>
<path fill="#C9CACC" opacity="1.000000" stroke="none" 
	d="
M193.279449,69.065948 
	C192.740906,68.518852 192.443909,67.821564 192.146912,67.124283 
	C193.133499,67.063736 194.120071,67.003197 196.102585,66.881538 
	C194.663147,68.015785 194.092087,68.465775 193.279449,69.065948 
z"/>
<path fill="#3D4141" opacity="1.000000" stroke="none" 
	d="
M199.078552,92.988220 
	C198.582947,94.471550 198.087341,95.954872 197.591721,97.438194 
	C196.369110,96.944107 195.146500,96.450027 194.261841,95.661034 
	C195.490601,95.487122 196.381424,95.608109 197.272232,95.729095 
	C197.122375,95.385147 196.972504,95.041199 196.817886,94.377579 
	C197.069504,93.324928 197.325882,92.591949 197.771545,91.998413 
	C198.333405,92.421310 198.705978,92.704765 199.078552,92.988220 
z"/>
<path fill="#4D4E4F" opacity="1.000000" stroke="none" 
	d="
M197.582260,91.858978 
	C197.325882,92.591949 197.069504,93.324928 196.501862,94.266708 
	C195.458755,94.012451 194.726929,93.549385 193.995102,93.086311 
	C194.839050,92.099640 195.682999,91.112961 196.862915,90.688034 
	C197.326660,91.452850 197.454453,91.655914 197.582260,91.858978 
z"/>
<path fill="#E5E4E5" opacity="1.000000" stroke="none" 
	d="
M194.045380,93.441612 
	C194.726929,93.549385 195.458755,94.012451 196.506622,94.586380 
	C196.972504,95.041199 197.122375,95.385147 197.272232,95.729095 
	C196.381424,95.608109 195.490601,95.487122 194.312881,95.298706 
	C194.049210,94.753166 194.072433,94.275040 194.045380,93.441612 
z"/>
<path fill="#1A1B1A" opacity="1.000000" stroke="none" 
	d="
M197.771545,91.998413 
	C197.454453,91.655914 197.326660,91.452850 197.116943,90.898819 
	C197.671844,91.133743 198.308716,91.719643 199.012054,92.646881 
	C198.705978,92.704765 198.333405,92.421310 197.771545,91.998413 
z"/>
<path fill="#242525" opacity="1.000000" stroke="none" 
	d="
M217.070618,56.674381 
	C217.907288,56.453312 218.571030,56.428310 219.557037,56.498665 
	C220.507187,57.220577 221.135071,57.847134 221.601379,58.738388 
	C221.439774,59.003082 221.087769,58.991840 220.611710,58.794121 
	C219.276260,58.904964 218.416870,59.213531 217.372131,59.536835 
	C216.938751,59.546272 216.691376,59.556831 216.072876,59.490494 
	C215.490616,59.252903 215.280167,59.108067 215.069717,58.963230 
	C215.069717,58.963230 215.123886,58.504120 215.168045,58.277229 
	C215.774033,57.657047 216.335861,57.263748 217.070618,56.674381 
z"/>
<path fill="#EAE8E9" opacity="1.000000" stroke="none" 
	d="
M216.444672,59.583248 
	C216.691376,59.556831 216.938751,59.546272 217.502594,59.811127 
	C218.521744,60.407021 219.225082,60.743359 220.040588,61.286514 
	C220.152740,61.493332 220.194580,61.962025 220.194580,61.962029 
	C218.693695,61.724491 217.192825,61.486958 215.397400,61.425228 
	C215.102859,61.601032 215.039642,61.567039 215.426575,61.697723 
	C216.023880,61.080025 216.234283,60.331635 216.444672,59.583248 
z"/>
<path fill="#1A1B1A" opacity="1.000000" stroke="none" 
	d="
M220.546753,61.932014 
	C220.194580,61.962025 220.152740,61.493332 220.156403,61.006691 
	C220.469299,60.010647 220.778534,59.501240 221.087769,58.991837 
	C221.087769,58.991840 221.439774,59.003082 221.615784,59.008461 
	C221.494171,59.976562 221.196548,60.939281 220.546753,61.932014 
z"/>
<path fill="#949696" opacity="1.000000" stroke="none" 
	d="
M230.976273,74.036880 
	C230.727081,74.496338 230.477890,74.955803 230.125214,75.653839 
	C229.323410,75.125389 228.625092,74.358368 228.048248,73.336548 
	C228.600250,73.051102 229.030762,73.020454 229.862900,73.220612 
	C230.445862,73.714554 230.683105,73.909706 230.976273,74.036880 
z"/>
<path fill="#C9CACC" opacity="1.000000" stroke="none" 
	d="
M231.356400,74.020203 
	C230.683105,73.909706 230.445862,73.714554 230.187439,73.232605 
	C231.505081,73.121063 232.899857,73.228340 234.516418,73.588135 
	C233.737640,73.894943 232.737091,73.949234 231.356400,74.020203 
z"/>
<path fill="#71716D" opacity="1.000000" stroke="none" 
	d="
M216.072876,59.490494 
	C216.234283,60.331635 216.023880,61.080025 215.394012,61.682629 
	C214.920227,60.958565 214.865906,60.380283 214.940643,59.382614 
	C215.280167,59.108067 215.490616,59.252903 216.072876,59.490494 
z"/>
<path fill="#363435" opacity="1.000000" stroke="none" 
	d="
M135.641068,70.607025 
	C135.794189,69.933426 136.166489,69.508842 136.781158,68.930588 
	C138.067902,68.807526 139.112274,68.838135 140.541748,68.953537 
	C141.292145,69.812263 141.657455,70.586197 141.665649,71.624084 
	C141.092667,71.851082 140.876755,71.814125 140.525452,71.508301 
	C139.688187,70.887573 138.986328,70.535706 138.284470,70.183838 
	C138.575409,70.753777 138.866364,71.323708 138.864105,71.935730 
	C138.373672,71.987282 138.176437,71.996758 137.729095,71.978897 
	C137.311264,71.949722 137.143539,71.947876 136.975800,71.946022 
	C136.975800,71.946022 137.024811,71.988159 136.950775,71.864922 
	C136.727905,71.558113 136.544815,71.419907 136.327469,71.327072 
	C136.171738,71.170067 136.015991,71.013054 135.641068,70.607025 
z"/>
<path fill="#242525" opacity="1.000000" stroke="none" 
	d="
M137.979202,72.006226 
	C138.176437,71.996758 138.373672,71.987282 139.115082,71.930313 
	C139.993103,71.847595 140.326965,71.812386 140.660843,71.777168 
	C140.876755,71.814125 141.092667,71.851082 141.631897,71.946419 
	C141.571106,72.651627 141.186981,73.298447 140.373367,73.663773 
	C139.288986,72.923584 138.634094,72.464905 137.979202,72.006226 
z"/>
<path fill="#EAE8E9" opacity="1.000000" stroke="none" 
	d="
M137.729095,71.978897 
	C138.634094,72.464905 139.288986,72.923584 140.032516,73.682983 
	C139.410980,73.937744 138.700821,73.891785 137.635254,73.864059 
	C137.001816,73.435165 136.723770,72.988037 136.710754,72.243469 
	C137.143539,71.947876 137.311264,71.949722 137.729095,71.978897 
z"/>
<path fill="#EAE8E9" opacity="1.000000" stroke="none" 
	d="
M136.365997,71.562599 
	C136.544815,71.419907 136.727905,71.558113 136.978149,71.882080 
	C137.079590,72.022476 136.640549,72.214935 136.640549,72.214935 
	C136.640549,72.214935 136.404510,71.798126 136.365997,71.562599 
z"/>
<path fill="#949696" opacity="1.000000" stroke="none" 
	d="
M72.684616,97.492088 
	C72.666077,97.275818 72.887428,97.184418 72.993629,97.128006 
	C73.772934,96.900597 74.446037,96.729614 75.158203,96.837029 
	C75.197266,97.115433 75.049820,97.548569 75.026016,97.776253 
	C75.002205,98.003937 74.990829,97.947708 74.990829,97.947708 
	C74.228271,97.867920 73.465706,97.788139 72.684616,97.492088 
z"/>
<path fill="#BDBEBE" opacity="1.000000" stroke="none" 
	d="
M74.973915,97.999016 
	C75.697205,98.043518 76.448776,98.092949 77.200356,98.142372 
	C77.116470,98.480942 77.032593,98.819519 76.948708,99.158096 
	C76.316422,98.961731 75.684143,98.765366 75.021347,98.258354 
	C74.990829,97.947708 75.002205,98.003937 74.973915,97.999016 
z"/>
<path fill="#C9CACC" opacity="1.000000" stroke="none" 
	d="
M193.136169,132.795532 
	C193.004807,132.971527 192.702347,133.107941 192.149216,133.146362 
	C191.898544,133.048370 191.893768,133.003799 191.879913,132.982208 
	C192.232391,132.892410 192.598724,132.824173 193.136169,132.795532 
z"/>
<path fill="#605E5E" opacity="1.000000" stroke="none" 
	d="
M220.611710,58.794117 
	C220.778534,59.501240 220.469299,60.010647 220.044250,60.799873 
	C219.225082,60.743359 218.521744,60.407021 217.687943,59.796394 
	C218.416870,59.213531 219.276260,58.904964 220.611710,58.794117 
z"/>
<path fill="#779187" opacity="1.000000" stroke="none" 
	d="
M140.525452,71.508301 
	C140.326965,71.812386 139.993103,71.847595 139.408264,71.888229 
	C138.866364,71.323708 138.575409,70.753777 138.284470,70.183838 
	C138.986328,70.535706 139.688187,70.887573 140.525452,71.508301 
z"/>
</svg>