<?xml version="1.0" standalone="no"?>
<!DOCTYPE svg PUBLIC "-//W3C//DTD SVG 20010904//EN"
 "http://www.w3.org/TR/2001/REC-SVG-20010904/DTD/svg10.dtd">
<svg version="1.0" xmlns="http://www.w3.org/2000/svg"
 width="300.000000pt" height="173.000000pt" viewBox="0 0 300.000000 173.000000"
 preserveAspectRatio="xMidYMid meet">
<metadata>
Created by potrace 1.16, written by Peter Selinger 2001-2019
</metadata>
<g transform="translate(0.000000,173.000000) scale(0.100000,-0.100000)"
fill="#000000" stroke="none">
<path d="M2053 663 c-22 -15 -23 -21 -23 -179 l0 -164 41 0 c33 0 40 3 35 16
-3 9 -6 90 -6 180 0 175 -2 179 -47 147z"/>
<path d="M1298 494 l-3 -174 34 0 c26 0 32 3 27 16 -3 9 -6 86 -6 172 l0 157
-25 1 -24 2 -3 -174z"/>
</g>
</svg>
